<svg enable-background="new 0 0 283.46 425.2" viewBox="0 0 283.46 425.2" xmlns="http://www.w3.org/2000/svg"><path d="m-.13 239.52h283.73v185.68h-283.73z" fill="#394871"/><g enable-background="new" fill="#d7bbb5"><path d="m60.75 269.33v-1.85h5.05v4.37c-.49.45-1.2.84-2.13 1.19-.93.34-1.87.51-2.83.51-1.21 0-2.27-.24-3.17-.72s-1.58-1.17-2.03-2.06c-.45-.9-.68-1.87-.68-2.92 0-1.14.25-2.16.76-3.04.51-.89 1.25-1.57 2.22-2.04.74-.36 1.67-.55 2.78-.55 1.44 0 2.57.29 3.38.86s1.33 1.36 1.56 2.37l-2.33.41c-.16-.54-.47-.96-.92-1.28-.45-.31-1.01-.47-1.69-.47-1.02 0-1.84.31-2.44.92s-.91 1.52-.91 2.73c0 1.3.31 2.28.92 2.93s1.41.98 2.41.98c.49 0 .98-.09 1.48-.27.49-.18.92-.4 1.27-.66v-1.39h-2.7z"/><path d="m67.96 273.36v-10.96h8.6v1.85h-6.26v2.43h5.82v1.85h-5.82v2.98h6.48v1.85z"/><path d="m78.79 273.36v-10.96h2.28l4.75 7.32v-7.32h2.18v10.96h-2.35l-4.68-7.15v7.15z"/><path d="m90.47 273.36v-10.96h8.6v1.85h-6.26v2.43h5.82v1.85h-5.82v2.98h6.48v1.85z"/><path d="m108.4 273.36v-9.11h-3.44v-1.85h9.22v1.85h-3.44v9.11z"/><path d="m115.69 273.36v-10.96h2.34v4.32h4.59v-4.32h2.34v10.96h-2.34v-4.79h-4.59v4.79z"/><path d="m126.92 267.94c0-1.12.18-2.05.53-2.81.26-.56.62-1.06 1.08-1.5s.96-.77 1.5-.99c.72-.29 1.56-.43 2.5-.43 1.71 0 3.08.5 4.1 1.5 1.03 1 1.54 2.4 1.54 4.18 0 1.77-.51 3.15-1.53 4.15s-2.38 1.5-4.08 1.5c-1.73 0-3.1-.5-4.12-1.49-1.01-.99-1.52-2.36-1.52-4.11zm2.41-.07c0 1.24.3 2.18.91 2.82s1.38.96 2.31.96 1.7-.32 2.3-.95.9-1.59.9-2.86c0-1.26-.29-2.19-.87-2.81s-1.36-.93-2.32-.93c-.97 0-1.74.31-2.33.94s-.9 1.57-.9 2.83z"/><path d="m139.97 273.36v-10.96h3.51l2.11 7.48 2.08-7.48h3.51v10.96h-2.18v-8.63l-2.3 8.63h-2.26l-2.3-8.63v8.63z"/><path d="m163.96 273.36h-2.55l-1.01-2.49h-4.64l-.96 2.49h-2.49l4.52-10.96h2.48zm-4.31-4.34-1.6-4.07-1.57 4.07z"/><path d="m164.61 269.79 2.28-.21c.14.72.42 1.25.83 1.59.42.34.99.51 1.7.51.75 0 1.32-.15 1.71-.45.38-.3.57-.65.57-1.06 0-.26-.08-.48-.24-.66s-.44-.34-.84-.48c-.27-.09-.9-.25-1.88-.48-1.26-.29-2.14-.66-2.64-1.08-.71-.6-1.07-1.34-1.07-2.21 0-.56.17-1.08.5-1.57s.82-.86 1.45-1.11 1.39-.38 2.28-.38c1.46 0 2.55.3 3.29.91s1.12 1.41 1.16 2.42l-2.34.1c-.1-.56-.32-.97-.65-1.21-.33-.25-.82-.37-1.48-.37-.68 0-1.21.13-1.6.4-.25.17-.37.4-.37.68 0 .26.12.48.35.67.3.23 1.01.48 2.15.73s1.98.52 2.53.79.97.64 1.28 1.12c.31.47.46 1.05.46 1.75 0 .63-.18 1.22-.55 1.76-.37.55-.89.96-1.57 1.22-.68.27-1.52.4-2.52.4-1.47 0-2.59-.32-3.38-.96s-1.26-1.59-1.41-2.82z"/><path d="m190.78 272.02-1.35 1.62c-.66-.3-1.29-.72-1.9-1.26-.47.4-.97.69-1.5.88s-1.16.28-1.88.28c-1.45 0-2.53-.38-3.26-1.15-.57-.59-.85-1.28-.85-2.05 0-.7.22-1.33.67-1.9.44-.56 1.11-1.05 1.99-1.46-.4-.44-.69-.87-.89-1.27s-.3-.78-.3-1.14c0-.66.28-1.23.84-1.69s1.36-.69 2.4-.69c1 0 1.79.24 2.35.73s.85 1.07.85 1.77c0 .44-.14.87-.42 1.26-.28.4-.84.85-1.69 1.35l1.62 2.01c.19-.32.35-.74.49-1.25l2.01.43c-.2.67-.38 1.17-.52 1.48-.15.31-.31.57-.48.78.25.22.57.46.96.72.39.29.68.46.86.55zm-6.92-3.68c-.51.24-.89.54-1.15.88-.25.34-.38.7-.38 1.05 0 .45.16.82.47 1.11s.73.43 1.26.43c.35 0 .68-.06 1-.19s.67-.34 1.05-.64zm.87-2.28.6-.43c.44-.32.67-.65.67-.96 0-.27-.11-.5-.32-.69s-.5-.28-.87-.28c-.35 0-.63.08-.83.25s-.3.36-.3.58c0 .26.17.57.51.94z"/><path d="m196.74 273.36v-10.96h7.95v1.85h-5.61v2.59h4.84v1.86h-4.84v4.66z"/><path d="m206.64 273.36v-10.96h4.93c1.24 0 2.14.1 2.7.29.56.2 1.01.55 1.35 1.05s.51 1.08.51 1.73c0 .82-.26 1.5-.77 2.04s-1.28.87-2.29 1.01c.51.28.92.59 1.25.92s.77.93 1.33 1.78l1.42 2.14h-2.8l-1.69-2.39c-.6-.85-1.01-1.39-1.24-1.61-.22-.22-.46-.37-.7-.46-.25-.08-.64-.12-1.18-.12h-.48v4.58zm2.34-6.33h1.73c1.12 0 1.83-.04 2.11-.13s.5-.24.66-.46.24-.49.24-.82c0-.37-.1-.67-.31-.89-.21-.23-.5-.37-.88-.43-.19-.02-.76-.04-1.71-.04h-1.83v2.77z"/><path d="m218.26 273.36v-10.96h2.34v10.96z"/><path d="m222.84 273.36v-10.96h8.6v1.85h-6.26v2.43h5.82v1.85h-5.83v2.98h6.48v1.85z"/><path d="m233.67 273.36v-10.96h2.28l4.75 7.32v-7.32h2.18v10.96h-2.35l-4.68-7.15v7.15z"/><path d="m245.34 262.39h4.28c.96 0 1.7.07 2.21.21.68.19 1.26.53 1.75 1.01s.85 1.08 1.11 1.78c.25.7.38 1.56.38 2.59 0 .9-.12 1.68-.36 2.33-.29.8-.71 1.44-1.24 1.94-.41.37-.96.67-1.65.88-.52.15-1.21.23-2.07.23h-4.41zm2.35 1.86v7.26h1.75c.65 0 1.13-.03 1.42-.1.38-.09.7-.24.95-.46.25-.21.46-.57.61-1.06s.24-1.16.24-2.01-.08-1.5-.24-1.95-.38-.81-.66-1.06c-.29-.25-.65-.43-1.08-.52-.33-.07-.97-.1-1.92-.1z"/><path d="m256.46 269.79 2.28-.21c.14.72.42 1.25.83 1.59.42.34.99.51 1.7.51.75 0 1.32-.15 1.71-.45.38-.3.57-.65.57-1.06 0-.26-.08-.48-.24-.66s-.44-.34-.84-.48c-.27-.09-.9-.25-1.88-.48-1.26-.29-2.14-.66-2.64-1.08-.71-.6-1.07-1.34-1.07-2.21 0-.56.17-1.08.5-1.57s.82-.86 1.45-1.11 1.39-.38 2.28-.38c1.46 0 2.55.3 3.29.91s1.12 1.41 1.16 2.42l-2.34.1c-.1-.56-.32-.97-.65-1.21-.33-.25-.82-.37-1.48-.37-.68 0-1.21.13-1.6.4-.25.17-.37.4-.37.68 0 .26.12.48.35.67.3.23 1.01.48 2.15.73s1.98.52 2.53.79.97.64 1.28 1.12c.31.47.46 1.05.46 1.75 0 .63-.18 1.22-.55 1.76-.37.55-.89.96-1.57 1.22-.68.27-1.52.4-2.52.4-1.47 0-2.59-.32-3.38-.96s-1.25-1.59-1.41-2.82z"/></g><g enable-background="new" fill="#d7bbb5"><path d="m61.19 287.99v-9.11h-5.67v-1.85h15.18v1.85h-5.65v9.11z"/><path d="m73.21 287.99v-10.96h3.86v4.32h7.56v-4.32h3.86v10.96h-3.86v-4.79h-7.56v4.79z"/><path d="m92.46 287.99v-10.96h14.16v1.85h-10.3v2.43h9.59v1.85h-9.59v2.98h10.67v1.85z"/><path d="m116.7 284.42 3.75-.21c.23.72.68 1.25 1.37 1.59s1.62.51 2.79.51c1.24 0 2.18-.15 2.81-.45s.94-.65.94-1.06c0-.26-.13-.48-.4-.66-.26-.18-.73-.34-1.39-.48-.45-.09-1.48-.25-3.09-.48-2.07-.29-3.52-.66-4.35-1.08-1.17-.6-1.76-1.34-1.76-2.21 0-.56.28-1.08.83-1.57s1.35-.86 2.38-1.11c1.04-.25 2.29-.38 3.76-.38 2.4 0 4.2.3 5.41.91s1.85 1.41 1.91 2.42l-3.86.1c-.17-.56-.52-.97-1.06-1.21-.54-.25-1.36-.37-2.44-.37-1.12 0-2 .13-2.63.4-.41.17-.61.4-.61.68 0 .26.19.48.57.67.49.23 1.67.48 3.54.73 1.88.25 3.26.52 4.16.79s1.6.64 2.11 1.12c.51.47.76 1.05.76 1.75 0 .63-.3 1.22-.91 1.76-.61.55-1.47.96-2.58 1.22s-2.5.4-4.16.4c-2.42 0-4.27-.32-5.56-.96-1.26-.66-2.04-1.59-2.29-2.82z"/><path d="m139.78 287.99v-9.11h-5.67v-1.85h15.18v1.85h-5.66v9.11z"/><path d="m167.02 287.99h-4.2l-1.67-2.49h-7.64l-1.58 2.49h-4.09l7.44-10.96h4.08zm-7.1-4.34-2.63-4.07-2.58 4.07z"/><path d="m169.08 287.99v-10.96h8.12c2.04 0 3.52.1 4.45.29.92.2 1.67.55 2.22 1.05.56.5.83 1.08.83 1.73 0 .82-.42 1.5-1.26 2.04s-2.1.87-3.78 1.01c.83.28 1.52.59 2.07.92s1.27.93 2.2 1.78l2.33 2.14h-4.61l-2.79-2.39c-.99-.85-1.67-1.39-2.03-1.61-.37-.22-.75-.37-1.16-.46-.41-.08-1.05-.12-1.94-.12h-.78v4.58zm3.86-6.33h2.85c1.85 0 3-.04 3.47-.13.46-.09.82-.24 1.08-.46s.39-.49.39-.82c0-.37-.17-.67-.51-.89-.34-.23-.83-.37-1.45-.43-.31-.02-1.25-.04-2.81-.04h-3.01v2.77z"/><path d="m188.44 287.99v-10.87h3.86v9.03h9.59v1.85h-13.45z"/><path d="m204.52 287.99v-10.96h3.86v10.96z"/><path d="m212.09 287.99v-10.96h3.75l7.82 7.32v-7.32h3.58v10.96h-3.87l-7.7-7.15v7.15z"/><path d="m240.21 283.96v-1.85h8.31v4.37c-.81.45-1.98.84-3.51 1.19s-3.09.51-4.66.51c-2 0-3.74-.24-5.22-.72-1.49-.48-2.6-1.17-3.35-2.06-.75-.9-1.12-1.87-1.12-2.92 0-1.14.42-2.16 1.25-3.04.83-.89 2.05-1.57 3.66-2.04 1.22-.36 2.75-.55 4.57-.55 2.37 0 4.22.29 5.56.86 1.33.57 2.19 1.36 2.57 2.37l-3.83.41c-.27-.54-.78-.96-1.52-1.28-.74-.31-1.67-.47-2.78-.47-1.69 0-3.03.31-4.02.92-1 .61-1.49 1.52-1.49 2.73 0 1.3.5 2.28 1.51 2.93s2.33.98 3.96.98c.81 0 1.62-.09 2.43-.27s1.51-.4 2.09-.66v-1.39h-4.41z"/><path d="m251.1 284.42 3.75-.21c.23.72.68 1.25 1.38 1.59.69.34 1.62.51 2.79.51 1.24 0 2.18-.15 2.81-.45s.94-.65.94-1.06c0-.26-.13-.48-.4-.66-.26-.18-.73-.34-1.39-.48-.45-.09-1.48-.25-3.09-.48-2.07-.29-3.52-.66-4.35-1.08-1.17-.6-1.76-1.34-1.76-2.21 0-.56.28-1.08.83-1.57s1.35-.86 2.38-1.11c1.04-.25 2.29-.38 3.76-.38 2.4 0 4.2.3 5.41.91 1.21.6 1.85 1.41 1.91 2.42l-3.86.1c-.17-.56-.52-.97-1.06-1.21-.54-.25-1.36-.37-2.44-.37-1.12 0-2 .13-2.63.4-.41.17-.61.4-.61.68 0 .26.19.48.57.67.49.23 1.67.48 3.54.73 1.88.25 3.26.52 4.16.79s1.6.64 2.11 1.12c.51.47.76 1.05.76 1.75 0 .63-.3 1.22-.91 1.76-.61.55-1.47.96-2.58 1.22-1.11.27-2.5.4-4.16.4-2.42 0-4.27-.32-5.56-.96-1.27-.66-2.05-1.59-2.3-2.82z"/></g><g enable-background="new" fill="#d7bbb5"><path d="m61.98 302.49-4.26-10.96h3.68l2.69 7.53 3.26-7.53h4.28l3.12 7.66 2.74-7.66h3.62l-4.33 10.96h-3.82l-3.55-8.2-3.54 8.2z"/><path d="m82.84 302.49v-10.96h3.6v10.96z"/><path d="m89.97 302.49v-10.87h3.6v9.03h8.95v1.85h-12.55z"/><path d="m105.18 302.49v-10.87h3.6v9.03h8.95v1.85h-12.55z"/><path d="m122.69 302.49v-4.61l-6.53-6.35h4.22l4.19 4.34 4.11-4.34h4.15l-6.55 6.36v4.6z"/><path d="m140.17 298.92 3.5-.21c.21.72.64 1.25 1.28 1.59s1.51.51 2.61.51c1.16 0 2.03-.15 2.62-.45s.88-.65.88-1.06c0-.26-.12-.48-.37-.66s-.68-.34-1.29-.48c-.42-.09-1.38-.25-2.88-.48-1.93-.29-3.28-.66-4.06-1.08-1.09-.6-1.64-1.34-1.64-2.21 0-.56.26-1.08.77-1.57s1.26-.86 2.23-1.11 2.14-.38 3.51-.38c2.24 0 3.92.3 5.05.91 1.13.6 1.72 1.41 1.78 2.42l-3.6.1c-.15-.56-.48-.97-.99-1.21-.51-.25-1.27-.37-2.28-.37-1.04 0-1.86.13-2.46.4-.38.17-.57.4-.57.68 0 .26.18.48.54.67.45.23 1.56.48 3.31.73s3.05.52 3.88.79c.84.27 1.5.64 1.97 1.12.47.47.71 1.05.71 1.75 0 .63-.28 1.22-.85 1.76-.57.55-1.37.96-2.41 1.22s-2.33.4-3.88.4c-2.25 0-3.98-.32-5.19-.96s-1.93-1.59-2.17-2.82z"/><path d="m156.96 297.07c0-1.12.27-2.05.82-2.81.4-.56.96-1.06 1.66-1.5s1.47-.77 2.3-.99c1.11-.29 2.39-.43 3.84-.43 2.63 0 4.73.5 6.3 1.5 1.58 1 2.37 2.4 2.37 4.18 0 1.77-.78 3.15-2.35 4.15s-3.66 1.5-6.27 1.5c-2.65 0-4.76-.5-6.32-1.49-1.57-.99-2.35-2.36-2.35-4.11zm3.71-.07c0 1.24.47 2.18 1.4 2.82s2.12.96 3.55.96 2.61-.32 3.53-.95 1.38-1.59 1.38-2.86c0-1.26-.45-2.19-1.34-2.81-.9-.62-2.09-.93-3.57-.93s-2.68.31-3.59.94c-.91.62-1.36 1.57-1.36 2.83z"/><path d="m177.01 302.49v-10.96h5.39l3.23 7.48 3.2-7.48h5.4v10.96h-3.34v-8.63l-3.54 8.63h-3.46l-3.53-8.63v8.63z"/><path d="m197.75 302.49v-10.96h5.39l3.23 7.48 3.2-7.48h5.4v10.96h-3.34v-8.63l-3.54 8.63h-3.46l-3.53-8.63v8.63z"/><path d="m218.54 302.49v-10.96h13.22v1.85h-9.62v2.43h8.95v1.85h-8.95v2.98h9.96v1.85z"/><path d="m235.17 302.49v-10.96h7.57c1.91 0 3.29.1 4.15.29.86.2 1.55.55 2.07 1.05s.78 1.08.78 1.73c0 .82-.39 1.5-1.18 2.04s-1.96.87-3.53 1.01c.78.28 1.42.59 1.93.92s1.19.93 2.05 1.78l2.18 2.14h-4.3l-2.6-2.39c-.92-.85-1.56-1.39-1.9-1.61s-.7-.37-1.08-.46c-.38-.08-.99-.12-1.81-.12h-.73v4.58zm3.6-6.33h2.66c1.73 0 2.8-.04 3.23-.13s.77-.24 1.01-.46.36-.49.36-.82c0-.37-.16-.67-.48-.89-.32-.23-.77-.37-1.36-.43-.29-.02-1.17-.04-2.62-.04h-2.81v2.77z"/><path d="m252.22 298.92 3.5-.21c.21.72.64 1.25 1.28 1.59s1.51.51 2.61.51c1.16 0 2.03-.15 2.62-.45s.88-.65.88-1.06c0-.26-.12-.48-.37-.66s-.68-.34-1.29-.48c-.42-.09-1.38-.25-2.88-.48-1.93-.29-3.28-.66-4.06-1.08-1.09-.6-1.64-1.34-1.64-2.21 0-.56.26-1.08.77-1.57s1.26-.86 2.22-1.11c.97-.25 2.14-.38 3.51-.38 2.24 0 3.92.3 5.05.91s1.72 1.41 1.78 2.42l-3.6.1c-.15-.56-.48-.97-.99-1.21-.51-.25-1.27-.37-2.28-.37-1.05 0-1.86.13-2.46.4-.38.17-.57.4-.57.68 0 .26.18.48.53.67.45.23 1.56.48 3.31.73s3.05.52 3.88.79c.84.27 1.5.64 1.97 1.12.47.47.71 1.05.71 1.75 0 .63-.28 1.22-.85 1.76-.57.55-1.37.96-2.41 1.22-1.04.27-2.33.4-3.88.4-2.25 0-3.98-.32-5.19-.96-1.19-.66-1.91-1.59-2.15-2.82z"/></g><g enable-background="new" fill="#d7bbb5"><path d="m59.61 317.29v-9.11h-3.7v-1.85h9.9v1.85h-3.69v9.11z"/><path d="m67.44 317.29v-10.96h2.51v4.32h4.93v-4.32h2.51v10.96h-2.51v-4.79h-4.93v4.79z"/><path d="m80 317.29v-10.96h9.23v1.85h-6.72v2.43h6.25v1.85h-6.25v2.98h6.96v1.85z"/><path d="m107.02 317.29h-2.74l-1.09-2.49h-4.98l-1.03 2.49h-2.67l4.85-10.96h2.66zm-4.63-4.33-1.72-4.07-1.68 4.07z"/><path d="m108.32 317.29v-10.96h3.76l2.26 7.48 2.23-7.48h3.77v10.96h-2.34v-8.63l-2.47 8.63h-2.42l-2.46-8.63v8.63z"/><path d="m134.08 317.29h-2.74l-1.09-2.49h-4.98l-1.03 2.49h-2.67l4.85-10.96h2.66zm-4.63-4.33-1.72-4.07-1.68 4.07z"/><path d="m134.33 317.29v-2l6.54-7.11h-5.8v-1.85h9.12v1.72l-6.82 7.4h7.08v1.85h-10.12z"/><path d="m145.96 317.29v-10.96h2.51v10.96z"/><path d="m150.9 317.29v-10.96h2.45l5.1 7.32v-7.32h2.34v10.96h-2.52l-5.02-7.15v7.15z"/><path d="m169.23 313.26v-1.85h5.42v4.37c-.53.45-1.29.84-2.29 1.19-1 .34-2.01.51-3.04.51-1.3 0-2.44-.24-3.41-.72s-1.7-1.17-2.18-2.06c-.49-.9-.73-1.87-.73-2.92 0-1.14.27-2.16.82-3.04.54-.89 1.34-1.57 2.39-2.04.8-.36 1.79-.55 2.98-.55 1.55 0 2.75.29 3.62.86s1.43 1.36 1.68 2.37l-2.5.41c-.18-.54-.51-.96-.99-1.28-.48-.31-1.09-.47-1.81-.47-1.1 0-1.97.31-2.62.92s-.97 1.52-.97 2.73c0 1.3.33 2.28.99 2.93s1.52.98 2.58.98c.53 0 1.05-.09 1.58-.27s.98-.4 1.36-.66v-1.39h-2.88z"/><path d="m181.82 317.29v-10.96h8.54v1.85h-6.02v2.59h5.2v1.86h-5.2v4.66z"/><path d="m192.5 317.29v-10.87h2.51v9.03h6.25v1.85h-8.76z"/><path d="m202.54 311.88c0-1.12.19-2.05.57-2.81.28-.56.67-1.06 1.16-1.5s1.03-.77 1.61-.99c.78-.29 1.67-.43 2.68-.43 1.83 0 3.3.5 4.4 1.5s1.65 2.4 1.65 4.18c0 1.77-.55 3.15-1.64 4.15s-2.55 1.5-4.38 1.5c-1.85 0-3.32-.5-4.42-1.49-1.08-1-1.63-2.37-1.63-4.11zm2.6-.08c0 1.24.33 2.18.98 2.82s1.48.96 2.48.96 1.83-.32 2.47-.95.96-1.59.96-2.86c0-1.26-.31-2.19-.94-2.81s-1.46-.93-2.49-.93-1.87.31-2.51.94-.95 1.57-.95 2.83z"/><path d="m218.35 317.29-2.97-10.96h2.57l1.88 7.53 2.28-7.53h2.99l2.18 7.66 1.91-7.66h2.53l-3.02 10.96h-2.67l-2.48-8.2-2.47 8.2z"/><path d="m233.01 317.29v-10.96h9.23v1.85h-6.72v2.43h6.25v1.85h-6.25v2.98h6.96v1.85z"/><path d="m244.62 317.29v-10.96h5.29c1.33 0 2.3.1 2.9.29.6.2 1.09.55 1.45 1.05s.54 1.08.54 1.73c0 .82-.28 1.5-.82 2.04-.55.54-1.37.87-2.46 1.01.54.28.99.59 1.35.92s.83.93 1.43 1.78l1.52 2.14h-3.01l-1.82-2.39c-.65-.85-1.09-1.39-1.33-1.61s-.49-.37-.76-.46c-.27-.08-.69-.12-1.27-.12h-.51v4.58zm2.52-6.32h1.86c1.21 0 1.96-.04 2.26-.13s.54-.24.71-.46.25-.49.25-.82c0-.37-.11-.67-.34-.89-.22-.23-.54-.37-.95-.43-.2-.02-.82-.04-1.83-.04h-1.96z"/><path d="m256.54 313.73 2.45-.21c.15.72.45 1.25.9 1.59s1.06.51 1.82.51c.81 0 1.42-.15 1.83-.45s.62-.65.62-1.06c0-.26-.09-.48-.26-.66s-.47-.34-.91-.48c-.29-.09-.97-.25-2.01-.48-1.35-.29-2.29-.66-2.84-1.08-.76-.6-1.15-1.34-1.15-2.21 0-.56.18-1.08.54-1.57s.88-.86 1.55-1.11c.68-.25 1.49-.38 2.45-.38 1.56 0 2.74.3 3.53.91s1.21 1.41 1.24 2.42l-2.51.1c-.11-.56-.34-.97-.69-1.21-.35-.25-.89-.37-1.59-.37-.73 0-1.3.13-1.72.4-.27.17-.4.4-.4.68 0 .26.12.48.37.67.32.23 1.09.48 2.31.73s2.13.52 2.71.79c.59.27 1.04.64 1.38 1.12.33.47.5 1.05.5 1.75 0 .63-.2 1.22-.59 1.76-.4.55-.96.96-1.68 1.22-.72.27-1.63.4-2.71.4-1.58 0-2.78-.32-3.63-.96s-1.35-1.6-1.51-2.82z"/></g><g enable-background="new" fill="#d7bbb5"><path d="m57.29 344.87v-22.74h27.78c6.98 0 12.06.2 15.23.61s5.7 1.14 7.6 2.18 2.85 2.24 2.85 3.58c0 1.71-1.44 3.12-4.32 4.23s-7.19 1.81-12.93 2.1c2.85.58 5.21 1.22 7.07 1.91s4.36 1.92 7.51 3.69l7.98 4.44h-15.78l-9.54-4.95c-3.39-1.77-5.71-2.88-6.96-3.34s-2.57-.78-3.97-.95-3.61-.26-6.64-.26h-2.68v9.49h-13.2zm13.19-13.12h9.76c6.33 0 10.28-.09 11.86-.28s2.81-.51 3.7-.96 1.34-1.02 1.34-1.71c0-.77-.59-1.38-1.76-1.85s-2.83-.77-4.97-.89c-1.07-.05-4.28-.08-9.63-.08h-10.3z"/><path d="m123.18 344.87v-22.74h48.46v3.85h-35.27v5.04h32.82v3.83h-32.82v6.19h36.52v3.83z"/><path d="m214.5 336.51v-3.83h28.45v9.06c-2.76.93-6.77 1.75-12.02 2.46s-10.56 1.06-15.94 1.06c-6.84 0-12.8-.5-17.88-1.5s-8.9-2.42-11.46-4.28-3.83-3.88-3.83-6.06c0-2.37 1.43-4.47 4.28-6.31s7.03-3.25 12.53-4.23c4.19-.75 9.41-1.13 15.65-1.13 8.12 0 14.45.59 19.02 1.78 4.56 1.18 7.5 2.82 8.81 4.91l-13.11.85c-.92-1.12-2.65-2-5.19-2.64-2.54-.65-5.71-.97-9.52-.97-5.77 0-10.35.64-13.75 1.91s-5.1 3.16-5.1 5.66c0 2.7 1.72 4.72 5.17 6.07s7.96 2.02 13.55 2.02c2.76 0 5.54-.19 8.32-.57s5.16-.83 7.16-1.37v-2.88h-15.14z"/><path d="m254.71 344.87v-22.74h13.2v22.74z"/></g><g enable-background="new" fill="#7e6a75"><path d="m59.76 253c0-.49.22-.97.65-1.43s1.04-.81 1.83-1.06 1.67-.37 2.64-.37c1.5 0 2.73.28 3.69.83s1.44 1.25 1.44 2.09c0 .85-.48 1.55-1.45 2.11s-2.19.84-3.66.84c-.91 0-1.78-.12-2.6-.35-.83-.23-1.45-.57-1.88-1.02-.44-.45-.66-.99-.66-1.64zm2.69.08c0 .56.23.98.7 1.28s1.04.44 1.73.44 1.26-.15 1.73-.44c.46-.3.7-.73.7-1.29 0-.55-.23-.97-.7-1.27-.46-.3-1.04-.44-1.73-.44s-1.26.15-1.73.44c-.46.3-.7.72-.7 1.28z"/><path d="m71.99 250.27h2.45v.83c.32-.28.75-.51 1.29-.69s1.14-.26 1.8-.26c1.15 0 2.13.26 2.94.77.8.51 1.21 1.22 1.21 2.14 0 .94-.41 1.67-1.22 2.19s-1.79.78-2.95.78c-.55 0-1.05-.06-1.49-.19-.45-.12-.92-.33-1.41-.63v2.83h-2.63v-7.77zm2.6 2.72c0 .63.22 1.1.66 1.4s.98.45 1.62.45c.61 0 1.12-.14 1.52-.42.41-.28.61-.73.61-1.36 0-.59-.21-1.03-.63-1.31-.42-.29-.94-.43-1.55-.43-.64 0-1.17.14-1.6.42-.42.28-.63.69-.63 1.25z"/><path d="m88.32 250.27v1.18h-1.8v2.26c0 .46.02.73.05.8.03.08.11.14.23.19s.27.07.44.07c.24 0 .6-.05 1.06-.14l.22 1.15c-.61.15-1.3.22-2.08.22-.47 0-.9-.04-1.28-.13s-.66-.21-.84-.35-.3-.33-.37-.58c-.06-.17-.08-.52-.08-1.05v-2.45h-1.21v-1.18h1.21v-1.12l2.64-.87v1.98h1.81z"/><path d="m92.66 255.89h-2.63v-5.62h2.44v.8c.42-.38.79-.63 1.13-.75.33-.12.71-.18 1.14-.18.6 0 1.17.09 1.73.28l-.81 1.3c-.44-.16-.85-.24-1.23-.24-.37 0-.68.06-.94.17s-.46.32-.6.62c-.15.3-.22.93-.22 1.88v1.74z"/><path d="m103.34 254.1 2.62.25c-.34.54-.87.96-1.59 1.24s-1.63.43-2.73.43c-1.73 0-3-.32-3.83-.96-.65-.51-.98-1.16-.98-1.94 0-.93.43-1.66 1.29-2.19s1.95-.79 3.26-.79c1.48 0 2.64.28 3.5.83.85.55 1.26 1.4 1.22 2.54h-6.58c.02.44.23.78.64 1.03s.91.37 1.51.37c.41 0 .76-.06 1.04-.19s.49-.34.63-.62zm.15-1.5c-.02-.43-.21-.76-.59-.98-.37-.22-.83-.34-1.37-.34-.57 0-1.05.12-1.42.35s-.56.56-.55.96h3.93z"/><path d="m117.35 255.89h-2.44v-.83c-.41.32-.88.56-1.44.72s-1.11.24-1.67.24c-1.14 0-2.12-.26-2.93-.78s-1.22-1.25-1.22-2.18c0-.95.4-1.67 1.19-2.17s1.79-.74 3-.74c1.11 0 2.07.26 2.88.78v-2.79h2.63zm-7.01-2.93c0 .6.15 1.03.44 1.3.42.39 1.02.58 1.78.58.6 0 1.12-.15 1.54-.44s.64-.73.64-1.3c0-.65-.21-1.11-.62-1.39s-.94-.43-1.58-.43c-.62 0-1.15.14-1.57.42s-.63.7-.63 1.26z"/><path d="m125.69 254.1 2.62.25c-.34.54-.87.96-1.59 1.24s-1.63.43-2.73.43c-1.73 0-3-.32-3.83-.96-.65-.51-.98-1.16-.98-1.94 0-.93.43-1.66 1.29-2.19s1.95-.79 3.26-.79c1.48 0 2.64.28 3.5.83.85.55 1.26 1.4 1.22 2.54h-6.58c.02.44.23.78.64 1.03s.91.37 1.51.37c.41 0 .76-.06 1.04-.19s.49-.34.63-.62zm.15-1.5c-.02-.43-.21-.76-.59-.98-.37-.22-.83-.34-1.37-.34-.57 0-1.05.12-1.42.35s-.56.56-.55.96h3.93z"/><path d="m139.62 255.89h-2.62v-2.87c0-.61-.06-1-.17-1.18s-.29-.32-.55-.42-.56-.15-.91-.15c-.46 0-.86.07-1.23.21-.36.14-.61.33-.74.56s-.2.66-.2 1.29v2.54h-2.63v-5.62h2.44v.83c.87-.63 1.96-.95 3.27-.95.58 0 1.11.06 1.59.18s.84.27 1.09.45.42.39.51.62.15.57.15 1z"/><path d="m141.36 254.29 2.64-.23c.11.29.34.51.68.66s.82.23 1.44.23c.68 0 1.19-.07 1.53-.21.23-.1.35-.23.35-.4 0-.11-.06-.21-.19-.28s-.42-.14-.88-.2c-2.12-.26-3.46-.51-4.03-.72-.79-.3-1.18-.72-1.18-1.26 0-.49.34-.9 1.02-1.23s1.73-.5 3.16-.5c1.36 0 2.37.12 3.03.38.66.25 1.12.62 1.37 1.11l-2.48.26c-.11-.22-.31-.39-.6-.5-.3-.12-.72-.17-1.27-.17-.69 0-1.19.05-1.49.16-.2.08-.3.18-.3.3 0 .11.09.2.26.27.24.1 1.05.24 2.46.42 1.4.18 2.38.4 2.93.66s.82.63.82 1.11c0 .51-.38.96-1.14 1.33s-1.89.56-3.38.56c-1.35 0-2.42-.16-3.21-.47-.78-.33-1.29-.75-1.54-1.28z"/><path d="m160.99 255.89-4-5.62h2.76l1.87 2.87.54.96c.14-.24.23-.4.27-.48.09-.16.18-.32.28-.48l1.89-2.87h2.7l-3.95 5.62z"/><path d="m170.87 251.99-2.38-.24c.27-.54.73-.95 1.38-1.21.66-.26 1.63-.39 2.92-.39 1.17 0 2.04.08 2.62.24.57.16.98.36 1.21.6s.35.69.35 1.33l-.03 1.74c0 .49.04.86.13 1.09s.24.49.47.75h-2.6c-.07-.1-.15-.25-.25-.44-.04-.09-.07-.15-.09-.17-.45.25-.93.43-1.44.55s-1.06.19-1.64.19c-1.02 0-1.83-.16-2.42-.47s-.88-.71-.88-1.19c0-.32.13-.6.4-.85s.64-.44 1.13-.57c.48-.13 1.18-.25 2.09-.35 1.23-.13 2.08-.25 2.55-.36v-.15c0-.29-.12-.49-.37-.61s-.72-.18-1.41-.18c-.47 0-.83.05-1.09.16-.27.08-.48.26-.65.53zm3.52 1.2c-.34.06-.87.14-1.6.23s-1.21.17-1.43.26c-.34.14-.51.31-.51.52s.14.39.41.54.62.23 1.05.23c.47 0 .93-.09 1.36-.26.32-.13.53-.3.63-.49.07-.13.1-.37.1-.72v-.31z"/><path d="m188.59 255.89h-2.63v-2.87c0-.61-.06-1-.17-1.18s-.29-.32-.55-.42-.56-.15-.91-.15c-.46 0-.86.07-1.23.21-.36.14-.61.33-.74.56s-.2.66-.2 1.29v2.54h-2.63v-5.62h2.44v.83c.87-.63 1.96-.95 3.27-.95.58 0 1.11.06 1.59.18s.84.27 1.09.45.42.39.51.62c.1.23.14.57.14 1v3.51z"/><path d="m193.22 251.99-2.38-.24c.27-.54.73-.95 1.38-1.21.66-.26 1.63-.39 2.92-.39 1.17 0 2.04.08 2.62.24.57.16.98.36 1.21.6s.35.69.35 1.33l-.03 1.74c0 .49.04.86.12 1.09s.24.49.47.75h-2.6c-.07-.1-.15-.25-.25-.44-.04-.09-.08-.15-.09-.17-.45.25-.93.43-1.44.55s-1.06.19-1.64.19c-1.02 0-1.83-.16-2.42-.47s-.88-.71-.88-1.19c0-.32.13-.6.4-.85s.64-.44 1.13-.57c.48-.13 1.18-.25 2.09-.35 1.23-.13 2.08-.25 2.55-.36v-.15c0-.29-.12-.49-.38-.61-.25-.12-.72-.18-1.41-.18-.47 0-.83.05-1.09.16-.26.08-.47.26-.63.53zm3.52 1.2c-.34.06-.87.14-1.6.23s-1.21.17-1.43.26c-.34.14-.51.31-.51.52s.14.39.41.54.62.23 1.05.23c.47 0 .93-.09 1.36-.26.32-.13.53-.3.63-.49.07-.13.1-.37.1-.72v-.31z"/><path d="m200.76 250.27h1.46v-.42c0-.47.09-.83.27-1.06s.5-.42.98-.57 1.08-.22 1.81-.22c.75 0 1.48.06 2.2.19l-.36 1.04c-.42-.06-.82-.08-1.21-.08-.38 0-.65.05-.82.15-.16.1-.25.29-.25.58v.4h1.96v1.17h-1.96v4.45h-2.63v-4.45h-1.46v-1.18z"/><path d="m219.77 255.89h-2.63v-5.6c-.96.51-2.09.88-3.39 1.13v-1.35c.69-.13 1.43-.37 2.23-.72s1.36-.77 1.66-1.24h2.13z"/><path d="m223.6 253.83 2.54-.17c.08.37.3.65.66.84.35.19.79.29 1.29.29.54 0 1-.12 1.37-.35s.56-.55.56-.94c0-.37-.18-.67-.53-.89-.36-.22-.79-.33-1.3-.33-.34 0-.74.04-1.21.11l.29-1.21c.71.01 1.25-.08 1.63-.26.37-.19.56-.43.56-.74 0-.26-.14-.47-.41-.62s-.64-.23-1.09-.23-.83.09-1.15.26c-.32.18-.51.43-.58.77l-2.42-.23c.17-.47.42-.84.76-1.12s.81-.5 1.42-.66 1.29-.24 2.04-.24c1.29 0 2.33.23 3.1.7.64.38.96.81.96 1.29 0 .68-.66 1.22-1.97 1.63.79.1 1.41.31 1.88.64s.71.73.71 1.2c0 .68-.44 1.26-1.32 1.74s-1.97.72-3.28.72c-1.24 0-2.27-.2-3.09-.61-.81-.41-1.29-.94-1.42-1.59z"/><path d="m241.44 255.89v-.84c-.36.3-.84.54-1.43.71s-1.21.26-1.87.26c-.67 0-1.27-.08-1.79-.25-.53-.17-.91-.4-1.15-.7s-.36-.71-.36-1.24v-3.55h2.63v2.58c0 .79.05 1.27.15 1.45s.27.32.53.42.58.16.97.16c.45 0 .85-.07 1.21-.21s.6-.31.73-.52.2-.71.2-1.51v-2.37h2.63v5.62h-2.45z"/><path d="m245.95 253.83 2.54-.17c.08.37.3.65.66.84.35.19.79.29 1.29.29.54 0 1-.12 1.37-.35s.56-.55.56-.94c0-.37-.18-.67-.53-.89s-.79-.33-1.3-.33c-.34 0-.74.04-1.21.11l.29-1.21c.71.01 1.25-.08 1.63-.26.37-.19.56-.43.56-.74 0-.26-.14-.47-.41-.62s-.64-.23-1.09-.23-.83.09-1.15.26c-.32.18-.51.43-.58.77l-2.42-.23c.17-.47.42-.84.76-1.12s.81-.5 1.42-.66 1.29-.24 2.04-.24c1.29 0 2.33.23 3.1.7.64.38.96.81.96 1.29 0 .68-.66 1.22-1.97 1.63.79.1 1.41.31 1.88.64s.71.73.71 1.2c0 .68-.44 1.26-1.32 1.74s-1.97.72-3.28.72c-1.24 0-2.27-.2-3.08-.61-.83-.41-1.3-.94-1.43-1.59z"/><path d="m261.13 248.1c1.33 0 2.37.27 3.11.8.89.63 1.34 1.69 1.34 3.16s-.45 2.52-1.35 3.16c-.74.53-1.78.79-3.1.79-1.33 0-2.41-.29-3.23-.87s-1.23-1.61-1.23-3.1c0-1.46.45-2.51 1.35-3.15.75-.52 1.78-.79 3.11-.79zm0 1.24c-.32 0-.6.06-.85.17s-.44.32-.58.62c-.18.38-.27 1.03-.27 1.94s.08 1.54.24 1.88.37.57.61.68c.25.11.53.17.85.17s.6-.06.85-.17.44-.32.58-.62c.18-.38.27-1.03.27-1.94s-.08-1.53-.24-1.88c-.16-.34-.37-.57-.61-.68-.25-.12-.53-.17-.85-.17z"/></g><path d="m-.27 123h283.73v96.9h-283.73z" fill="#394871"/><g enable-background="new" fill="#d7bbb5"><path d="m215.01 142.75h-2.87v-8.39c-1.05.76-2.28 1.32-3.7 1.69v-2.02c.75-.19 1.56-.55 2.44-1.08s1.48-1.15 1.8-1.86h2.33z"/><path d="m225.47 142.75h-2.87v-8.39c-1.05.76-2.28 1.32-3.7 1.69v-2.02c.75-.19 1.56-.55 2.44-1.08s1.48-1.15 1.8-1.86h2.32v11.66z"/><path d="m228.84 142.95 3.7-12.01h2.15l-3.74 12.01z"/></g><g enable-background="new" fill="#d7bbb5"><path d="m215.01 162.22h-2.87v-8.39c-1.05.76-2.28 1.32-3.7 1.69v-2.02c.75-.19 1.56-.55 2.44-1.08s1.48-1.15 1.8-1.86h2.33z"/><path d="m228.97 160.15v2.07h-10.04c.11-.78.44-1.52.98-2.22s1.62-1.63 3.22-2.79c1.29-.93 2.08-1.57 2.38-1.9.39-.46.59-.91.59-1.36 0-.5-.17-.88-.52-1.15s-.82-.4-1.42-.4-1.07.14-1.43.42c-.35.28-.56.74-.61 1.39l-2.86-.22c.17-1.22.7-2.1 1.6-2.64.9-.53 2.02-.8 3.36-.8 1.47 0 2.63.31 3.48.93.84.62 1.26 1.39 1.26 2.31 0 .52-.12 1.02-.36 1.49s-.62.97-1.15 1.49c-.35.34-.97.84-1.88 1.48-.9.64-1.48 1.07-1.72 1.28s-.44.42-.59.62z"/><path d="m229.99 162.42 3.7-12.01h2.15l-3.74 12.01z"/></g><g enable-background="new" fill="#d7bbb5"><path d="m223.16 179.62v2.07h-10.04c.11-.78.43-1.52.98-2.22.54-.7 1.62-1.63 3.22-2.79 1.29-.93 2.08-1.57 2.38-1.9.39-.46.59-.91.59-1.36 0-.5-.17-.88-.51-1.15s-.82-.4-1.42-.4-1.07.14-1.43.42c-.35.28-.56.74-.61 1.39l-2.85-.22c.17-1.22.7-2.1 1.6-2.64.9-.53 2.02-.8 3.37-.8 1.47 0 2.63.31 3.48.93.84.62 1.26 1.39 1.26 2.31 0 .52-.12 1.02-.36 1.49s-.62.97-1.15 1.49c-.35.34-.97.84-1.88 1.48s-1.48 1.07-1.72 1.28-.44.42-.59.62z"/><path d="m232.42 181.69h-2.87v-8.39c-1.05.76-2.28 1.32-3.7 1.69v-2.02c.75-.19 1.56-.55 2.44-1.08s1.48-1.15 1.8-1.86h2.33z"/></g><g enable-background="new" fill="#d7bbb5"><path d="m265.19 138.88h-1.89v-5.54c-.69.5-1.51.87-2.45 1.12v-1.33c.49-.13 1.03-.36 1.61-.71s.98-.76 1.19-1.23h1.54z"/><path d="m266.74 148.24v1.37h-6.64c.07-.52.29-1.01.65-1.47s1.07-1.08 2.13-1.84c.85-.62 1.38-1.04 1.57-1.26.26-.3.39-.6.39-.9 0-.33-.11-.58-.34-.76s-.54-.26-.94-.26c-.39 0-.71.09-.94.28s-.37.49-.4.92l-1.89-.15c.11-.81.46-1.39 1.06-1.74s1.33-.53 2.22-.53c.97 0 1.74.2 2.3.61s.84.92.84 1.52c0 .35-.08.67-.24.99s-.41.64-.76.98c-.23.23-.64.55-1.24.98s-.98.71-1.13.85c-.16.14-.29.28-.39.41z"/><path d="m265.08 160.33v-.83c-.26.3-.6.53-1.03.7-.42.17-.87.26-1.34.26-.48 0-.91-.08-1.29-.25s-.66-.39-.83-.69-.26-.71-.26-1.23v-3.52h1.89v2.55c0 .78.03 1.26.1 1.44s.2.32.38.42.42.15.7.15c.32 0 .61-.07.87-.21s.43-.31.53-.51c.09-.2.14-.7.14-1.5v-2.35h1.89v5.56h-1.75z"/><path d="m260.28 169.01 1.83-.17c.06.36.22.64.47.83s.57.29.93.29c.39 0 .72-.12.99-.35s.4-.54.4-.93c0-.37-.13-.66-.38-.88-.26-.22-.57-.33-.94-.33-.24 0-.53.04-.87.11l.21-1.2c.51.01.9-.08 1.17-.26s.4-.43.4-.73c0-.26-.1-.46-.3-.62-.2-.15-.46-.23-.79-.23-.32 0-.6.09-.83.26s-.37.43-.42.76l-1.75-.23c.12-.46.3-.83.55-1.11s.59-.5 1.02-.65c.44-.16.93-.24 1.47-.24.93 0 1.67.23 2.24.69.46.38.69.8.69 1.28 0 .67-.47 1.21-1.42 1.61.57.09 1.02.31 1.36.63.34.33.51.72.51 1.19 0 .67-.32 1.25-.95 1.72s-1.42.71-2.37.71c-.89 0-1.63-.2-2.22-.6s-.9-.9-1-1.55z"/><path d="m263.55 174.06c.96 0 1.7.26 2.24.8.64.63.96 1.67.96 3.13 0 1.45-.32 2.5-.97 3.13-.53.52-1.28.79-2.24.79s-1.74-.29-2.33-.86-.88-1.6-.88-3.07c0-1.44.32-2.48.97-3.12.55-.53 1.29-.8 2.25-.8zm0 1.22c-.23 0-.43.06-.61.17s-.32.32-.42.61c-.13.38-.2 1.02-.2 1.92s.06 1.52.17 1.86c.12.34.26.56.44.67s.38.17.61.17.43-.06.61-.17.32-.32.42-.61c.13-.38.2-1.02.2-1.92s-.06-1.52-.17-1.86c-.12-.34-.26-.56-.44-.68s-.38-.16-.61-.16z"/></g><g enable-background="new" fill="#796986"><path d="m242.94 136.38 1.94-.15c.12.51.35.88.71 1.12s.84.36 1.45.36c.64 0 1.13-.11 1.45-.32.33-.21.49-.46.49-.74 0-.18-.07-.34-.21-.46-.14-.13-.38-.24-.72-.33-.23-.06-.77-.17-1.6-.33-1.07-.21-1.82-.46-2.25-.76-.61-.42-.91-.94-.91-1.54 0-.39.14-.76.43-1.1s.7-.6 1.23-.78c.54-.18 1.18-.27 1.94-.27 1.24 0 2.17.21 2.8.63s.96.99.99 1.69l-2 .07c-.08-.39-.27-.68-.55-.85s-.7-.26-1.26-.26c-.58 0-1.03.09-1.36.28-.21.12-.32.28-.32.48 0 .18.1.34.3.47.25.16.86.33 1.83.51s1.69.36 2.15.55.83.45 1.09.78.39.74.39 1.22c0 .44-.16.85-.47 1.24s-.76.67-1.33.86-1.29.28-2.15.28c-1.25 0-2.21-.22-2.88-.67-.65-.47-1.05-1.12-1.18-1.98z"/><path d="m246.05 149.6v-6.38h-2.93v-1.3h7.85v1.3h-2.92v6.38z"/><path d="m251.97 160.33h-2.17l-.86-1.74h-3.95l-.81 1.74h-2.12l3.85-7.68h2.11zm-3.67-3.04-1.36-2.85-1.33 2.85z"/><path d="m243.07 171.05v-7.68h4.2c1.06 0 1.82.07 2.3.21s.86.38 1.15.74c.29.35.43.76.43 1.21 0 .58-.22 1.05-.65 1.43-.44.38-1.09.61-1.95.71.43.2.79.41 1.07.64s.66.65 1.13 1.25l1.21 1.5h-2.38l-1.44-1.67c-.51-.6-.86-.97-1.05-1.13s-.39-.26-.6-.32-.54-.09-1-.09h-.4v3.2zm1.99-4.43h1.48c.96 0 1.55-.03 1.79-.09s.42-.17.56-.33.2-.35.2-.58c0-.26-.09-.47-.27-.62-.18-.16-.43-.26-.75-.3-.16-.02-.65-.03-1.46-.03h-1.56v1.95z"/><path d="m246.05 181.77v-6.38h-2.93v-1.3h7.85v1.3h-2.92v6.38z"/></g><g enable-background="new" fill="#d7bbb5"><path d="m25.16 272.43v-7.1h-2.71v-1.44h7.25v1.44h-2.7v7.1z"/><path d="m21.67 280.15c0-.87.14-1.6.42-2.19.21-.44.49-.83.85-1.17.36-.35.75-.6 1.18-.77.57-.22 1.22-.34 1.97-.34 1.34 0 2.42.39 3.22 1.17.81.78 1.21 1.87 1.21 3.26 0 1.38-.4 2.46-1.2 3.24s-1.87 1.17-3.21 1.17c-1.36 0-2.43-.39-3.23-1.16-.81-.79-1.21-1.85-1.21-3.21zm1.9-.06c0 .97.24 1.7.72 2.2s1.08.75 1.82.75 1.34-.25 1.81-.74c.47-.5.71-1.24.71-2.23 0-.98-.23-1.71-.69-2.19s-1.07-.72-1.83-.72-1.37.24-1.83.73c-.48.48-.71 1.21-.71 2.2z"/><path d="m22.42 296.3v-8.54h1.84v3.79l3.72-3.79h2.48l-3.43 3.33 3.62 5.22h-2.38l-2.51-4.01-1.49 1.43v2.58h-1.85z"/><path d="m22.42 308.24v-8.54h1.84v3.79l3.72-3.79h2.48l-3.43 3.33 3.62 5.22h-2.38l-2.51-4.01-1.49 1.43v2.58h-1.85z"/><path d="m22.75 320.17v-8.54h6.76v1.44h-4.92v1.89h4.58v1.44h-4.58v2.33h5.09v1.44z"/><path d="m26.03 323.53c.88 0 1.57.29 2.07.89.59.7.89 1.86.89 3.48s-.3 2.78-.9 3.49c-.49.58-1.18.87-2.06.87-.89 0-1.6-.32-2.15-.96-.54-.64-.81-1.78-.81-3.42 0-1.61.3-2.77.9-3.47.48-.59 1.17-.88 2.06-.88zm0 1.35c-.21 0-.4.06-.57.19s-.29.35-.39.68c-.12.42-.18 1.14-.18 2.14s.05 1.69.16 2.07.24.62.41.75c.16.12.35.19.56.19s.4-.06.57-.19.29-.35.39-.68c.12-.42.18-1.13.18-2.13s-.05-1.69-.16-2.07-.24-.63-.41-.75c-.17-.13-.35-.2-.56-.2z"/><path d="m26.03 335.46c.88 0 1.57.29 2.07.89.59.7.89 1.86.89 3.48s-.3 2.78-.9 3.49c-.49.58-1.18.87-2.06.87-.89 0-1.6-.32-2.15-.96-.54-.64-.81-1.78-.81-3.42 0-1.61.3-2.77.9-3.47.48-.59 1.17-.88 2.06-.88zm0 1.36c-.21 0-.4.06-.57.19s-.29.35-.39.68c-.12.42-.18 1.14-.18 2.14s.05 1.69.16 2.07.24.62.41.75c.16.12.35.19.56.19s.4-.06.57-.19.29-.35.39-.68c.12-.42.18-1.13.18-2.13s-.05-1.69-.16-2.07-.24-.63-.41-.75c-.17-.14-.35-.2-.56-.2z"/></g><path d="m45.87 250.27h1.79v95.02h-1.79z" fill="#7e6a75"/><path d="m183.56 131.59h2.12v51.2h-2.12z" fill="#7e6a75"/><path d="m15.25 352.68h252.67" fill="none" stroke="#d7bbb5" stroke-miterlimit="10" stroke-width="1.6169"/><g enable-background="new" fill="#796986"><path d="m15.98 360.31h1.13v-.34c0-.38.07-.66.21-.85s.39-.34.76-.46.83-.18 1.4-.18c.58 0 1.15.05 1.7.15l-.27.83c-.32-.04-.63-.07-.93-.07-.29 0-.51.04-.63.12-.13.08-.19.23-.19.46v.32h1.52v.94h-1.52v3.56h-2.03v-3.56h-1.13v-.92z"/><path d="m26.25 363.38 2.02.2c-.26.43-.67.77-1.23.99s-1.26.34-2.11.34c-1.34 0-2.32-.26-2.96-.77-.51-.41-.76-.93-.76-1.55 0-.75.33-1.33 1-1.75s1.51-.63 2.52-.63c1.14 0 2.04.22 2.7.66s.98 1.12.95 2.03h-5.08c.01.35.18.63.49.82s.7.29 1.17.29c.32 0 .59-.05.8-.15s.38-.26.49-.48zm.12-1.21c-.01-.34-.17-.61-.46-.79s-.64-.27-1.06-.27c-.44 0-.81.09-1.1.28s-.43.45-.43.77h3.05z"/><path d="m34.49 363.38 2.02.2c-.26.43-.67.77-1.23.99s-1.26.34-2.11.34c-1.34 0-2.32-.26-2.96-.77-.51-.41-.76-.93-.76-1.55 0-.75.33-1.33 1-1.75s1.51-.63 2.52-.63c1.14 0 2.04.22 2.7.66s.98 1.12.95 2.03h-5.09c.01.35.18.63.49.82s.7.29 1.17.29c.32 0 .59-.05.8-.15s.39-.26.5-.48zm.12-1.21c-.01-.34-.17-.61-.46-.79s-.64-.27-1.06-.27c-.44 0-.81.09-1.1.28s-.43.45-.43.77h3.05z"/><path d="m37.56 363.53 2.04-.18c.09.23.26.41.53.53s.64.18 1.11.18c.53 0 .92-.06 1.19-.17.18-.08.27-.18.27-.32 0-.09-.05-.17-.14-.22-.1-.06-.33-.11-.68-.16-1.64-.21-2.68-.41-3.12-.58-.61-.24-.91-.58-.91-1.01 0-.39.26-.72.79-.98.53-.27 1.34-.4 2.44-.4 1.05 0 1.83.1 2.34.3s.86.5 1.06.89l-1.92.21c-.08-.18-.24-.31-.47-.4s-.56-.14-.98-.14c-.54 0-.92.04-1.15.13-.15.06-.23.14-.23.24 0 .08.07.16.2.22.18.08.82.19 1.9.33s1.84.32 2.27.53c.42.21.64.51.64.88 0 .41-.29.77-.88 1.06-.59.3-1.46.44-2.61.44-1.05 0-1.87-.12-2.48-.37-.62-.25-1.02-.59-1.21-1.01z"/><path d="m50.04 360.31v.95h-1.39v1.81c0 .37.01.58.04.64s.09.11.18.15.21.06.34.06c.19 0 .46-.04.82-.11l.17.92c-.47.12-1.01.18-1.61.18-.37 0-.7-.04-.99-.11s-.51-.17-.65-.28-.23-.27-.29-.46c-.04-.14-.06-.42-.06-.84v-1.96h-.93v-.95h.93v-.89l2.04-.7v1.59z"/><path d="m54.97 360.31v.95h-1.39v1.81c0 .37.01.58.04.64s.09.11.18.15.21.06.34.06c.19 0 .46-.04.82-.11l.17.92c-.47.12-1.01.18-1.61.18-.37 0-.7-.04-.99-.11s-.51-.17-.65-.28-.23-.27-.29-.46c-.04-.14-.06-.42-.06-.84v-1.96h-.93v-.95h.93v-.89l2.04-.7v1.59z"/><path d="m60.83 363.38 2.02.2c-.26.43-.67.77-1.23.99s-1.26.34-2.11.34c-1.34 0-2.32-.26-2.96-.77-.51-.41-.76-.93-.76-1.55 0-.75.33-1.33 1-1.75s1.51-.63 2.52-.63c1.14 0 2.04.22 2.7.66s.98 1.12.95 2.03h-5.09c.01.35.18.63.49.82s.7.29 1.17.29c.32 0 .59-.05.8-.15s.39-.26.5-.48zm.11-1.21c-.01-.34-.17-.61-.46-.79s-.64-.27-1.06-.27c-.44 0-.81.09-1.1.28s-.43.45-.43.77h3.05z"/><path d="m71.6 364.81h-2.03v-2.29c0-.49-.04-.8-.13-.94s-.23-.25-.42-.33-.43-.12-.71-.12c-.35 0-.67.06-.95.17s-.47.26-.58.45c-.1.19-.16.53-.16 1.03v2.04h-2.02v-4.5h1.89v.66c.67-.51 1.51-.76 2.53-.76.45 0 .86.05 1.23.14s.65.21.84.36.32.31.4.5c.07.19.11.45.11.8z"/><path d="m77.18 360.31v.95h-1.38v1.81c0 .37.01.58.04.64s.09.11.18.15.21.06.34.06c.19 0 .46-.04.82-.11l.17.92c-.47.12-1.01.18-1.61.18-.37 0-.7-.04-.99-.11s-.51-.17-.65-.28-.23-.27-.29-.46c-.04-.14-.06-.42-.06-.84v-1.96h-.93v-.95h.93v-.89l2.04-.7v1.59z"/><path d="m78.36 363.15v-1.19h3.99v1.19z"/><path d="m83.44 364.81v-6.21h2.03v2.24c.63-.42 1.37-.63 2.23-.63.94 0 1.71.2 2.32.59s.92.97.92 1.71c0 .77-.31 1.36-.94 1.77-.62.42-1.38.62-2.27.62-.44 0-.87-.06-1.3-.19s-.79-.32-1.1-.57v.66h-1.89zm2.02-2.35c0 .47.13.81.38 1.03.35.32.82.47 1.4.47.45 0 .83-.11 1.15-.34.32-.22.47-.58.47-1.06 0-.51-.16-.88-.48-1.11s-.73-.34-1.22-.34-.89.11-1.21.33c-.33.23-.49.57-.49 1.02z"/><path d="m94.09 361.68-1.84-.2c.21-.43.56-.76 1.07-.97s1.26-.31 2.26-.31c.91 0 1.58.06 2.02.19.44.12.76.29.94.48s.27.55.27 1.06l-.02 1.39c0 .39.03.69.1.87s.19.39.37.6h-2.01c-.05-.08-.12-.2-.2-.35-.03-.07-.06-.12-.07-.14-.35.2-.72.35-1.11.44-.4.1-.82.15-1.27.15-.79 0-1.41-.13-1.87-.38s-.68-.57-.68-.95c0-.25.1-.48.31-.68s.5-.35.87-.46.91-.2 1.62-.28c.95-.1 1.61-.2 1.97-.29v-.12c0-.23-.1-.39-.29-.49s-.56-.15-1.09-.15c-.36 0-.64.04-.85.12-.21.12-.37.26-.5.47zm2.72.97c-.26.05-.67.11-1.24.18s-.93.14-1.11.21c-.27.11-.4.25-.4.42s.11.31.32.43.48.18.81.18c.37 0 .72-.07 1.05-.21.25-.11.41-.24.48-.39.05-.1.08-.29.08-.58v-.24z"/><path d="m102.75 364.81h-2.03v-4.5h1.89v.64c.32-.3.61-.5.87-.6s.55-.14.88-.14c.46 0 .91.07 1.34.22l-.63 1.04c-.34-.13-.66-.2-.95-.2-.28 0-.53.05-.72.14s-.35.26-.47.5-.17.74-.17 1.51v1.39z"/><path d="m106.34 363.15v-1.19h3.99v1.19z"/><path d="m115.95 363.38 2.02.2c-.26.43-.67.77-1.23.99s-1.26.34-2.11.34c-1.34 0-2.32-.26-2.96-.77-.51-.41-.76-.93-.76-1.55 0-.75.33-1.33 1-1.75s1.51-.63 2.52-.63c1.14 0 2.04.22 2.7.66s.98 1.12.95 2.03h-5.09c.01.35.18.63.49.82s.7.29 1.17.29c.32 0 .59-.05.8-.15s.39-.26.5-.48zm.12-1.21c-.01-.34-.17-.61-.46-.79s-.64-.27-1.06-.27c-.44 0-.81.09-1.1.28s-.43.45-.43.77h3.05z"/><path d="m124.19 363.38 2.02.2c-.26.43-.67.77-1.23.99s-1.26.34-2.11.34c-1.34 0-2.32-.26-2.96-.77-.51-.41-.76-.93-.76-1.55 0-.75.33-1.33 1-1.75s1.51-.63 2.52-.63c1.14 0 2.04.22 2.7.66s.98 1.12.95 2.03h-5.09c.01.35.18.63.49.82s.7.29 1.17.29c.32 0 .59-.05.8-.15s.39-.26.5-.48zm.11-1.21c-.01-.34-.17-.61-.46-.79s-.64-.27-1.06-.27c-.44 0-.81.09-1.1.28s-.43.45-.43.77h3.05z"/><path d="m131.5 360.31v.95h-1.39v1.81c0 .37.01.58.04.64s.09.11.18.15.21.06.34.06c.19 0 .46-.04.82-.11l.17.92c-.47.12-1.01.18-1.61.18-.37 0-.7-.04-.99-.11s-.51-.17-.65-.28-.23-.27-.29-.46c-.04-.14-.06-.42-.06-.84v-1.96h-.93v-.95h.93v-.89l2.04-.7v1.59z"/><path d="m132.19 363.53 2.04-.18c.09.23.26.41.53.53s.64.18 1.11.18c.53 0 .92-.06 1.19-.17.18-.08.27-.18.27-.32 0-.09-.05-.17-.14-.22-.1-.06-.33-.11-.68-.16-1.64-.21-2.68-.41-3.12-.58-.61-.24-.91-.58-.91-1.01 0-.39.26-.72.79-.98.53-.27 1.34-.4 2.44-.4 1.05 0 1.83.1 2.34.3s.86.5 1.06.89l-1.92.21c-.08-.18-.24-.31-.47-.4s-.56-.14-.98-.14c-.54 0-.92.04-1.15.13-.15.06-.23.14-.23.24 0 .08.07.16.2.22.18.08.82.19 1.9.33s1.84.32 2.27.53c.42.21.64.51.64.88 0 .41-.29.77-.88 1.06-.59.3-1.46.44-2.61.44-1.05 0-1.87-.12-2.48-.37-.62-.25-1.02-.59-1.21-1.01z"/><path d="m144.67 360.31v.95h-1.39v1.81c0 .37.01.58.04.64s.09.11.18.15.21.06.34.06c.19 0 .46-.04.82-.11l.17.92c-.47.12-1.01.18-1.61.18-.37 0-.7-.04-.99-.11s-.51-.17-.65-.28-.23-.27-.29-.46c-.04-.14-.06-.42-.06-.84v-1.96h-.93v-.95h.93v-.89l2.04-.7v1.59z"/><path d="m147.6 361.68-1.84-.2c.21-.43.56-.76 1.07-.97s1.26-.31 2.26-.31c.91 0 1.58.06 2.02.19.44.12.76.29.94.48s.27.55.27 1.06l-.02 1.39c0 .39.03.69.1.87s.19.39.37.6h-2.01c-.05-.08-.12-.2-.2-.35-.03-.07-.06-.12-.07-.14-.35.2-.72.35-1.11.44-.4.1-.82.15-1.27.15-.79 0-1.41-.13-1.87-.38s-.68-.57-.68-.95c0-.25.1-.48.31-.68s.5-.35.87-.46.91-.2 1.62-.28c.95-.1 1.61-.2 1.97-.29v-.12c0-.23-.1-.39-.29-.49s-.56-.15-1.09-.15c-.36 0-.64.04-.85.12-.21.12-.38.26-.5.47zm2.72.97c-.26.05-.67.11-1.24.18s-.93.14-1.11.21c-.27.11-.4.25-.4.42s.11.31.32.43.48.18.81.18c.37 0 .72-.07 1.05-.21.25-.11.41-.24.48-.39.05-.1.08-.29.08-.58v-.24z"/><path d="m161.3 364.81h-2.03v-2.29c0-.49-.04-.8-.13-.94s-.23-.25-.42-.33-.43-.12-.71-.12c-.35 0-.67.06-.95.17s-.47.26-.57.45-.16.53-.16 1.03v2.04h-2.03v-4.5h1.89v.66c.67-.51 1.51-.76 2.53-.76.45 0 .86.05 1.23.14s.65.21.84.36.32.31.4.5.11.45.11.8z"/><path d="m170.4 364.81h-1.89v-.66c-.31.26-.68.45-1.11.57s-.86.19-1.29.19c-.88 0-1.64-.21-2.27-.62-.63-.42-.94-1-.94-1.74 0-.76.31-1.34.92-1.74s1.39-.59 2.32-.59c.86 0 1.6.21 2.23.63v-2.24h2.03zm-5.42-2.35c0 .48.11.83.34 1.04.33.31.79.47 1.37.47.47 0 .87-.12 1.19-.35.33-.23.49-.58.49-1.04 0-.52-.16-.89-.48-1.12s-.72-.34-1.22-.34c-.48 0-.89.11-1.21.34-.32.22-.48.56-.48 1z"/><path d="m174.4 360.31v4.36c0 .57-.06.98-.19 1.21-.13.24-.37.42-.74.55-.36.13-.83.2-1.39.2-.2 0-.42-.01-.65-.03s-.49-.05-.76-.1l.35-1.02c.1.01.19.02.27.03s.16.01.23.01c.21 0 .38-.03.51-.08s.22-.12.26-.19.07-.29.07-.66v-4.29h2.04zm-2.04-.61v-1.1h2.03v1.1z"/><path d="m180.97 363.38 2.02.2c-.26.43-.67.77-1.23.99s-1.26.34-2.11.34c-1.34 0-2.32-.26-2.96-.77-.51-.41-.76-.93-.76-1.55 0-.75.33-1.33 1-1.75s1.51-.63 2.52-.63c1.14 0 2.04.22 2.71.66.66.44.98 1.12.95 2.03h-5.09c.02.35.18.63.49.82s.7.29 1.17.29c.32 0 .59-.05.8-.15s.38-.26.49-.48zm.12-1.21c-.01-.34-.17-.61-.46-.79s-.64-.27-1.06-.27c-.44 0-.81.09-1.1.28s-.43.45-.43.77h3.05z"/><path d="m184.04 363.53 2.04-.18c.09.23.26.41.53.53.26.12.64.18 1.11.18.53 0 .92-.06 1.19-.17.18-.08.27-.18.27-.32 0-.09-.05-.17-.14-.22-.1-.06-.33-.11-.68-.16-1.64-.21-2.68-.41-3.12-.58-.61-.24-.91-.58-.91-1.01 0-.39.26-.72.79-.98s1.34-.4 2.45-.4c1.05 0 1.83.1 2.34.3s.86.5 1.06.89l-1.92.21c-.08-.18-.24-.31-.47-.4s-.56-.14-.98-.14c-.54 0-.92.04-1.15.13-.15.06-.23.14-.23.24 0 .08.07.16.2.22.18.08.82.19 1.9.33s1.84.32 2.27.53c.42.21.64.51.64.88 0 .41-.29.77-.88 1.06-.59.3-1.46.44-2.61.44-1.05 0-1.88-.12-2.48-.37-.63-.25-1.03-.59-1.22-1.01z"/><path d="m192.76 363.15v-1.19h3.99v1.19z"/><path d="m197.04 360.31h1.13v-.34c0-.38.07-.66.21-.85s.39-.34.76-.46.83-.18 1.4-.18c.58 0 1.14.05 1.7.15l-.28.83c-.32-.04-.63-.07-.93-.07-.29 0-.51.04-.63.12-.13.08-.19.23-.19.46v.32h1.52v.94h-1.52v3.56h-2.03v-3.56h-1.13v-.92z"/><path d="m204.8 364.81h-2.03v-4.5h1.89v.64c.32-.3.61-.5.87-.6s.55-.14.88-.14c.46 0 .91.07 1.34.22l-.63 1.04c-.34-.13-.66-.2-.96-.2-.28 0-.53.05-.72.14-.2.09-.35.26-.47.5s-.17.74-.17 1.51z"/><path d="m208.62 359.7v-1.1h2.03v1.1zm0 5.11v-4.5h2.03v4.5z"/><path d="m217.19 363.38 2.02.2c-.26.43-.67.77-1.23.99-.56.23-1.26.34-2.11.34-1.34 0-2.32-.26-2.96-.77-.51-.41-.76-.93-.76-1.55 0-.75.33-1.33 1-1.75s1.51-.63 2.52-.63c1.14 0 2.04.22 2.71.66.66.44.98 1.12.95 2.03h-5.09c.01.35.18.63.49.82.31.2.7.29 1.17.29.32 0 .59-.05.8-.15s.37-.26.49-.48zm.11-1.21c-.01-.34-.17-.61-.46-.79s-.64-.27-1.06-.27c-.44 0-.81.09-1.1.28s-.43.45-.43.77h3.05z"/><path d="m224.5 360.31v.95h-1.39v1.81c0 .37.01.58.04.64s.09.11.18.15.21.06.34.06c.19 0 .46-.04.82-.11l.17.92c-.47.12-1.01.18-1.61.18-.37 0-.7-.04-.99-.11s-.51-.17-.65-.28-.23-.27-.29-.46c-.04-.14-.06-.42-.06-.84v-1.96h-.93v-.95h.93v-.89l2.04-.7v1.59z"/><path d="m225.83 364.81v-6.21h2.03v3.29l2.38-1.58h2.5l-2.62 1.64 2.81 2.85h-2.19l-1.93-2.02-.95.58v1.44h-2.03z"/><path d="m236.09 364.81h-2.03v-4.5h1.89v.64c.32-.3.61-.5.87-.6s.55-.14.88-.14c.46 0 .91.07 1.34.22l-.63 1.04c-.34-.13-.66-.2-.96-.2-.28 0-.53.05-.72.14-.2.09-.35.26-.47.5s-.17.74-.17 1.51z"/><path d="m241.42 361.68-1.84-.2c.21-.43.56-.76 1.07-.97s1.26-.31 2.26-.31c.91 0 1.58.06 2.02.19.44.12.76.29.94.48s.27.55.27 1.06l-.02 1.39c0 .39.03.69.1.87s.19.39.37.6h-2.01c-.05-.08-.12-.2-.2-.35-.03-.07-.06-.12-.07-.14-.35.2-.72.35-1.11.44-.4.1-.82.15-1.27.15-.79 0-1.41-.13-1.87-.38s-.68-.57-.68-.95c0-.25.1-.48.31-.68s.5-.35.87-.46.91-.2 1.62-.28c.95-.1 1.61-.2 1.97-.29v-.12c0-.23-.1-.39-.29-.49s-.56-.15-1.09-.15c-.36 0-.64.04-.85.12-.21.12-.37.26-.5.47zm2.72.97c-.26.05-.67.11-1.24.18s-.93.14-1.11.21c-.27.11-.4.25-.4.42s.11.31.32.43.48.18.81.18c.37 0 .72-.07 1.05-.21.25-.11.41-.24.48-.39.05-.1.08-.29.08-.58v-.24z"/><path d="m249.66 361.68-1.84-.2c.21-.43.56-.76 1.07-.97s1.26-.31 2.26-.31c.91 0 1.58.06 2.02.19.44.12.76.29.94.48s.27.55.27 1.06l-.02 1.39c0 .39.03.69.1.87.07.19.19.39.37.6h-2.01c-.05-.08-.12-.2-.2-.35-.03-.07-.06-.12-.07-.14-.35.2-.72.35-1.11.44s-.82.15-1.27.15c-.79 0-1.41-.13-1.87-.38s-.68-.57-.68-.95c0-.25.1-.48.31-.68s.5-.35.87-.46.91-.2 1.62-.28c.95-.1 1.61-.2 1.97-.29v-.12c0-.23-.1-.39-.29-.49s-.56-.15-1.09-.15c-.36 0-.64.04-.85.12-.21.12-.37.26-.5.47zm2.72.97c-.26.05-.67.11-1.24.18-.56.07-.93.14-1.11.21-.27.11-.4.25-.4.42s.11.31.32.43.48.18.81.18c.37 0 .72-.07 1.05-.21.25-.11.41-.24.48-.39.05-.1.08-.29.08-.58v-.24z"/><path d="m256.23 360.31h1.87v.61c.67-.48 1.47-.71 2.39-.71.49 0 .92.06 1.28.18s.66.3.89.54c.34-.24.7-.42 1.09-.54s.81-.18 1.25-.18c.56 0 1.04.07 1.43.2s.68.33.88.59c.14.19.21.5.21.93v2.88h-2.03v-2.57c0-.45-.07-.73-.21-.86-.19-.17-.48-.25-.87-.25-.29 0-.55.05-.8.15s-.43.25-.54.45-.17.51-.17.93v2.16h-2.03v-2.46c0-.44-.04-.72-.11-.85s-.18-.22-.34-.28c-.15-.06-.36-.09-.62-.09-.31 0-.6.05-.85.15s-.43.24-.54.43-.16.5-.16.93v2.19h-2.03v-4.53z"/></g><g enable-background="new" fill="#d7bbb5"><path d="m16.18 376.71v-7.9h1.83v7.9z"/><path d="m25.72 376.71h-1.74v-2.92c0-.62-.04-1.02-.11-1.2s-.2-.32-.36-.42-.37-.15-.6-.15c-.3 0-.57.07-.81.22-.24.14-.4.33-.49.57s-.13.67-.13 1.31v2.59h-1.74v-5.72h1.62v.84c.57-.65 1.3-.97 2.17-.97.38 0 .73.06 1.05.18s.56.27.72.46.28.4.34.64.1.58.1 1.02v3.55z"/><path d="m27.42 376.71v-7.9h1.74v4.19l2.04-2.02h2.14l-2.25 2.09 2.41 3.63h-1.88l-1.65-2.57-.81.74v1.83h-1.74z"/><path d="m34.13 373.77c0-.5.14-.99.43-1.46s.69-.83 1.21-1.08 1.1-.37 1.75-.37c.99 0 1.81.28 2.44.84.64.56.95 1.27.95 2.13 0 .87-.32 1.58-.96 2.15s-1.45.85-2.42.85c-.6 0-1.18-.12-1.72-.36s-.96-.58-1.25-1.04-.43-1-.43-1.66zm1.78.08c0 .57.15 1 .46 1.3s.69.45 1.15.45c.45 0 .83-.15 1.14-.45s.46-.74.46-1.32c0-.56-.15-.99-.46-1.29s-.69-.45-1.14-.45-.84.15-1.15.45c-.3.31-.46.74-.46 1.31z"/><path d="m42.15 370.99h1.6v.78c.57-.61 1.26-.91 2.05-.91.42 0 .79.08 1.1.23s.56.38.76.68c.29-.31.6-.53.93-.68s.69-.23 1.07-.23c.48 0 .89.09 1.23.26.33.17.58.42.75.75.12.25.18.64.18 1.19v3.66h-1.74v-3.27c0-.57-.06-.93-.18-1.1-.16-.22-.41-.32-.74-.32-.24 0-.47.06-.69.19-.21.13-.37.32-.46.57-.1.25-.14.64-.14 1.18v2.75h-1.74v-3.14c0-.56-.03-.92-.09-1.08s-.16-.28-.29-.36-.31-.12-.53-.12c-.27 0-.51.06-.72.19s-.37.31-.46.54c-.09.24-.14.63-.14 1.18v2.78h-1.74v-5.72z"/><path d="m61.3 373.81v-1.33h3.95v3.15c-.38.32-.94.61-1.67.85-.73.25-1.47.37-2.21.37-.95 0-1.78-.17-2.48-.52-.71-.35-1.24-.84-1.59-1.49-.35-.64-.53-1.35-.53-2.1 0-.82.2-1.55.59-2.19s.98-1.13 1.74-1.47c.58-.26 1.31-.39 2.17-.39 1.13 0 2.01.21 2.64.62s1.04.98 1.22 1.71l-1.82.3c-.13-.39-.37-.69-.72-.92-.35-.22-.79-.34-1.32-.34-.8 0-1.44.22-1.91.66s-.71 1.1-.71 1.97c0 .94.24 1.64.72 2.11s1.11.7 1.88.7c.38 0 .77-.07 1.15-.2.39-.13.72-.29.99-.48v-1h-2.09z"/><path d="m68.59 376.71h-1.74v-5.72h1.62v.81c.28-.38.53-.64.75-.76s.47-.18.75-.18c.4 0 .78.1 1.15.29l-.54 1.32c-.29-.17-.57-.25-.82-.25-.24 0-.45.06-.62.17-.17.12-.3.33-.4.63-.1.31-.15.95-.15 1.92z"/><path d="m73.16 372.74-1.58-.25c.18-.55.48-.96.92-1.23.43-.27 1.08-.4 1.93-.4.78 0 1.35.08 1.73.24s.65.36.8.61.23.7.23 1.36l-.02 1.77c0 .5.03.87.08 1.11.06.24.16.49.31.77h-1.72c-.05-.1-.1-.25-.17-.45-.03-.09-.05-.15-.06-.18-.3.25-.61.44-.95.57s-.7.19-1.08.19c-.68 0-1.21-.16-1.6-.48s-.58-.72-.58-1.21c0-.32.09-.61.27-.86s.43-.45.75-.58.78-.25 1.38-.35c.81-.13 1.38-.26 1.69-.37v-.15c0-.29-.08-.5-.25-.62s-.48-.19-.93-.19c-.31 0-.55.05-.72.16-.18.08-.32.27-.43.54zm2.33 1.22c-.22.06-.58.14-1.06.23s-.8.18-.95.26c-.23.14-.34.32-.34.53s.09.4.27.55c.18.16.41.23.69.23.31 0 .61-.09.9-.27.21-.14.35-.3.42-.5.04-.13.07-.38.07-.74z"/><path d="m81.92 370.99v1.21h-1.19v2.31c0 .47.01.74.03.82s.07.14.15.19.18.08.29.08c.16 0 .39-.05.7-.15l.15 1.18c-.4.15-.86.23-1.37.23-.31 0-.6-.04-.85-.14-.25-.09-.44-.21-.55-.36s-.2-.34-.24-.59c-.04-.18-.06-.53-.06-1.07v-2.5h-.8v-1.21h.8v-1.14l1.75-.88v2.02z"/><path d="m83.13 370.21v-1.4h1.74v1.4zm0 6.5v-5.72h1.74v5.72z"/><path d="m86.04 375.08 1.75-.23c.07.29.22.52.45.67s.54.23.95.23c.45 0 .79-.07 1.02-.22.15-.1.23-.24.23-.4 0-.11-.04-.21-.12-.29-.09-.07-.28-.14-.58-.2-1.4-.27-2.29-.52-2.67-.74-.52-.31-.78-.74-.78-1.29 0-.5.22-.91.67-1.25s1.15-.51 2.09-.51c.9 0 1.57.13 2 .38.44.25.74.63.9 1.13l-1.64.26c-.07-.22-.2-.39-.4-.51s-.48-.18-.84-.18c-.46 0-.79.06-.98.17-.13.08-.2.18-.2.31 0 .11.06.2.17.27.16.1.7.24 1.62.43.93.18 1.57.41 1.94.67.36.27.54.65.54 1.13 0 .52-.25.98-.75 1.35s-1.25.57-2.23.57c-.9 0-1.6-.16-2.13-.47s-.85-.74-1.01-1.28z"/><path d="m97.02 374.61v-1.51h3.42v1.51z"/><path d="m104.89 376.71v-7.9h1.74v2.85c.54-.53 1.17-.8 1.91-.8.8 0 1.46.25 1.99.76.52.5.79 1.23.79 2.17 0 .98-.27 1.73-.8 2.26s-1.18.79-1.95.79c-.38 0-.75-.08-1.11-.25-.36-.16-.68-.4-.94-.72v.84zm1.73-2.98c0 .59.11 1.03.32 1.32.3.4.7.6 1.2.6.38 0 .71-.14.98-.43s.41-.74.41-1.35c0-.65-.14-1.13-.41-1.42s-.62-.43-1.05-.43c-.42 0-.76.14-1.04.42s-.41.71-.41 1.29z"/><path d="m116.51 374.89 1.73.25c-.22.55-.57.97-1.06 1.26-.48.29-1.08.43-1.8.43-1.14 0-1.99-.33-2.54-.98-.43-.52-.65-1.18-.65-1.97 0-.95.28-1.69.85-2.23s1.29-.81 2.16-.81c.98 0 1.75.28 2.31.84.57.56.84 1.42.81 2.58h-4.36c.01.45.15.8.42 1.05s.6.37 1 .37c.27 0 .5-.06.69-.19.21-.1.35-.31.44-.6zm.1-1.53c-.01-.44-.14-.77-.39-1s-.55-.34-.9-.34c-.38 0-.69.12-.94.36s-.37.57-.37.98z"/><path d="m121.56 376.71-2.65-5.72h1.83l1.24 2.92.36.98c.09-.25.15-.41.18-.49.06-.16.12-.32.19-.49l1.25-2.92h1.79l-2.61 5.72z"/><path d="m130.61 374.89 1.73.25c-.22.55-.57.97-1.06 1.26-.48.29-1.08.43-1.8.43-1.14 0-1.99-.33-2.54-.98-.43-.52-.65-1.18-.65-1.97 0-.95.28-1.69.85-2.23s1.29-.81 2.16-.81c.98 0 1.75.28 2.31.84.57.56.84 1.42.81 2.58h-4.36c.01.45.15.8.42 1.05s.6.37 1 .37c.27 0 .5-.06.69-.19.21-.1.35-.31.44-.6zm.1-1.53c-.01-.44-.14-.77-.39-1s-.55-.34-.9-.34c-.38 0-.69.12-.94.36s-.37.57-.37.98z"/><path d="m133.24 375.08 1.75-.23c.07.29.22.52.45.67s.54.23.95.23c.45 0 .79-.07 1.02-.22.15-.1.23-.24.23-.4 0-.11-.04-.21-.12-.29-.09-.07-.28-.14-.58-.2-1.4-.27-2.29-.52-2.67-.74-.52-.31-.78-.74-.78-1.29 0-.5.22-.91.67-1.25s1.15-.51 2.09-.51c.9 0 1.57.13 2 .38.44.25.74.63.9 1.13l-1.64.26c-.07-.22-.2-.39-.4-.51s-.48-.18-.84-.18c-.46 0-.79.06-.98.17-.13.08-.2.18-.2.31 0 .11.06.2.17.27.16.1.7.24 1.62.43.93.18 1.57.41 1.94.67.36.27.54.65.54 1.13 0 .52-.25.98-.75 1.35s-1.25.57-2.23.57c-.9 0-1.6-.16-2.13-.47s-.85-.74-1.01-1.28z"/><path d="m143.92 370.99v1.21h-1.19v2.31c0 .47.01.74.03.82s.07.14.15.19.18.08.29.08c.16 0 .39-.05.7-.15l.15 1.18c-.4.15-.86.23-1.37.23-.31 0-.6-.04-.85-.14-.25-.09-.44-.21-.55-.36s-.2-.34-.24-.59c-.04-.18-.06-.53-.06-1.07v-2.5h-.8v-1.21h.8v-1.14l1.75-.88v2.02z"/><path d="m145.12 370.21v-1.4h1.74v1.4zm0 6.5v-5.72h1.74v5.72z"/><path d="m148.49 377.09 1.99.21c.03.2.11.34.23.42.17.11.43.16.78.16.45 0 .79-.06 1.02-.18.15-.08.27-.21.35-.38.05-.13.08-.36.08-.7v-.83c-.52.62-1.18.93-1.97.93-.88 0-1.58-.33-2.1-.98-.4-.51-.61-1.15-.61-1.92 0-.96.26-1.69.79-2.2s1.19-.76 1.98-.76c.81 0 1.48.31 2.01.93v-.8h1.63v5.14c0 .68-.06 1.18-.19 1.51s-.31.6-.54.79-.54.34-.93.45-.87.16-1.46.16c-1.11 0-1.9-.17-2.37-.5s-.7-.75-.7-1.26c0-.06 0-.12.01-.19zm1.55-3.36c0 .61.14 1.05.41 1.33s.6.42 1 .42c.42 0 .78-.14 1.08-.43s.44-.72.44-1.29c0-.59-.14-1.03-.42-1.32s-.64-.43-1.06-.43-.76.14-1.03.42c-.29.29-.42.73-.42 1.3z"/><path d="m160.2 374.89 1.73.25c-.22.55-.58.97-1.06 1.26s-1.08.43-1.8.43c-1.14 0-1.99-.33-2.54-.98-.43-.52-.65-1.18-.65-1.97 0-.95.28-1.69.85-2.23s1.29-.81 2.16-.81c.98 0 1.75.28 2.31.84s.83 1.42.81 2.58h-4.36c.01.45.15.8.42 1.05s.6.37 1 .37c.27 0 .5-.06.69-.19.2-.1.34-.31.44-.6zm.09-1.53c-.01-.44-.14-.77-.39-1s-.55-.34-.9-.34c-.38 0-.69.12-.94.36s-.37.57-.37.98z"/><path d="m169.42 376.71h-1.74v-2.92c0-.62-.04-1.02-.11-1.2s-.2-.32-.36-.42c-.17-.1-.37-.15-.6-.15-.3 0-.57.07-.81.22-.24.14-.4.33-.49.57s-.13.67-.13 1.31v2.59h-1.74v-5.72h1.62v.84c.57-.65 1.3-.97 2.17-.97.38 0 .73.06 1.05.18s.56.27.72.46.28.4.34.64.1.58.1 1.02v3.55z"/><path d="m176.51 376.71-2.65-5.72h1.83l1.24 2.92.36.98c.1-.25.16-.41.18-.49.06-.16.12-.32.19-.49l1.25-2.92h1.79l-2.61 5.72z"/><path d="m181.35 373.77c0-.5.14-.99.43-1.46s.69-.83 1.21-1.08 1.1-.37 1.75-.37c.99 0 1.81.28 2.44.84.64.56.95 1.27.95 2.13 0 .87-.32 1.58-.96 2.15s-1.45.85-2.42.85c-.6 0-1.18-.12-1.72-.36s-.96-.58-1.25-1.04-.43-1-.43-1.66zm1.78.08c0 .57.15 1 .46 1.3s.69.45 1.15.45c.45 0 .83-.15 1.14-.45s.46-.74.46-1.32c0-.56-.15-.99-.46-1.29s-.69-.45-1.14-.45-.84.15-1.15.45-.46.74-.46 1.31z"/><path d="m189.09 373.77c0-.5.14-.99.43-1.46s.69-.83 1.21-1.08 1.1-.37 1.75-.37c.99 0 1.81.28 2.44.84.64.56.95 1.27.95 2.13 0 .87-.32 1.58-.96 2.15s-1.45.85-2.42.85c-.6 0-1.18-.12-1.72-.36s-.96-.58-1.25-1.04-.43-1-.43-1.66zm1.79.08c0 .57.15 1 .46 1.3s.69.45 1.15.45c.45 0 .83-.15 1.14-.45s.46-.74.46-1.32c0-.56-.15-.99-.46-1.29s-.69-.45-1.14-.45-.84.15-1.15.45-.46.74-.46 1.31z"/><path d="m198.9 376.71h-1.74v-5.72h1.62v.81c.28-.38.53-.64.75-.76s.47-.18.75-.18c.4 0 .78.1 1.15.29l-.54 1.32c-.29-.17-.57-.25-.82-.25-.24 0-.45.06-.62.17-.17.12-.3.33-.4.63s-.15.95-.15 1.92z"/><path d="m211.19 375.31v1.41h-6.1c.07-.53.26-1.04.59-1.51.33-.48.98-1.11 1.96-1.89.78-.64 1.26-1.07 1.44-1.29.24-.31.36-.62.36-.93 0-.34-.1-.6-.31-.78s-.5-.27-.86-.27-.65.09-.87.29-.34.51-.37.95l-1.73-.15c.1-.83.43-1.43.97-1.79s1.22-.54 2.04-.54c.89 0 1.6.21 2.11.63s.77.94.77 1.57c0 .36-.07.69-.22 1.02-.15.32-.38.66-.7 1.01-.21.23-.59.57-1.14 1.01s-.9.73-1.04.87-.26.28-.36.42h3.46z"/><path d="m212.37 370.33v-1.41h5.95v1.1c-.49.42-.99 1.02-1.5 1.81s-.89 1.62-1.16 2.51-.4 1.68-.39 2.37h-1.68c.03-1.09.29-2.21.78-3.34s1.14-2.15 1.96-3.04z"/><path d="m218.86 376.85 2.25-8.17h1.31l-2.27 8.17z"/><path d="m227.39 376.71h-1.74v-5.71c-.64.52-1.38.9-2.25 1.15v-1.38c.46-.13.95-.37 1.48-.74.53-.36.9-.78 1.09-1.26h1.41v7.94z"/><path d="m233.74 376.71h-1.74v-5.71c-.64.52-1.38.9-2.25 1.15v-1.38c.45-.13.95-.37 1.48-.74s.9-.78 1.1-1.26h1.41z"/><path d="m235.78 376.85 2.25-8.17h1.31l-2.27 8.17z"/><path d="m245.74 375.31v1.41h-6.1c.07-.53.26-1.04.59-1.51.33-.48.98-1.11 1.96-1.89.78-.64 1.26-1.07 1.44-1.29.24-.31.36-.62.36-.93 0-.34-.1-.6-.31-.78s-.5-.27-.86-.27-.65.09-.87.29-.34.51-.37.95l-1.73-.15c.1-.83.43-1.43.97-1.79s1.23-.54 2.04-.54c.89 0 1.6.21 2.11.63s.77.94.77 1.57c0 .36-.07.69-.22 1.02s-.38.66-.7 1.01c-.21.23-.59.57-1.14 1.01s-.9.73-1.04.87c-.15.14-.26.28-.36.42h3.46z"/><path d="m249.85 368.78c.88 0 1.56.27 2.06.82.59.65.88 1.72.88 3.22 0 1.49-.3 2.57-.89 3.22-.49.54-1.18.81-2.05.81-.88 0-1.6-.3-2.14-.89s-.81-1.64-.81-3.16c0-1.49.3-2.56.89-3.21.5-.54 1.18-.81 2.06-.81zm0 1.26c-.21 0-.4.06-.56.17-.16.12-.29.33-.38.63-.12.39-.18 1.05-.18 1.98s.05 1.56.16 1.91.24.58.41.69c.16.12.35.17.56.17s.4-.06.56-.17c.16-.12.29-.33.38-.63.12-.39.18-1.05.18-1.97 0-.93-.05-1.56-.16-1.91s-.24-.58-.41-.7c-.16-.12-.35-.17-.56-.17z"/><path d="m259.83 375.31v1.41h-6.1c.07-.53.26-1.04.59-1.51.33-.48.98-1.11 1.96-1.89.78-.64 1.26-1.07 1.44-1.29.24-.31.36-.62.36-.93 0-.34-.1-.6-.31-.78s-.5-.27-.86-.27-.65.09-.87.29-.34.51-.37.95l-1.73-.15c.1-.83.43-1.43.97-1.79s1.23-.54 2.04-.54c.9 0 1.6.21 2.11.63s.77.94.77 1.57c0 .36-.07.69-.22 1.02s-.38.66-.7 1.01c-.21.23-.59.57-1.14 1.01s-.9.73-1.04.87-.27.28-.36.42h3.46z"/><path d="m265.46 376.71h-1.74v-5.71c-.63.52-1.38.9-2.25 1.15v-1.38c.45-.13.95-.37 1.48-.74s.9-.78 1.1-1.26h1.41z"/></g><circle cx="29.52" cy="109.17" fill="#7e6a75" r="32.65" stroke="#394871" stroke-miterlimit="10" stroke-width="1.6851"/><g enable-background="new" fill="#d7bbb5"><path d="m17.53 124.1v-6.14h-12.48v-5.12l13.23-19.37h4.91v19.35h3.79v5.14h-3.79v6.14zm0-11.27v-10.43l-7.01 10.42h7.01z"/><path d="m39.65 93.48c2.95 0 5.26 1.05 6.93 3.16 1.98 2.5 2.98 6.64 2.98 12.42 0 5.77-1 9.92-3 12.44-1.65 2.08-3.95 3.12-6.91 3.12-2.97 0-5.36-1.14-7.18-3.42s-2.73-6.35-2.73-12.2c0-5.74 1-9.88 3-12.4 1.65-2.08 3.95-3.12 6.91-3.12zm0 4.85c-.71 0-1.34.23-1.89.68s-.98 1.26-1.29 2.42c-.4 1.51-.6 4.06-.6 7.64s.18 6.04.54 7.38.81 2.23 1.36 2.67 1.18.67 1.88.67 1.34-.22 1.89-.68c.55-.45.98-1.26 1.29-2.42.4-1.5.6-4.04.6-7.62s-.18-6.04-.54-7.38-.81-2.23-1.36-2.68c-.55-.46-1.17-.68-1.88-.68z"/></g><circle cx="71.84" cy="63.37" fill="#796986" r="36.22" stroke="#394871" stroke-miterlimit="10" stroke-width="1.6851"/><g enable-background="new" fill="#d7bbb5"><path d="m46.27 71.38 6.9-.71c.2 1.56.78 2.8 1.75 3.71s2.09 1.37 3.35 1.37c1.45 0 2.67-.59 3.67-1.76s1.5-2.95 1.5-5.31c0-2.22-.5-3.88-1.49-4.99s-2.29-1.66-3.88-1.66c-1.99 0-3.77.88-5.35 2.64l-5.62-.81 3.55-18.81h18.32v6.48h-13.06l-1.08 6.14c1.54-.77 3.12-1.16 4.73-1.16 3.07 0 5.68 1.12 7.81 3.35 2.14 2.24 3.2 5.14 3.2 8.7 0 2.97-.86 5.63-2.59 7.96-2.35 3.19-5.61 4.78-9.79 4.78-3.34 0-6.06-.9-8.16-2.69s-3.35-4.2-3.76-7.23z"/><path d="m85.96 44.39c3.5 0 6.24 1.25 8.21 3.75 2.35 2.96 3.52 7.86 3.52 14.72 0 6.84-1.18 11.75-3.55 14.74-1.96 2.46-4.68 3.7-8.18 3.7-3.52 0-6.35-1.35-8.5-4.05s-3.23-7.52-3.23-14.46c0-6.8 1.18-11.7 3.55-14.69 1.95-2.48 4.68-3.71 8.18-3.71zm0 5.74c-.84 0-1.59.27-2.24.8-.66.53-1.17 1.49-1.53 2.87-.48 1.79-.71 4.81-.71 9.05s.21 7.15.64 8.74.97 2.64 1.61 3.17c.65.53 1.39.79 2.23.79s1.59-.27 2.24-.8c.66-.53 1.17-1.49 1.53-2.87.48-1.77.72-4.78.72-9.02s-.21-7.15-.64-8.74c-.43-1.58-.97-2.65-1.61-3.18-.66-.54-1.4-.81-2.24-.81z"/></g><circle cx="130.96" cy="46.34" fill="#7e6a75" r="38.84" stroke="#394871" stroke-miterlimit="10" stroke-width="1.6851"/><g enable-background="new" fill="#d7bbb5"><path d="m128.59 34.92-7.19.79c-.18-1.48-.63-2.57-1.37-3.28s-1.7-1.06-2.88-1.06c-1.57 0-2.89.71-3.98 2.12-1.08 1.41-1.77 4.34-2.05 8.8 1.85-2.18 4.15-3.28 6.9-3.28 3.1 0 5.76 1.18 7.97 3.54s3.32 5.41 3.32 9.15c0 3.96-1.16 7.15-3.49 9.54s-5.31 3.59-8.96 3.59c-3.91 0-7.13-1.52-9.65-4.56s-3.78-8.02-3.78-14.95c0-7.1 1.31-12.22 3.94-15.36s6.04-4.71 10.23-4.71c2.94 0 5.38.82 7.31 2.47 1.92 1.67 3.15 4.07 3.68 7.2zm-16.84 16.21c0 2.41.56 4.28 1.67 5.59s2.38 1.97 3.81 1.97c1.37 0 2.52-.54 3.44-1.61.92-1.08 1.37-2.84 1.37-5.29 0-2.52-.49-4.37-1.48-5.54s-2.22-1.76-3.7-1.76c-1.43 0-2.63.56-3.62 1.68-1 1.12-1.49 2.77-1.49 4.96z"/><path d="m146.09 25.27c3.75 0 6.69 1.34 8.8 4.02 2.52 3.17 3.78 8.43 3.78 15.78 0 7.33-1.27 12.6-3.81 15.81-2.1 2.64-5.02 3.96-8.78 3.96-3.77 0-6.81-1.45-9.12-4.35s-3.46-8.07-3.46-15.5c0-7.3 1.27-12.55 3.81-15.75 2.1-2.64 5.02-3.97 8.78-3.97zm0 6.16c-.9 0-1.7.29-2.41.86-.7.57-1.25 1.6-1.64 3.08-.51 1.92-.77 5.16-.77 9.7 0 4.55.23 7.67.69 9.37s1.03 2.83 1.73 3.4c.7.56 1.49.85 2.39.85s1.7-.29 2.41-.86 1.25-1.6 1.64-3.08c.51-1.9.77-5.13.77-9.67 0-4.55-.23-7.67-.69-9.37s-1.04-2.84-1.73-3.41c-.7-.58-1.5-.87-2.39-.87z"/></g><circle cx="189.83" cy="83.83" fill="#394871" r="42.95" stroke="#7e6a75" stroke-miterlimit="10" stroke-width="1.6851"/><g enable-background="new" fill="#d7bbb5"><path d="m161.52 72.58v-7.35h27.06v5.74c-2.23 2.2-4.51 5.35-6.81 9.46-2.31 4.11-4.07 8.48-5.28 13.11s-1.81 8.76-1.79 12.4h-7.63c.13-5.71 1.31-11.53 3.53-17.46s5.2-11.24 8.91-15.91h-17.99z"/><path d="m206.96 64.49c4 0 7.12 1.43 9.38 4.28 2.68 3.38 4.03 8.98 4.03 16.81 0 7.81-1.35 13.42-4.05 16.84-2.23 2.82-5.35 4.22-9.35 4.22-4.02 0-7.25-1.54-9.71-4.63s-3.69-8.59-3.69-16.51c0-7.77 1.35-13.37 4.05-16.78 2.23-2.82 5.34-4.23 9.34-4.23zm0 6.57c-.96 0-1.81.3-2.56.92s-1.33 1.7-1.75 3.28c-.54 2.05-.82 5.49-.82 10.33s.24 8.17.73 9.98 1.1 3.02 1.84 3.62 1.59.9 2.55.9 1.81-.31 2.56-.92 1.33-1.7 1.75-3.28c.54-2.03.82-5.46.82-10.31s-.24-8.17-.73-9.98-1.1-3.02-1.84-3.63-1.59-.91-2.55-.91z"/></g><circle cx="120.01" cy="140.09" fill="#796986" r="23.47" stroke="#394871" stroke-miterlimit="10" stroke-width="1.6851"/><g enable-background="new" fill="#d7bbb5"><path d="m118.7 147.59v3.83h-14.47c.16-1.45.63-2.82 1.41-4.12s2.33-3.02 4.64-5.16c1.86-1.73 3-2.91 3.42-3.53.57-.85.85-1.69.85-2.53 0-.92-.25-1.63-.74-2.12s-1.18-.74-2.05-.74c-.86 0-1.55.26-2.06.78s-.8 1.38-.88 2.58l-4.11-.41c.24-2.27 1.01-3.9 2.31-4.89s2.91-1.48 4.85-1.48c2.12 0 3.79.57 5.01 1.72 1.21 1.15 1.82 2.57 1.82 4.27 0 .97-.17 1.89-.52 2.77s-.9 1.79-1.65 2.75c-.5.64-1.4 1.55-2.7 2.75s-2.13 1.99-2.47 2.38c-.35.39-.63.77-.84 1.15z"/><path d="m128.46 129.81c2.09 0 3.72.74 4.89 2.23 1.4 1.76 2.1 4.69 2.1 8.77 0 4.07-.71 7-2.11 8.78-1.17 1.47-2.79 2.2-4.88 2.2-2.1 0-3.78-.81-5.07-2.42s-1.92-4.48-1.92-8.61c0-4.05.71-6.97 2.11-8.75 1.17-1.47 2.8-2.2 4.88-2.2zm0 3.42c-.5 0-.94.16-1.34.48-.39.32-.7.89-.91 1.71-.28 1.07-.43 2.86-.43 5.39s.13 4.26.38 5.21c.25.94.57 1.57.96 1.89.39.31.83.47 1.33.47s.94-.16 1.34-.48.7-.89.91-1.71c.28-1.06.43-2.85.43-5.38s-.13-4.26-.38-5.21c-.25-.94-.58-1.58-.96-1.89s-.83-.48-1.33-.48z"/></g><circle cx="81.78" cy="119.47" fill="#394871" r="27.61" stroke="#7e6a75" stroke-miterlimit="10" stroke-width="1.6851"/><g enable-background="new" fill="#d7bbb5"><path d="m63.46 126.32 4.59-.56c.15 1.17.54 2.07 1.18 2.68s1.42.93 2.33.93c.98 0 1.8-.37 2.47-1.11s1-1.75 1-3.01c0-1.19-.32-2.14-.96-2.84s-1.42-1.05-2.35-1.05c-.61 0-1.33.12-2.18.35l.52-3.87c1.28.03 2.26-.25 2.94-.84s1.01-1.38 1.01-2.36c0-.83-.25-1.5-.74-1.99-.5-.5-1.15-.74-1.98-.74-.81 0-1.5.28-2.08.84s-.92 1.38-1.05 2.46l-4.37-.74c.3-1.5.76-2.69 1.38-3.59.61-.89 1.47-1.6 2.57-2.11s2.33-.77 3.69-.77c2.33 0 4.2.74 5.61 2.23 1.16 1.22 1.74 2.59 1.74 4.12 0 2.17-1.19 3.91-3.56 5.2 1.42.3 2.55.99 3.4 2.04.85 1.06 1.27 2.34 1.27 3.83 0 2.17-.79 4.02-2.38 5.56-1.59 1.53-3.56 2.3-5.93 2.3-2.24 0-4.1-.64-5.57-1.93-1.46-1.26-2.31-2.95-2.55-5.03z"/><path d="m90.89 108.03c2.4 0 4.27.86 5.62 2.57 1.61 2.03 2.41 5.39 2.41 10.08 0 4.68-.81 8.05-2.43 10.1-1.34 1.69-3.21 2.53-5.61 2.53-2.41 0-4.35-.93-5.83-2.78s-2.21-5.15-2.21-9.9c0-4.66.81-8.01 2.43-10.06 1.35-1.69 3.22-2.54 5.62-2.54zm0 3.94c-.57 0-1.09.18-1.54.55s-.8 1.02-1.05 1.97c-.33 1.23-.49 3.29-.49 6.2s.15 4.9.44 5.99.66 1.81 1.11 2.17c.44.36.95.54 1.53.54.57 0 1.09-.18 1.54-.55s.8-1.02 1.05-1.97c.33-1.22.49-3.28.49-6.18s-.15-4.9-.44-5.99-.66-1.81-1.11-2.18-.96-.55-1.53-.55z"/></g><g enable-background="new" fill="#7e6a75"><path d="m17.96 166.57-3.33-11h2.88l2.1 7.56 2.55-7.56h3.34l2.44 7.68 2.14-7.68h2.83l-3.38 11h-2.98l-2.77-8.23-2.76 8.23z"/><path d="m34.26 166.57v-11h2.81v11z"/><path d="m39.78 166.57v-11h2.74l5.7 7.35v-7.35h2.61v11h-2.82l-5.61-7.17v7.17z"/><path d="m56.94 166.57v-9.14h-4.14v-1.86h11.07v1.86h-4.12v9.14z"/><path d="m65.69 166.57v-11h10.33v1.86h-7.52v2.44h6.99v1.85h-6.99v3h7.78v1.85z"/><path d="m78.67 166.57v-11h5.92c1.49 0 2.57.1 3.24.3s1.21.55 1.62 1.05c.41.51.61 1.08.61 1.73 0 .83-.31 1.51-.92 2.04-.61.54-1.53.88-2.75 1.02.61.28 1.11.59 1.51.92s.93.93 1.6 1.79l1.7 2.15h-3.36l-2.03-2.39c-.72-.86-1.22-1.39-1.48-1.62s-.55-.38-.85-.46-.77-.12-1.42-.12h-.57v4.59zm2.81-6.35h2.08c1.35 0 2.19-.04 2.53-.13s.6-.25.79-.46c.19-.22.28-.5.28-.83 0-.37-.12-.67-.38-.9-.25-.23-.6-.37-1.06-.43-.23-.02-.91-.04-2.05-.04h-2.19z"/></g><g enable-background="new" fill="#d7bbb5"><path d="m16.8 183.91v-12.79h14.88v2.16h-10.5v3.03h9.06v2.16h-9.06v5.43h-4.38z"/><path d="m35.3 183.91v-12.79h16.1v2.16h-11.72v2.83h10.9v2.15h-10.9v3.48h12.13v2.15h-16.51z"/><path d="m54.42 179.75 4.26-.24c.26.84.78 1.46 1.56 1.86s1.84.59 3.18.59c1.41 0 2.48-.18 3.19-.53.72-.35 1.07-.76 1.07-1.23 0-.3-.15-.56-.45-.77s-.83-.4-1.58-.55c-.51-.1-1.68-.29-3.51-.56-2.35-.34-4-.76-4.95-1.26-1.33-.7-2-1.56-2-2.57 0-.65.31-1.26.94-1.83s1.53-1 2.71-1.3 2.6-.44 4.27-.44c2.72 0 4.78.35 6.15 1.05 1.38.7 2.1 1.64 2.17 2.82l-4.38.11c-.19-.66-.59-1.13-1.21-1.42s-1.54-.43-2.78-.43c-1.27 0-2.27.15-2.99.46-.46.2-.7.46-.7.79 0 .3.22.56.65.78.55.27 1.9.56 4.03.85s3.71.6 4.73.92 1.82.75 2.4 1.3.87 1.23.87 2.04c0 .73-.35 1.42-1.04 2.06s-1.67 1.12-2.93 1.43-2.84.47-4.72.47c-2.74 0-4.85-.37-6.32-1.12-1.46-.76-2.34-1.85-2.62-3.28z"/><path d="m80.64 183.91v-10.62h-6.44v-2.16h17.25v2.16h-6.43v10.62z"/><path d="m94.15 183.91v-12.79h4.38v12.79z"/><path d="m108.24 183.91-7.76-12.79h4.75l5.49 9.46 5.32-9.46h4.65l-7.77 12.79z"/><path d="m140.26 183.91h-4.77l-1.9-2.9h-8.68l-1.79 2.9h-4.65l8.46-12.79h4.63zm-8.07-5.06-2.99-4.75-2.93 4.75z"/><path d="m142.7 183.91v-12.68h4.38v10.53h10.9v2.15z"/></g><g enable-background="new" fill="#394871"><path d="m15.13 233.18v-7.61h1.81v6.32h4.5v1.29z"/><path d="m22.68 233.18v-7.67h1.81v7.67z"/><path d="m25.76 230.69 1.76-.15c.11.51.32.88.65 1.11.32.24.76.36 1.31.36.58 0 1.02-.11 1.32-.32s.44-.46.44-.74c0-.18-.06-.34-.19-.46-.12-.13-.34-.24-.65-.33-.21-.06-.7-.17-1.45-.33-.97-.21-1.65-.46-2.04-.76-.55-.42-.83-.94-.83-1.54 0-.39.13-.76.39-1.1s.63-.6 1.12-.78 1.08-.27 1.77-.27c1.13 0 1.97.21 2.54.63s.87.99.9 1.69l-1.81.07c-.08-.39-.24-.68-.5-.85s-.64-.26-1.15-.26c-.53 0-.94.09-1.24.28-.19.12-.29.28-.29.48 0 .18.09.34.27.46.23.16.78.33 1.66.51s1.53.36 1.96.55c.42.19.75.45.99.78s.36.74.36 1.22c0 .44-.14.85-.43 1.24-.29.38-.69.67-1.21.86s-1.17.28-1.95.28c-1.13 0-2-.22-2.61-.67s-.97-1.1-1.09-1.96z"/><path d="m42.67 233.18h-1.97l-.78-1.74h-3.59l-.74 1.74h-1.92l3.49-7.67h1.92zm-3.34-3.03-1.24-2.85-1.21 2.85z"/><path d="m43.42 231.14v-1.47h3.38v1.47z"/><path d="m47.81 233.18v-7.67h1.81v3.02h3.55v-3.02h1.81v7.67h-1.81v-3.35h-3.55v3.35z"/><path d="m56.8 233.18v-7.67h1.81v7.67z"/><path d="m60.38 233.18v-7.61h1.81v6.32h4.5v1.29z"/><path d="m68.01 233.18v-7.67h1.81v3.41l3.66-3.41h2.44l-3.38 2.99 3.56 4.68h-2.34l-2.47-3.6-1.47 1.28v2.32z"/><path d="m77.04 233.18v-7.67h6.65v1.3h-4.84v1.7h4.5v1.29h-4.5v2.09h5.01v1.29z"/><path d="m85.19 231.14v-1.47h3.38v1.47z"/><path d="m92.81 225.51h1.81v4.86c0 .64-.07 1.12-.2 1.47-.18.45-.49.8-.95 1.08s-1.07.41-1.82.41c-.89 0-1.57-.21-2.04-.64-.48-.42-.72-1.05-.72-1.87l1.71-.17c.02.44.1.75.23.93.2.28.49.41.89.41s.69-.1.86-.29c.17-.2.25-.61.25-1.23v-4.96z"/><path d="m96.54 233.18v-7.67h6.65v1.3h-4.84v1.7h4.5v1.29h-4.5v2.09h5.01v1.29z"/><path d="m104.44 230.69 1.76-.15c.11.51.32.88.65 1.11.32.24.76.36 1.31.36.58 0 1.02-.11 1.32-.32s.44-.46.44-.74c0-.18-.06-.34-.19-.46-.12-.13-.34-.24-.65-.33-.21-.06-.7-.17-1.45-.33-.97-.21-1.65-.46-2.04-.76-.55-.42-.83-.94-.83-1.54 0-.39.13-.76.39-1.1s.63-.6 1.12-.78 1.08-.27 1.77-.27c1.13 0 1.97.21 2.54.63s.87.99.9 1.69l-1.81.07c-.08-.39-.24-.68-.5-.85s-.64-.26-1.15-.26c-.53 0-.94.09-1.24.28-.19.12-.29.28-.29.48 0 .18.09.34.27.46.23.16.78.33 1.66.51s1.53.36 1.96.55c.42.19.75.45.99.78s.36.74.36 1.22c0 .44-.14.85-.43 1.24-.29.38-.69.67-1.21.86s-1.17.28-1.95.28c-1.13 0-2-.22-2.61-.67s-.97-1.1-1.09-1.96z"/><path d="m112.8 230.69 1.76-.15c.11.51.32.88.65 1.11.32.24.76.36 1.31.36.58 0 1.02-.11 1.32-.32s.44-.46.44-.74c0-.18-.06-.34-.19-.46-.12-.13-.34-.24-.65-.33-.21-.06-.7-.17-1.45-.33-.97-.21-1.65-.46-2.04-.76-.55-.42-.83-.94-.83-1.54 0-.39.13-.76.39-1.1s.63-.6 1.12-.78 1.08-.27 1.77-.27c1.13 0 1.97.21 2.54.63s.87.99.9 1.69l-1.81.07c-.08-.39-.24-.68-.5-.85s-.64-.26-1.15-.26c-.53 0-.94.09-1.24.28-.19.12-.29.28-.29.48 0 .18.09.34.27.46.23.16.78.33 1.66.51s1.53.36 1.96.55c.42.19.75.45.99.78s.36.74.36 1.22c0 .44-.14.85-.43 1.24-.29.38-.69.67-1.21.86s-1.17.28-1.95.28c-1.13 0-2-.22-2.61-.67s-.97-1.1-1.09-1.96z"/><path d="m121.56 233.18v-7.67h1.81v7.67z"/><path d="m130.84 230.36 1.76.48c-.27.84-.72 1.46-1.34 1.87-.63.41-1.42.61-2.38.61-1.19 0-2.17-.35-2.94-1.04-.77-.7-1.15-1.65-1.15-2.85 0-1.28.39-2.27 1.16-2.97.77-.71 1.78-1.06 3.04-1.06 1.1 0 1.99.28 2.67.83.41.33.71.8.92 1.41l-1.79.37c-.11-.4-.33-.71-.66-.94-.34-.23-.75-.35-1.23-.35-.67 0-1.2.2-1.62.61s-.62 1.07-.62 1.98c0 .97.2 1.66.61 2.07s.94.62 1.59.62c.48 0 .9-.13 1.24-.39.34-.27.59-.69.74-1.25z"/><path d="m142.24 233.18h-1.97l-.78-1.74h-3.59l-.74 1.74h-1.92l3.49-7.67h1.92zm-3.34-3.03-1.24-2.85-1.21 2.85z"/><path d="m142.99 231.14v-1.47h3.38v1.47z"/><path d="m146.91 230.69 1.76-.15c.11.51.32.88.65 1.11.32.24.76.36 1.31.36.58 0 1.02-.11 1.32-.32.29-.21.44-.46.44-.74 0-.18-.06-.34-.19-.46-.12-.13-.34-.24-.65-.33-.21-.06-.7-.17-1.45-.33-.97-.21-1.65-.46-2.04-.76-.55-.42-.83-.94-.83-1.54 0-.39.13-.76.39-1.1s.63-.6 1.12-.78 1.08-.27 1.77-.27c1.12 0 1.97.21 2.54.63s.87.99.9 1.69l-1.81.07c-.08-.39-.24-.68-.5-.85s-.64-.26-1.15-.26c-.53 0-.94.09-1.24.28-.19.12-.29.28-.29.48 0 .18.09.34.27.46.23.16.78.33 1.66.51s1.53.36 1.96.55c.42.19.75.45.99.78s.36.74.36 1.22c0 .44-.14.85-.43 1.24s-.69.67-1.21.86-1.17.28-1.95.28c-1.13 0-2-.22-2.61-.67s-.97-1.1-1.09-1.96z"/><path d="m163.82 233.18h-1.97l-.78-1.74h-3.59l-.74 1.74h-1.92l3.49-7.67h1.92zm-3.33-3.03-1.24-2.85-1.21 2.85z"/><path d="m164.8 233.18v-7.67h1.76l3.67 5.12v-5.12h1.68v7.67h-1.82l-3.62-5v5z"/><path d="m173.83 225.51h3.31c.75 0 1.31.05 1.71.15.53.13.98.37 1.35.71.38.34.66.75.86 1.24s.29 1.09.29 1.81c0 .63-.09 1.17-.28 1.63-.22.56-.54 1.01-.96 1.36-.31.26-.74.47-1.27.61-.4.11-.94.16-1.6.16h-3.41zm1.81 1.3v5.08h1.35c.51 0 .87-.02 1.09-.07.29-.06.54-.17.73-.32s.35-.4.47-.74.18-.81.18-1.41-.06-1.05-.18-1.37-.29-.57-.51-.74c-.22-.18-.5-.3-.84-.36-.25-.05-.75-.07-1.49-.07z"/><path d="m182.89 233.18v-7.67h3.81c.96 0 1.66.07 2.09.21s.78.38 1.04.74c.26.35.39.75.39 1.21 0 .58-.2 1.05-.59 1.43s-.99.61-1.77.71c.39.2.71.41.97.64s.6.65 1.03 1.25l1.1 1.5h-2.17l-1.31-1.67c-.47-.6-.78-.97-.95-1.13s-.35-.26-.54-.32-.5-.09-.91-.09h-.37v3.2h-1.82zm1.81-4.42h1.34c.87 0 1.41-.03 1.63-.09s.39-.17.51-.32.18-.35.18-.58c0-.26-.08-.47-.24-.62-.16-.16-.39-.26-.68-.3-.15-.02-.59-.03-1.32-.03h-1.41v1.94z"/><path d="m200.02 233.18h-1.97l-.78-1.74h-3.59l-.74 1.74h-1.92l3.49-7.67h1.92zm-3.33-3.03-1.24-2.85-1.21 2.85z"/><path d="m200.77 231.14v-1.47h3.38v1.47z"/><path d="m213.25 233.18h-1.97l-.78-1.74h-3.59l-.74 1.74h-1.92l3.49-7.67h1.92zm-3.34-3.03-1.24-2.85-1.21 2.85z"/><path d="m214.22 233.18v-7.67h1.76l3.67 5.12v-5.12h1.68v7.67h-1.82l-3.62-5v5z"/><path d="m223.28 233.18v-7.67h1.76l3.67 5.12v-5.12h1.68v7.67h-1.82l-3.62-5v5z"/><path d="m232.31 233.18v-7.67h6.65v1.3h-4.84v1.7h4.5v1.29h-4.5v2.09h5.01v1.29z"/><path d="m240.46 231.14v-1.47h3.38v1.47z"/><path d="m244.81 233.18v-7.67h2.71l1.63 5.23 1.61-5.23h2.72v7.67h-1.68v-6.04l-1.78 6.04h-1.74l-1.78-6.04v6.04z"/><path d="m255.22 233.18v-7.67h1.81v7.67z"/><path d="m266.85 233.18h-1.97l-.78-1.74h-3.59l-.74 1.74h-1.92l3.49-7.67h1.92zm-3.34-3.03-1.24-2.85-1.21 2.85z"/></g><g enable-background="new" fill="#796986"><path d="m192.74 132.4h3.65c.82 0 1.45.05 1.88.14.58.13 1.08.36 1.49.7s.73.74.94 1.22.32 1.08.32 1.78c0 .62-.1 1.16-.3 1.61-.25.55-.6.99-1.06 1.33-.35.26-.81.46-1.4.6-.44.11-1.03.16-1.77.16h-3.75zm2 1.28v5h1.49c.56 0 .96-.02 1.21-.07.32-.06.59-.17.81-.31.21-.15.39-.39.52-.73s.2-.8.2-1.38-.07-1.03-.2-1.34-.32-.56-.57-.73c-.24-.17-.55-.29-.92-.35-.28-.05-.82-.07-1.64-.07h-.9z"/><path d="m201.66 150.49h-2.17l-.86-1.71h-3.95l-.82 1.71h-2.12l3.85-7.55h2.11zm-3.67-2.99-1.36-2.8-1.33 2.8z"/><path d="m195.74 161.03v-6.27h-2.93v-1.28h7.85v1.28h-2.92v6.27z"/><path d="m192.74 164.03h1.99v4.09c0 .65.02 1.07.07 1.26.08.31.29.56.61.74.32.19.76.28 1.32.28.57 0 .99-.09 1.28-.26s.46-.39.52-.65.09-.69.09-1.28v-4.18h1.99v3.97c0 .91-.05 1.55-.16 1.92s-.31.69-.6.95-.68.46-1.16.62c-.49.15-1.12.23-1.9.23-.94 0-1.66-.08-2.15-.25s-.87-.38-1.16-.65-.47-.54-.56-.84c-.13-.43-.2-1.07-.2-1.92v-4.03z"/><path d="m191.96 182.12v-7.55h2.99l1.79 5.15 1.77-5.15h2.99v7.55h-1.85v-5.94l-1.96 5.94h-1.92l-1.95-5.94v5.94z"/></g><g enable-background="new" fill="#d7bbb5"><path d="m58.92 195.18h-2.19v-1.06c0-.43.06-.77.17-1.02s.32-.47.62-.67.69-.35 1.15-.47l.43.62c-.44.1-.75.24-.94.41-.19.18-.29.41-.3.7h1.06z"/><path d="m64.92 194.17v1.19h-1.5v2.27c0 .46.01.73.04.8s.09.14.19.19.22.07.37.07c.2 0 .5-.05.88-.14l.19 1.15c-.51.15-1.09.22-1.73.22-.4 0-.75-.04-1.07-.13s-.55-.21-.7-.35-.25-.34-.31-.58c-.05-.17-.07-.52-.07-1.05v-2.45h-1v-1.19h1v-1.12l2.2-.87v1.99z"/><path d="m73.8 199.8-4.08-7.77h2.5l2.89 5.75 2.8-5.75h2.45l-4.09 7.77z"/><path d="m81.51 199.8v-7.77h2.19v7.77z"/><path d="m85.94 193.41v-1.38h2.19v1.38zm0 6.39v-5.62h2.19v5.62z"/><path d="m95.16 198.01 2.18.25c-.28.54-.72.96-1.33 1.24s-1.36.43-2.27.43c-1.44 0-2.5-.32-3.19-.96-.55-.51-.82-1.16-.82-1.94 0-.93.36-1.66 1.07-2.19.72-.53 1.62-.79 2.72-.79 1.23 0 2.2.28 2.91.83s1.05 1.4 1.02 2.54h-5.48c.02.44.19.79.53 1.03.34.25.76.37 1.26.37.34 0 .63-.06.86-.19s.42-.34.54-.62zm.13-1.51c-.02-.43-.18-.76-.49-.98s-.69-.34-1.14-.34c-.48 0-.87.12-1.18.35s-.46.56-.46.96h3.27z"/><path d="m99.04 200.17 2.5.21c.04.2.14.33.29.41.21.11.53.16.98.16.57 0 1-.06 1.29-.17.19-.08.34-.2.44-.38.07-.12.1-.35.1-.68v-.82c-.65.61-1.48.91-2.48.91-1.11 0-1.99-.32-2.64-.96-.51-.5-.76-1.13-.76-1.89 0-.94.33-1.66 1-2.16s1.5-.75 2.49-.75c1.02 0 1.87.31 2.53.92v-.79h2.05v5.05c0 .66-.08 1.16-.24 1.49s-.39.59-.68.77c-.29.19-.68.33-1.16.44-.49.11-1.1.16-1.84.16-1.4 0-2.4-.16-2.98-.49-.59-.33-.88-.74-.88-1.24-.02-.06-.01-.12-.01-.19zm1.96-3.3c0 .6.17 1.03.51 1.31s.76.42 1.26.42c.53 0 .99-.14 1.35-.43s.55-.71.55-1.26c0-.58-.18-1.01-.53-1.3-.35-.28-.8-.42-1.34-.42-.52 0-.96.14-1.3.42-.33.27-.5.69-.5 1.26z"/><path d="m111.26 199.8-3.33-5.62h2.3l1.56 2.87.45.96c.12-.24.19-.4.23-.48.07-.16.15-.32.23-.48l1.57-2.87h2.25l-3.29 5.62z"/><path d="m122.65 198.01 2.18.25c-.28.54-.72.96-1.33 1.24s-1.36.43-2.27.43c-1.44 0-2.5-.32-3.19-.96-.55-.51-.82-1.16-.82-1.94 0-.93.36-1.66 1.07-2.19.72-.53 1.62-.79 2.72-.79 1.23 0 2.2.28 2.91.83s1.05 1.4 1.02 2.54h-5.48c.02.44.19.79.53 1.03.34.25.76.37 1.26.37.34 0 .63-.06.86-.19s.42-.34.54-.62zm.12-1.51c-.02-.43-.18-.76-.49-.98s-.69-.34-1.14-.34c-.48 0-.87.12-1.18.35s-.46.56-.46.96h3.27z"/><path d="m126.73 199.8v-7.77h2.19v7.77z"/><path d="m138.75 199.8h-2.03v-.83c-.34.32-.74.56-1.2.72s-.92.24-1.39.24c-.95 0-1.76-.26-2.44-.78s-1.02-1.25-1.02-2.18c0-.95.33-1.68.99-2.17.66-.5 1.49-.75 2.5-.75.92 0 1.72.26 2.4.78v-2.8h2.19zm-5.84-2.94c0 .6.12 1.04.37 1.3.35.39.85.58 1.48.58.5 0 .93-.15 1.29-.44.35-.29.53-.73.53-1.31 0-.65-.17-1.11-.51-1.4s-.78-.43-1.32-.43c-.52 0-.95.14-1.3.42-.37.31-.54.73-.54 1.28z"/><path d="m150.67 196.94v-1.31h4.97v3.09c-.48.32-1.18.6-2.1.84s-1.84.36-2.78.36c-1.2 0-2.24-.17-3.12-.51s-1.56-.83-2-1.46c-.45-.63-.67-1.32-.67-2.07 0-.81.25-1.53.75-2.16s1.23-1.11 2.19-1.45c.73-.26 1.64-.39 2.73-.39 1.42 0 2.52.2 3.32.61.8.4 1.31.96 1.54 1.68l-2.29.29c-.16-.38-.46-.68-.91-.9-.44-.22-1-.33-1.66-.33-1.01 0-1.81.22-2.4.65-.6.43-.89 1.08-.89 1.93 0 .92.3 1.61.9 2.07s1.39.69 2.37.69c.48 0 .97-.06 1.45-.19s.9-.29 1.25-.47v-.99h-2.65z"/><path d="m159.84 199.8h-2.19v-5.62h2.03v.8c.35-.38.66-.63.94-.75s.59-.18.95-.18c.5 0 .98.09 1.44.28l-.68 1.3c-.37-.16-.71-.24-1.03-.24-.31 0-.57.06-.78.17s-.38.32-.5.62-.18.93-.18 1.89z"/><path d="m163.95 193.41v-1.38h2.19v1.38zm0 6.39v-5.62h2.19v5.62z"/><path d="m168.22 194.17h2.02v.77c.72-.6 1.58-.9 2.58-.9.53 0 .99.07 1.38.22s.71.37.96.67c.36-.3.76-.52 1.18-.67s.87-.22 1.35-.22c.61 0 1.12.08 1.54.25s.73.41.94.74c.15.24.23.63.23 1.17v3.6h-2.19v-3.21c0-.56-.08-.92-.23-1.08-.2-.21-.51-.32-.94-.32-.31 0-.59.06-.86.19s-.46.31-.58.56-.18.63-.18 1.16v2.7h-2.19v-3.08c0-.55-.04-.9-.12-1.06s-.2-.28-.36-.35-.38-.12-.67-.12c-.34 0-.64.06-.91.18s-.46.3-.58.54c-.12.23-.17.62-.17 1.16v2.73h-2.19v-5.63z"/><path d="m182.47 199.8v-7.77h2.19v2.8c.67-.52 1.47-.78 2.4-.78 1.01 0 1.84.25 2.5.75s.99 1.21.99 2.14c0 .96-.34 1.7-1.01 2.22s-1.49.78-2.45.78c-.47 0-.94-.08-1.4-.24s-.86-.4-1.19-.71v.83h-2.03zm2.18-2.94c0 .58.13 1.01.41 1.29.38.4.88.59 1.51.59.48 0 .89-.14 1.23-.42s.51-.72.51-1.33c0-.64-.17-1.11-.51-1.39s-.78-.43-1.32-.43c-.52 0-.96.14-1.31.42-.35.29-.52.71-.52 1.27z"/><path d="m197.1 198.01 2.18.25c-.28.54-.72.96-1.33 1.24-.6.28-1.36.43-2.27.43-1.44 0-2.5-.32-3.19-.96-.54-.51-.82-1.16-.82-1.94 0-.93.36-1.66 1.08-2.19s1.62-.79 2.72-.79c1.23 0 2.2.28 2.91.83s1.05 1.4 1.02 2.54h-5.48c.02.44.19.79.53 1.03.34.25.76.37 1.26.37.34 0 .63-.06.86-.19s.41-.34.53-.62zm.13-1.51c-.02-.43-.18-.76-.49-.98s-.69-.34-1.14-.34c-.48 0-.87.12-1.18.35s-.46.56-.46.96h3.27z"/><path d="m203.28 199.8h-2.19v-5.62h2.03v.8c.35-.38.66-.63.94-.75s.59-.18.95-.18c.5 0 .98.09 1.44.28l-.68 1.3c-.37-.16-.71-.24-1.03-.24-.31 0-.57.06-.78.17s-.38.32-.5.62-.18.93-.18 1.89z"/><path d="m207.19 200.17 2.5.21c.04.2.14.33.29.41.21.11.53.16.98.16.57 0 1-.06 1.29-.17.19-.08.34-.2.44-.38.07-.12.1-.35.1-.68v-.82c-.65.61-1.48.91-2.48.91-1.11 0-1.99-.32-2.64-.96-.51-.5-.76-1.13-.76-1.89 0-.94.33-1.66 1-2.16s1.5-.75 2.49-.75c1.02 0 1.87.31 2.53.92v-.79h2.05v5.05c0 .66-.08 1.16-.24 1.49s-.39.59-.68.77c-.29.19-.68.33-1.16.44-.49.11-1.1.16-1.84.16-1.4 0-2.4-.16-2.98-.49-.59-.33-.88-.74-.88-1.24-.02-.06-.02-.12-.01-.19zm1.95-3.3c0 .6.17 1.03.51 1.31s.76.42 1.26.42c.54 0 .99-.14 1.36-.43s.55-.71.55-1.26c0-.58-.18-1.01-.53-1.3-.35-.28-.8-.42-1.34-.42-.52 0-.96.14-1.3.42-.34.27-.51.69-.51 1.26z"/><path d="m221.92 198.01 2.18.25c-.28.54-.72.96-1.33 1.24-.6.28-1.36.43-2.27.43-1.44 0-2.5-.32-3.19-.96-.54-.51-.82-1.16-.82-1.94 0-.93.36-1.66 1.08-2.19s1.62-.79 2.72-.79c1.23 0 2.2.28 2.91.83s1.05 1.4 1.02 2.54h-5.48c.02.44.19.79.53 1.03.34.25.76.37 1.26.37.34 0 .63-.06.86-.19s.41-.34.53-.62zm.13-1.51c-.02-.43-.18-.76-.49-.98s-.69-.34-1.14-.34c-.48 0-.87.12-1.18.35s-.46.56-.46.96h3.27z"/><path d="m233.53 199.8h-2.19v-2.87c0-.61-.05-1-.14-1.18s-.25-.32-.46-.42-.46-.15-.76-.15c-.38 0-.72.07-1.02.21s-.51.33-.62.56-.17.66-.17 1.29v2.55h-2.19v-5.62h2.03v.83c.72-.64 1.63-.95 2.73-.95.48 0 .92.06 1.32.18s.7.27.91.45.35.39.43.62.12.57.12 1v3.5z"/></g><g enable-background="new" fill="#7e6a75"><path d="m59.77 212.9v-7.77h2.11v3.06h4.13v-3.06h2.11v7.77h-2.11v-3.4h-4.13v3.4z"/><path d="m75.27 212.9v-.84c-.28.3-.64.54-1.09.71s-.92.26-1.42.26c-.51 0-.96-.08-1.37-.25s-.7-.4-.88-.7-.27-.71-.27-1.24v-3.56h2v2.58c0 .79.04 1.28.11 1.45.07.18.21.32.4.42s.44.16.74.16c.34 0 .65-.07.92-.21s.46-.31.56-.52.15-.71.15-1.52v-2.37h2v5.62h-1.85z"/><path d="m79.05 207.27h1.85v.77c.66-.6 1.45-.9 2.36-.9.48 0 .9.07 1.26.22s.65.37.88.67c.33-.3.69-.52 1.08-.67s.8-.22 1.23-.22c.56 0 1.03.08 1.41.25s.67.41.86.74c.14.24.21.63.21 1.17v3.6h-2v-3.21c0-.56-.07-.92-.21-1.08-.19-.21-.47-.32-.85-.32-.28 0-.54.06-.79.19s-.42.31-.53.56-.16.63-.16 1.16v2.7h-2v-3.08c0-.55-.04-.9-.11-1.06s-.18-.28-.33-.35c-.15-.08-.35-.12-.61-.12-.31 0-.59.06-.83.18-.25.12-.42.3-.53.54-.11.23-.16.62-.16 1.16v2.73h-2v-5.63z"/><path d="m92.09 212.9v-7.77h2v2.8c.62-.52 1.35-.78 2.19-.78.92 0 1.68.25 2.29.75s.9 1.21.9 2.14c0 .96-.31 1.7-.92 2.22-.62.52-1.36.78-2.24.78-.43 0-.86-.08-1.28-.24s-.78-.4-1.09-.71v.83h-1.85zm1.99-2.94c0 .58.12 1.01.37 1.29.35.4.81.59 1.38.59.44 0 .82-.14 1.13-.42s.47-.72.47-1.33c0-.64-.16-1.11-.47-1.39s-.71-.43-1.2-.43c-.48 0-.88.14-1.2.42-.32.29-.48.71-.48 1.27z"/><path d="m105.47 211.11 1.99.25c-.26.54-.66.96-1.21 1.24s-1.25.43-2.08.43c-1.32 0-2.29-.32-2.92-.96-.5-.51-.75-1.16-.75-1.94 0-.93.33-1.66.98-2.19.66-.53 1.48-.79 2.49-.79 1.13 0 2.01.28 2.66.83s.96 1.4.93 2.54h-5.02c.01.44.18.79.48 1.03.31.25.69.37 1.15.37.31 0 .58-.06.79-.19.24-.13.4-.34.51-.62zm.11-1.51c-.01-.43-.16-.76-.45-.98s-.63-.34-1.04-.34c-.44 0-.8.12-1.08.35-.29.24-.43.56-.42.96h2.99z"/><path d="m113.58 211.11 1.99.25c-.26.54-.66.96-1.21 1.24s-1.25.43-2.08.43c-1.32 0-2.29-.32-2.92-.96-.5-.51-.75-1.16-.75-1.94 0-.93.33-1.66.98-2.19.66-.53 1.48-.79 2.49-.79 1.13 0 2.01.28 2.66.83s.96 1.4.93 2.54h-5.02c.01.44.18.79.48 1.03.31.25.69.37 1.15.37.31 0 .58-.06.79-.19.24-.13.4-.34.51-.62zm.12-1.51c-.01-.43-.16-.76-.45-.98s-.63-.34-1.04-.34c-.44 0-.8.12-1.08.35-.29.24-.43.56-.42.96h2.99z"/><path d="m117.24 212.9v-7.77h2v4.12l2.34-1.98h2.46l-2.59 2.05 2.77 3.57h-2.16l-1.9-2.53-.93.73v1.8h-1.99z"/><path d="m124.72 211.29 2.01-.23c.09.29.26.51.52.66s.63.22 1.1.22c.52 0 .91-.07 1.17-.21.18-.1.26-.23.26-.4 0-.11-.05-.21-.14-.28-.1-.07-.32-.14-.67-.2-1.61-.26-2.64-.51-3.07-.73-.6-.3-.9-.73-.9-1.27 0-.49.26-.9.78-1.23s1.32-.5 2.41-.5c1.04 0 1.8.13 2.31.38.5.25.85.62 1.04 1.11l-1.89.26c-.08-.22-.23-.39-.46-.5s-.55-.17-.97-.17c-.53 0-.9.05-1.13.16-.15.08-.23.18-.23.3 0 .11.07.2.2.27.18.1.8.24 1.87.42s1.81.4 2.23.66.63.63.63 1.11c0 .52-.29.96-.87 1.33s-1.44.56-2.57.56c-1.03 0-1.85-.16-2.45-.47-.6-.29-.99-.71-1.18-1.25z"/><path d="m137.92 211.11 1.99.25c-.26.54-.66.96-1.21 1.24s-1.25.43-2.08.43c-1.32 0-2.29-.32-2.92-.96-.5-.51-.75-1.16-.75-1.94 0-.93.33-1.66.98-2.19.66-.53 1.48-.79 2.49-.79 1.13 0 2.01.28 2.66.83s.96 1.4.93 2.54h-5.02c.01.44.18.79.48 1.03.31.25.69.37 1.15.37.31 0 .58-.06.79-.19.24-.13.4-.34.51-.62zm.12-1.51c-.01-.43-.16-.76-.45-.98s-.63-.34-1.04-.34c-.44 0-.8.12-1.08.35-.29.24-.43.56-.42.96h2.99z"/><path d="m140.95 211.29 2.01-.23c.09.29.26.51.52.66s.63.22 1.1.22c.52 0 .91-.07 1.17-.21.18-.1.26-.23.26-.4 0-.11-.05-.21-.14-.28-.1-.07-.32-.14-.67-.2-1.62-.26-2.64-.51-3.07-.73-.6-.3-.9-.73-.9-1.27 0-.49.26-.9.78-1.23s1.32-.5 2.41-.5c1.04 0 1.8.13 2.31.38.5.25.85.62 1.04 1.11l-1.89.26c-.08-.22-.23-.39-.46-.5-.22-.12-.55-.17-.96-.17-.53 0-.9.05-1.13.16-.15.08-.23.18-.23.3 0 .11.07.2.2.27.18.1.8.24 1.87.42s1.81.4 2.23.66.63.63.63 1.11c0 .52-.29.96-.87 1.33s-1.44.56-2.57.56c-1.03 0-1.85-.16-2.45-.47-.61-.29-1-.71-1.19-1.25z"/><path d="m153.24 207.27v1.19h-1.37v2.27c0 .46.01.73.04.8s.08.14.18.19c.09.05.21.07.34.07.19 0 .45-.05.8-.14l.17 1.15c-.47.15-.99.22-1.58.22-.36 0-.69-.04-.98-.13s-.5-.21-.64-.35-.23-.34-.28-.58c-.04-.17-.06-.52-.06-1.05v-2.45h-.92v-1.19h.92v-1.12l2.01-.87v1.99z"/><path d="m159.01 211.11 1.99.25c-.26.54-.66.96-1.21 1.24s-1.25.43-2.08.43c-1.31 0-2.29-.32-2.92-.96-.5-.51-.75-1.16-.75-1.94 0-.93.33-1.66.98-2.19.66-.53 1.48-.79 2.49-.79 1.13 0 2.01.28 2.66.83s.96 1.4.93 2.54h-5.02c.01.44.18.79.48 1.03.31.25.69.37 1.15.37.31 0 .58-.06.79-.19.24-.13.4-.34.51-.62zm.11-1.51c-.01-.43-.16-.76-.45-.98s-.63-.34-1.04-.34c-.44 0-.8.12-1.08.35-.29.24-.43.56-.42.96h2.99z"/><path d="m167.12 211.11 2 .25c-.26.54-.66.96-1.21 1.24s-1.25.43-2.08.43c-1.32 0-2.29-.32-2.92-.96-.5-.51-.75-1.16-.75-1.94 0-.93.33-1.66.98-2.19s1.48-.79 2.49-.79c1.13 0 2.01.28 2.67.83.65.55.96 1.4.93 2.54h-5.01c.01.44.18.79.48 1.03.31.25.69.37 1.15.37.31 0 .58-.06.79-.19s.37-.34.48-.62zm.12-1.51c-.01-.43-.16-.76-.45-.98s-.63-.34-1.04-.34c-.44 0-.8.12-1.08.35s-.42.56-.42.96h2.99z"/><path d="m177.74 212.9h-2v-2.87c0-.61-.04-1-.13-1.18-.08-.18-.22-.32-.42-.42-.19-.1-.42-.15-.69-.15-.35 0-.66.07-.93.21-.28.14-.46.33-.57.56-.1.23-.15.66-.15 1.29v2.55h-2v-5.62h1.86v.83c.66-.64 1.49-.95 2.49-.95.44 0 .85.06 1.21.18s.64.27.83.45.32.39.39.62.11.57.11 1z"/><path d="m181.18 212.9-2.39-5.62h1.95l1.42 3.69 1.3-3.69h1.93l1.26 3.69 1.45-3.69h1.97l-2.43 5.62h-1.92l-1.3-3.62-1.28 3.62z"/><path d="m195.5 211.11 1.99.25c-.26.54-.66.96-1.21 1.24s-1.25.43-2.08.43c-1.31 0-2.29-.32-2.92-.96-.5-.51-.75-1.16-.75-1.94 0-.93.33-1.66.98-2.19.66-.53 1.48-.79 2.49-.79 1.13 0 2.01.28 2.66.83s.96 1.4.93 2.54h-5.02c.01.44.18.79.48 1.03.31.25.69.37 1.15.37.31 0 .58-.06.79-.19.24-.13.4-.34.51-.62zm.11-1.51c-.01-.43-.16-.76-.45-.98s-.63-.34-1.04-.34c-.44 0-.8.12-1.08.35-.29.24-.43.56-.42.96h2.99z"/><path d="m199.05 213.27 2.29.21c.04.2.13.33.26.41.19.11.49.16.9.16.52 0 .91-.06 1.18-.17.18-.08.31-.2.4-.38.06-.12.09-.35.09-.68v-.82c-.6.61-1.35.91-2.27.91-1.02 0-1.82-.32-2.42-.96-.46-.5-.7-1.13-.7-1.89 0-.94.3-1.66.91-2.16s1.37-.75 2.28-.75c.94 0 1.71.31 2.31.92v-.79h1.87v5.05c0 .66-.07 1.16-.22 1.49s-.35.59-.62.77c-.27.19-.62.33-1.06.44-.45.11-1.01.16-1.69.16-1.28 0-2.19-.16-2.73-.49s-.8-.74-.8-1.24c.01-.06.01-.12.02-.19zm1.78-3.3c0 .6.16 1.03.47 1.31s.69.42 1.15.42c.49 0 .9-.14 1.24-.43.34-.28.51-.71.51-1.26 0-.58-.16-1.01-.48-1.3-.32-.28-.73-.42-1.23-.42-.48 0-.88.14-1.19.42-.31.27-.47.69-.47 1.26z"/><path d="m211.7 210.84 1.94-.17c.06.37.23.65.5.84s.6.29.98.29c.41 0 .76-.12 1.04-.35s.42-.55.42-.94c0-.37-.14-.67-.41-.89s-.6-.33-.99-.33c-.26 0-.56.04-.92.11l.22-1.21c.54.01.96-.08 1.24-.26s.43-.43.43-.74c0-.26-.1-.47-.31-.62-.21-.16-.49-.23-.83-.23s-.63.09-.88.26-.39.43-.44.77l-1.84-.23c.13-.47.32-.84.58-1.12s.62-.5 1.08-.66.98-.24 1.56-.24c.98 0 1.77.23 2.37.7.49.38.73.81.73 1.29 0 .68-.5 1.23-1.5 1.63.6.09 1.08.31 1.44.64s.54.73.54 1.2c0 .68-.33 1.26-1 1.74s-1.5.72-2.5.72c-.95 0-1.73-.2-2.35-.61-.64-.41-1-.94-1.1-1.59z"/><path d="m225.01 212.9h-2v-5.61c-.73.51-1.59.88-2.59 1.13v-1.35c.52-.13 1.09-.37 1.7-.72.61-.36 1.03-.77 1.26-1.24h1.62v7.79z"/><path d="m227.93 210.84 1.94-.17c.06.37.23.65.5.84s.6.29.98.29c.41 0 .76-.12 1.04-.35s.42-.55.42-.94c0-.37-.13-.67-.41-.89-.27-.22-.6-.33-.99-.33-.26 0-.56.04-.92.11l.22-1.21c.54.01.96-.08 1.24-.26.29-.19.43-.43.43-.74 0-.26-.1-.47-.31-.62-.21-.16-.49-.23-.83-.23s-.63.09-.88.26-.39.43-.44.77l-1.84-.23c.13-.47.32-.84.58-1.12s.62-.5 1.08-.66.98-.24 1.56-.24c.98 0 1.77.23 2.37.7.49.38.73.81.73 1.29 0 .68-.5 1.23-1.5 1.63.6.09 1.08.31 1.44.64s.54.73.54 1.2c0 .68-.34 1.26-1 1.74-.67.48-1.5.72-2.5.72-.95 0-1.73-.2-2.35-.61s-1-.94-1.1-1.59z"/></g><g fill="#d7bbb5"><path d="m201.66 35.3c0 8.9-4.94 11.04-11.04 11.04 9.47 0 11.04 4.94 11.04 11.04 0-9.66 4.94-11.04 11.04-11.04-9.09 0-11.04-4.95-11.04-11.04z"/><path d="m229.43 18.2c0 16.92-9.4 20.98-20.98 20.98 18.01 0 20.98 9.4 20.98 20.98 0-18.36 9.4-20.98 20.98-20.98-17.27 0-20.98-9.39-20.98-20.98z"/><path d="m216.86 46.71c0 6.78-3.77 8.41-8.41 8.41 7.22 0 8.41 3.77 8.41 8.41 0-7.36 3.77-8.41 8.41-8.41-6.92.01-8.41-3.76-8.41-8.41z"/><path d="m37.4 33.95c0 8.9-4.94 11.04-11.04 11.04 9.47 0 11.04 4.94 11.04 11.04 0-9.66 4.94-11.04 11.04-11.04-9.09 0-11.04-4.94-11.04-11.04z"/><path d="m26.07 13.73c0 11.9-6.61 14.76-14.76 14.76 12.67 0 14.76 6.61 14.76 14.76 0-12.92 6.61-14.76 14.76-14.76-12.14 0-14.76-6.61-14.76-14.76z"/><path d="m101.08 76.52c0 8.9-4.94 11.04-11.04 11.04 9.47 0 11.04 4.94 11.04 11.04 0-9.66 4.94-11.04 11.04-11.04-9.09 0-11.04-4.94-11.04-11.04z"/><path d="m112.03 107.7c0 7.26-4.03 9.01-9.01 9.01 7.73 0 9.01 4.03 9.01 9.01 0-7.88 4.03-9.01 9.01-9.01-7.42 0-9.01-4.03-9.01-9.01z"/><path d="m146.5 72.79c0 8.9-4.94 11.04-11.04 11.04 9.47 0 11.04 4.94 11.04 11.04 0-9.66 4.94-11.04 11.04-11.04-9.09 0-11.04-4.94-11.04-11.04z"/><path d="m156.47 136.05c0 8.04-4.46 9.97-9.97 9.97 8.56 0 9.97 4.46 9.97 9.97 0-8.72 4.46-9.97 9.97-9.97-8.21-.01-9.97-4.47-9.97-9.97z"/><path d="m148.47 117.92c0 10.49-5.83 13.01-13.01 13.01 11.17 0 13.01 5.83 13.01 13.01 0-11.39 5.83-13.01 13.01-13.01-10.7.01-13.01-5.82-13.01-13.01z"/><path d="m18.92 127.29c0 8.54-4.74 10.6-10.6 10.6 9.09 0 10.6 4.74 10.6 10.6 0-9.27 4.74-10.6 10.6-10.6-8.72 0-10.6-4.75-10.6-10.6z"/><path d="m19.02 42.58c0 6.78-3.77 8.41-8.41 8.41 7.22 0 8.41 3.77 8.41 8.41 0-7.36 3.77-8.41 8.41-8.41-6.92 0-8.41-3.77-8.41-8.41z"/><g enable-background="new"><path d="m59.44 404.94v-10.28h2.49v4.04h4.88v-4.04h2.49v10.28h-2.49v-4.49h-4.88v4.49z"/><path d="m71.8 404.94v-10.28h2.49v10.28z"/><path d="m76.66 404.94v-10.28h9.14v1.74h-6.65v2.28h6.19v1.73h-6.19v2.8h6.89v1.73z"/><path d="m88.16 404.94v-10.28h5.24c1.32 0 2.27.09 2.87.28s1.08.51 1.43.98.54 1.01.54 1.62c0 .77-.27 1.41-.82 1.91-.54.5-1.36.82-2.44.95.54.26.98.55 1.33.86s.82.87 1.42 1.67l1.51 2h-2.98l-1.8-2.24c-.64-.8-1.08-1.3-1.31-1.51s-.48-.35-.75-.43c-.26-.08-.68-.12-1.25-.12h-.5v4.29h-2.49zm2.49-5.93h1.84c1.19 0 1.94-.04 2.24-.13s.53-.23.7-.43c.17-.21.25-.46.25-.77 0-.35-.11-.62-.33-.84-.22-.21-.53-.35-.94-.4-.2-.02-.81-.04-1.82-.04h-1.94z"/><path d="m105.38 404.94v-10.28h5.24c1.32 0 2.27.09 2.87.28s1.08.51 1.43.98.54 1.01.54 1.62c0 .77-.27 1.41-.82 1.91-.54.5-1.36.82-2.44.95.54.26.98.55 1.33.86s.82.87 1.42 1.67l1.51 2h-2.98l-1.8-2.24c-.64-.8-1.08-1.3-1.31-1.51s-.48-.35-.75-.43c-.26-.08-.68-.12-1.25-.12h-.5v4.29h-2.49zm2.49-5.93h1.84c1.19 0 1.94-.04 2.24-.13s.53-.23.7-.43c.17-.21.25-.46.25-.77 0-.35-.11-.62-.33-.84-.22-.21-.53-.35-.94-.4-.2-.02-.81-.04-1.82-.04h-1.94z"/><path d="m117.81 404.94v-10.28h9.14v1.74h-6.65v2.28h6.19v1.73h-6.19v2.8h6.89v1.73z"/><path d="m135.04 401.16v-1.73h5.37v4.09c-.52.42-1.28.79-2.27 1.11s-1.99.48-3.01.48c-1.29 0-2.41-.22-3.37-.68-.96-.45-1.68-1.1-2.16-1.93-.48-.84-.72-1.75-.72-2.74 0-1.07.27-2.02.81-2.85s1.33-1.47 2.36-1.91c.79-.34 1.77-.51 2.95-.51 1.53 0 2.73.27 3.59.8.86.54 1.41 1.28 1.66 2.22l-2.47.39c-.17-.5-.5-.9-.98-1.2s-1.08-.44-1.8-.44c-1.09 0-1.95.29-2.6.86-.64.58-.96 1.43-.96 2.56 0 1.22.33 2.13.98 2.75.65.61 1.5.91 2.56.91.52 0 1.04-.08 1.57-.26.52-.17.97-.38 1.35-.62v-1.3z"/><path d="m142.63 404.94v-10.28h2.49v10.28z"/><path d="m146.86 401.59 2.42-.2c.14.68.44 1.18.89 1.49s1.05.48 1.8.48c.8 0 1.41-.14 1.81-.42.41-.28.61-.61.61-.99 0-.24-.09-.45-.26-.62s-.47-.32-.9-.45c-.29-.08-.96-.23-1.99-.45-1.33-.28-2.27-.62-2.81-1.02-.76-.57-1.13-1.25-1.13-2.07 0-.52.18-1.01.53-1.47.36-.46.87-.8 1.54-1.04s1.48-.36 2.43-.36c1.55 0 2.71.28 3.49.85s1.19 1.32 1.23 2.26l-2.49.09c-.11-.53-.33-.91-.69-1.14-.35-.23-.88-.35-1.58-.35-.72 0-1.29.12-1.7.37-.26.16-.4.37-.4.64 0 .24.12.45.37.62.31.22 1.08.45 2.29.69s2.11.49 2.69.74 1.04.6 1.36 1.04.49.99.49 1.64c0 .59-.2 1.14-.59 1.65s-.95.9-1.67 1.15-1.61.38-2.68.38c-1.56 0-2.76-.3-3.59-.9s-1.31-1.46-1.47-2.61z"/><path d="m161.75 404.94v-8.54h-3.66v-1.74h9.8v1.74h-3.65v8.54z"/><path d="m169.51 404.94v-10.28h5.24c1.32 0 2.27.09 2.87.28.6.18 1.08.51 1.43.98s.54 1.01.54 1.62c0 .77-.27 1.41-.82 1.91-.54.5-1.36.82-2.44.95.54.26.98.55 1.33.86s.82.87 1.42 1.67l1.51 2h-2.98l-1.8-2.24c-.64-.8-1.08-1.3-1.31-1.51-.24-.21-.49-.35-.75-.43s-.68-.12-1.25-.12h-.5v4.29h-2.49zm2.49-5.93h1.84c1.19 0 1.94-.04 2.24-.13s.53-.23.7-.43c.17-.21.25-.46.25-.77 0-.35-.11-.62-.33-.84s-.53-.35-.94-.4c-.2-.02-.81-.04-1.82-.04h-1.94z"/><path d="m181.94 404.94v-10.28h9.14v1.74h-6.65v2.28h6.19v1.73h-6.19v2.8h6.89v1.73z"/><path d="m193.44 404.94v-10.28h5.24c1.32 0 2.27.09 2.87.28.6.18 1.08.51 1.43.98s.54 1.01.54 1.62c0 .77-.27 1.41-.82 1.91-.54.5-1.36.82-2.44.95.54.26.98.55 1.33.86s.82.87 1.42 1.67l1.51 2h-2.98l-1.8-2.24c-.64-.8-1.08-1.3-1.31-1.51-.24-.21-.49-.35-.75-.43s-.68-.12-1.25-.12h-.5v4.29h-2.49zm2.49-5.93h1.84c1.19 0 1.94-.04 2.24-.13s.53-.23.7-.43c.17-.21.25-.46.25-.77 0-.35-.11-.62-.33-.84s-.53-.35-.94-.4c-.2-.02-.81-.04-1.82-.04h-1.94z"/><path d="m205.87 404.94v-10.28h9.14v1.74h-6.65v2.28h6.19v1.73h-6.19v2.8h6.89v1.73z"/><path d="m217.38 404.94v-10.28h2.42l5.05 6.86v-6.86h2.31v10.28h-2.5l-4.97-6.7v6.7z"/></g></g><path d="m16.81 388.75h249.28v21.35h-249.28z" fill="none" stroke="#796986" stroke-miterlimit="10" stroke-width="3.175"/><g enable-background="new" fill="#7e6a75"><path d="m13.84 249.82h3.63c.82 0 1.44.05 1.87.16.58.14 1.07.39 1.48.76.41.36.73.8.94 1.33s.32 1.17.32 1.94c0 .67-.1 1.26-.3 1.75-.25.6-.6 1.08-1.05 1.45-.34.28-.81.5-1.4.65-.44.12-1.03.17-1.76.17h-3.74v-8.21zm1.99 1.39v5.43h1.48c.56 0 .96-.03 1.2-.08.32-.07.59-.18.8-.34s.39-.42.52-.79.2-.87.2-1.5-.07-1.12-.2-1.46-.32-.6-.56-.79-.55-.32-.92-.39c-.28-.05-.82-.08-1.63-.08z"/><path d="m27.33 249.82h1.98v5.19c0 .68-.07 1.2-.21 1.57-.19.48-.54.86-1.05 1.15s-1.17.43-2 .43c-.97 0-1.72-.23-2.24-.68s-.79-1.12-.79-2l1.87-.18c.02.47.11.8.25 1 .21.29.54.44.98.44s.76-.1.94-.32.28-.65.28-1.31v-5.29z"/><path d="m31.37 249.84h1.89v1.12c0 .46-.05.81-.14 1.08-.09.26-.27.5-.53.71s-.59.37-1 .49l-.37-.65c.38-.1.65-.25.81-.43s.25-.43.26-.75h-.91v-1.57z"/><path d="m34.06 256.33 1.89-.24c.08.31.24.54.49.7s.59.24 1.03.24c.49 0 .85-.07 1.1-.22.17-.1.25-.24.25-.42 0-.12-.04-.22-.13-.3-.09-.07-.3-.14-.63-.21-1.52-.28-2.49-.54-2.89-.77-.56-.32-.85-.77-.85-1.34 0-.52.24-.95.73-1.3s1.24-.53 2.27-.53c.98 0 1.7.13 2.18.4.47.27.8.66.98 1.18l-1.78.27c-.08-.23-.22-.41-.43-.53s-.52-.18-.91-.18c-.5 0-.85.06-1.07.17-.14.08-.21.19-.21.32 0 .11.06.21.19.29.17.1.76.25 1.76.44s1.71.42 2.1.7.59.67.59 1.17c0 .54-.27 1.01-.82 1.41-.55.39-1.35.59-2.42.59-.97 0-1.74-.17-2.31-.49s-.94-.79-1.11-1.35z"/></g></svg>