<svg viewBox="0 0 281 199" fill="none" xmlns="http://www.w3.org/2000/svg">
<path d="M16.1 136H17.2V135.4C17.2 134.7 17.3 134.3 17.4 133.9C17.5 133.6 17.8 133.3 18.2 133.1C18.6 132.9 19 132.8 19.6 132.8C20.2 132.8 20.7 132.9 21.3 133.1L21 134.5C20.7 134.4 20.4 134.4 20.1 134.4C19.8 134.4 19.6 134.5 19.5 134.6C19.4 134.7 19.3 135 19.3 135.4V136H20.8V137.6H19.3V143.8H17.3V137.6H16.2V136H16.1Z" fill="#7E6B76"/>
<path d="M26.3 141.3L28.3 141.6C28 142.4 27.6 142.9 27.1 143.3C26.5 143.7 25.8 143.9 25 143.9C23.7 143.9 22.7 143.5 22 142.6C21.5 141.9 21.2 141 21.2 139.9C21.2 138.6 21.5 137.6 22.2 136.9C22.9 136.2 23.7 135.8 24.7 135.8C25.8 135.8 26.7 136.2 27.4 137C28.1 137.8 28.4 138.9 28.3 140.5H23.2C23.2 141.1 23.4 141.6 23.7 141.9C24 142.2 24.4 142.4 24.9 142.4C25.2 142.4 25.5 142.3 25.7 142.1C26.1 142 26.2 141.7 26.3 141.3ZM26.4 139.2C26.4 138.6 26.2 138.1 25.9 137.8C25.6 137.5 25.3 137.3 24.8 137.3C24.4 137.3 24 137.5 23.7 137.8C23.4 138.1 23.3 138.6 23.3 139.1H26.4V139.2Z" fill="#7E6B76"/>
<path d="M34.6 141.3L36.6 141.6C36.3 142.4 35.9 142.9 35.4 143.3C34.8 143.7 34.1 143.9 33.3 143.9C32 143.9 31 143.5 30.3 142.6C29.8 141.9 29.5 141 29.5 139.9C29.5 138.6 29.8 137.6 30.5 136.9C31.2 136.2 32 135.8 33 135.8C34.1 135.8 35 136.2 35.7 137C36.4 137.8 36.7 138.9 36.6 140.5H31.5C31.5 141.1 31.7 141.6 32 141.9C32.3 142.2 32.7 142.4 33.2 142.4C33.5 142.4 33.8 142.3 34 142.1C34.3 142 34.5 141.7 34.6 141.3ZM34.7 139.2C34.7 138.6 34.5 138.1 34.2 137.8C33.9 137.5 33.6 137.3 33.1 137.3C32.7 137.3 32.3 137.5 32 137.8C31.7 138.1 31.6 138.6 31.6 139.1H34.7V139.2Z" fill="#7E6B76"/>
<path d="M37.6 141.6L39.6 141.3C39.7 141.7 39.9 142 40.1 142.2C40.4 142.4 40.7 142.5 41.2 142.5C41.7 142.5 42.1 142.4 42.4 142.2C42.6 142.1 42.7 141.9 42.7 141.6C42.7 141.4 42.7 141.3 42.6 141.2C42.5 141.1 42.3 141 41.9 140.9C40.3 140.5 39.2 140.2 38.8 139.9C38.2 139.5 37.9 138.9 37.9 138.1C37.9 137.4 38.2 136.9 38.7 136.4C39.2 135.9 40 135.7 41.1 135.7C42.2 135.7 42.9 135.9 43.4 136.2C43.9 136.5 44.3 137.1 44.5 137.7L42.6 138.1C42.5 137.8 42.4 137.6 42.1 137.4C41.9 137.2 41.5 137.2 41.1 137.2C40.6 137.2 40.2 137.3 39.9 137.4C39.7 137.5 39.7 137.6 39.7 137.8C39.7 137.9 39.8 138.1 39.9 138.2C40.1 138.3 40.7 138.5 41.8 138.8C42.9 139.1 43.6 139.4 44.1 139.7C44.5 140.1 44.7 140.6 44.7 141.2C44.7 141.9 44.4 142.5 43.8 143C43.2 143.5 42.3 143.8 41.2 143.8C40.2 143.8 39.3 143.6 38.7 143.2C38.1 142.8 37.8 142.3 37.6 141.6Z" fill="#7E6B76"/>
<path d="M50.1 136V137.6H48.7V140.7C48.7 141.3 48.7 141.7 48.7 141.8C48.7 141.9 48.8 142 48.9 142.1C49 142.2 49.1 142.2 49.2 142.2C49.4 142.2 49.7 142.1 50 142L50.2 143.6C49.7 143.8 49.2 143.9 48.6 143.9C48.2 143.9 47.9 143.8 47.6 143.7C47.3 143.6 47.1 143.4 47 143.2C46.9 143 46.8 142.7 46.7 142.4C46.7 142.2 46.6 141.7 46.6 140.9V137.5H45.7V136H46.6V134.4L48.6 133.2V136H50.1Z" fill="#7E6B76"/>
<path d="M55.1 136V137.6H53.7V140.7C53.7 141.3 53.7 141.7 53.7 141.8C53.7 141.9 53.8 142 53.9 142.1C54 142.2 54.1 142.2 54.2 142.2C54.4 142.2 54.7 142.1 55 142L55.2 143.6C54.7 143.8 54.2 143.9 53.6 143.9C53.2 143.9 52.9 143.8 52.6 143.7C52.3 143.6 52.1 143.4 52 143.2C51.9 143 51.8 142.7 51.7 142.4C51.7 142.2 51.6 141.7 51.6 140.9V137.5H50.7V136H51.6V134.4L53.6 133.2V136H55.1Z" fill="#7E6B76"/>
<path d="M60.9 141.3L62.9 141.6C62.6 142.4 62.2 142.9 61.7 143.3C61.1 143.7 60.4 143.9 59.6 143.9C58.3 143.9 57.3 143.5 56.6 142.6C56.1 141.9 55.8 141 55.8 139.9C55.8 138.6 56.1 137.6 56.8 136.9C57.5 136.2 58.3 135.8 59.3 135.8C60.4 135.8 61.3 136.2 62 137C62.7 137.8 63 138.9 62.9 140.5H58C58 141.1 58.2 141.6 58.5 141.9C58.8 142.2 59.2 142.4 59.7 142.4C60 142.4 60.3 142.3 60.5 142.1C60.7 142 60.8 141.7 60.9 141.3ZM61 139.2C61 138.6 60.8 138.1 60.5 137.8C60.2 137.5 59.9 137.3 59.4 137.3C59 137.3 58.6 137.5 58.3 137.8C58 138.1 57.9 138.6 57.9 139.1H61V139.2Z" fill="#7E6B76"/>
<path d="M71.7 143.8H69.7V139.8C69.7 139 69.7 138.4 69.6 138.2C69.5 138 69.4 137.8 69.2 137.6C69 137.5 68.8 137.4 68.5 137.4C68.1 137.4 67.8 137.5 67.6 137.7C67.3 137.9 67.1 138.2 67 138.5C66.9 138.8 66.8 139.4 66.8 140.3V143.8H64.8V136H66.7V137.1C67.4 136.2 68.2 135.8 69.2 135.8C69.6 135.8 70.1 135.9 70.4 136C70.8 136.2 71.1 136.4 71.2 136.6C71.3 136.8 71.5 137.1 71.6 137.5C71.7 137.8 71.7 138.3 71.7 138.9V143.8Z" fill="#7E6B76"/>
<path d="M77.3 136V137.6H75.9V140.7C75.9 141.3 75.9 141.7 75.9 141.8C75.9 141.9 76 142 76.1 142.1C76.2 142.2 76.3 142.2 76.4 142.2C76.6 142.2 76.9 142.1 77.2 142L77.4 143.6C76.9 143.8 76.4 143.9 75.8 143.9C75.4 143.9 75.1 143.8 74.8 143.7C74.5 143.6 74.3 143.4 74.2 143.2C74.1 143 74 142.7 73.9 142.4C73.9 142.2 73.8 141.7 73.8 140.9V137.5H72.9V136H73.8V134.4L75.8 133.2V136H77.3Z" fill="#7E6B76"/>
<path d="M82.7 143.8V133H84.7V136.9C85.3 136.2 86.1 135.8 86.9 135.8C87.8 135.8 88.6 136.1 89.2 136.8C89.8 137.5 90.1 138.5 90.1 139.8C90.1 141.1 89.8 142.2 89.2 142.9C88.6 143.6 87.8 144 86.9 144C86.5 144 86 143.9 85.6 143.7C85.2 143.5 84.8 143.1 84.5 142.7V143.8H82.7ZM84.8 139.7C84.8 140.5 84.9 141.1 85.2 141.5C85.6 142 86 142.3 86.6 142.3C87 142.3 87.4 142.1 87.7 141.7C88 141.3 88.2 140.7 88.2 139.9C88.2 139 88 138.4 87.7 138C87.4 137.6 87 137.4 86.5 137.4C86 137.4 85.6 137.6 85.3 138C84.9 138.3 84.8 138.9 84.8 139.7Z" fill="#7E6B76"/>
<path d="M93.4 138.4L91.6 138.1C91.8 137.3 92.2 136.8 92.7 136.4C93.2 136 94 135.9 95 135.9C95.9 135.9 96.6 136 97 136.2C97.4 136.4 97.8 136.7 97.9 137C98.1 137.3 98.2 138 98.2 138.9V141.3C98.2 142 98.2 142.5 98.3 142.8C98.4 143.1 98.5 143.5 98.7 143.8H96.7C96.6 143.7 96.6 143.5 96.5 143.2C96.5 143.1 96.4 143 96.4 143C96.1 143.3 95.7 143.6 95.3 143.8C94.9 144 94.5 144.1 94 144.1C93.2 144.1 92.6 143.9 92.1 143.4C91.6 142.9 91.4 142.4 91.4 141.7C91.4 141.3 91.5 140.9 91.7 140.5C91.9 140.2 92.2 139.9 92.6 139.7C93 139.5 93.5 139.4 94.2 139.2C95.2 139 95.8 138.8 96.2 138.7V138.5C96.2 138.1 96.1 137.8 95.9 137.7C95.7 137.5 95.3 137.4 94.8 137.4C94.4 137.4 94.2 137.5 94 137.6C93.7 137.7 93.5 138 93.4 138.4ZM96.1 140C95.8 140.1 95.4 140.2 94.9 140.3C94.4 140.4 94 140.5 93.8 140.7C93.5 140.9 93.4 141.1 93.4 141.4C93.4 141.7 93.5 141.9 93.7 142.2C93.9 142.5 94.2 142.5 94.5 142.5C94.9 142.5 95.2 142.4 95.5 142.1C95.7 141.9 95.9 141.7 96 141.4C96.1 141.2 96.1 140.9 96.1 140.4V140V140Z" fill="#7E6B76"/>
<path d="M102.1 143.8H100.1V136H102V137.1C102.3 136.6 102.6 136.2 102.9 136.1C103.2 135.9 103.5 135.8 103.8 135.8C104.3 135.8 104.7 135.9 105.1 136.2L104.5 138C104.2 137.8 103.8 137.7 103.5 137.7C103.2 137.7 103 137.8 102.8 137.9C102.6 138.1 102.4 138.3 102.3 138.8C102.2 139.3 102.1 140.1 102.1 141.4V143.8V143.8Z" fill="#7E6B76"/>
<path d="M114.5 141.3L116.5 141.6C116.2 142.4 115.8 142.9 115.3 143.3C114.7 143.7 114 143.9 113.2 143.9C111.9 143.9 110.9 143.5 110.2 142.6C109.7 141.9 109.4 141 109.4 139.9C109.4 138.6 109.7 137.6 110.4 136.9C111.1 136.2 111.9 135.8 112.9 135.8C114 135.8 114.9 136.2 115.6 137C116.3 137.8 116.6 138.9 116.5 140.5H111.4C111.4 141.1 111.6 141.6 111.9 141.9C112.2 142.2 112.6 142.4 113.1 142.4C113.4 142.4 113.7 142.3 113.9 142.1C114.2 142 114.3 141.7 114.5 141.3ZM114.6 139.2C114.6 138.6 114.4 138.1 114.1 137.8C113.8 137.5 113.5 137.3 113 137.3C112.6 137.3 112.2 137.5 111.9 137.8C111.6 138.1 111.5 138.6 111.5 139.1H114.6V139.2Z" fill="#7E6B76"/>
<path d="M122.7 141.3L124.7 141.6C124.4 142.4 124 142.9 123.5 143.3C122.9 143.7 122.2 143.9 121.4 143.9C120.1 143.9 119.1 143.5 118.4 142.6C117.9 141.9 117.6 141 117.6 139.9C117.6 138.6 117.9 137.6 118.6 136.9C119.3 136.2 120.1 135.8 121.1 135.8C122.2 135.8 123.1 136.2 123.8 137C124.5 137.8 124.8 138.9 124.7 140.5H119.6C119.6 141.1 119.8 141.6 120.1 141.9C120.4 142.2 120.8 142.4 121.3 142.4C121.6 142.4 121.9 142.3 122.1 142.1C122.4 142 122.6 141.7 122.7 141.3ZM122.8 139.2C122.8 138.6 122.6 138.1 122.3 137.8C122 137.5 121.7 137.3 121.2 137.3C120.8 137.3 120.4 137.5 120.1 137.8C119.8 138.1 119.7 138.6 119.7 139.1H122.8V139.2Z" fill="#7E6B76"/>
<path d="M130 136V137.6H128.6V140.7C128.6 141.3 128.6 141.7 128.6 141.8C128.6 141.9 128.7 142 128.8 142.1C128.9 142.2 129 142.2 129.1 142.2C129.3 142.2 129.6 142.1 129.9 142L130.1 143.6C129.6 143.8 129.1 143.9 128.5 143.9C128.1 143.9 127.8 143.8 127.5 143.7C127.2 143.6 127 143.4 126.9 143.2C126.8 143 126.7 142.7 126.6 142.4C126.6 142.2 126.5 141.7 126.5 140.9V137.5H125.6V136H126.5V134.4L128.5 133.2V136H130Z" fill="#7E6B76"/>
<path d="M130.7 141.6L132.7 141.3C132.8 141.7 133 142 133.2 142.2C133.5 142.4 133.8 142.5 134.3 142.5C134.8 142.5 135.2 142.4 135.5 142.2C135.7 142.1 135.8 141.9 135.8 141.6C135.8 141.4 135.8 141.3 135.7 141.2C135.6 141.1 135.4 141 135 140.9C133.4 140.5 132.3 140.2 131.9 139.9C131.3 139.5 131 138.9 131 138.1C131 137.4 131.3 136.9 131.8 136.4C132.3 135.9 133.1 135.7 134.2 135.7C135.3 135.7 136 135.9 136.5 136.2C137 136.5 137.4 137.1 137.6 137.7L135.7 138.1C135.6 137.8 135.5 137.6 135.2 137.4C135 137.2 134.6 137.2 134.2 137.2C133.7 137.2 133.3 137.3 133 137.4C132.8 137.5 132.8 137.6 132.8 137.8C132.8 137.9 132.9 138.1 133 138.2C133.2 138.3 133.8 138.5 134.9 138.8C136 139.1 136.7 139.4 137.2 139.7C137.6 140.1 137.8 140.6 137.8 141.2C137.8 141.9 137.5 142.5 136.9 143C136.3 143.5 135.4 143.8 134.3 143.8C133.3 143.8 132.4 143.6 131.8 143.2C131.2 142.8 130.9 142.3 130.7 141.6Z" fill="#7E6B76"/>
<path d="M143.2 136V137.6H141.8V140.7C141.8 141.3 141.8 141.7 141.8 141.8C141.8 141.9 141.9 142 142 142.1C142.1 142.2 142.2 142.2 142.3 142.2C142.5 142.2 142.8 142.1 143.1 142L143.3 143.6C142.8 143.8 142.3 143.9 141.7 143.9C141.3 143.9 141 143.8 140.7 143.7C140.4 143.6 140.2 143.4 140.1 143.2C140 143 139.9 142.7 139.8 142.4C139.8 142.2 139.7 141.7 139.7 140.9V137.5H138.8V136H139.7V134.4L141.7 133.2V136H143.2Z" fill="#7E6B76"/>
<path d="M146.1 138.4L144.3 138.1C144.5 137.3 144.9 136.8 145.4 136.4C145.9 136 146.7 135.9 147.7 135.9C148.6 135.9 149.3 136 149.7 136.2C150.1 136.4 150.5 136.7 150.6 137C150.8 137.3 150.9 138 150.9 138.9V141.3C150.9 142 150.9 142.5 151 142.8C151.1 143.1 151.2 143.5 151.4 143.8H149.4C149.3 143.7 149.3 143.5 149.2 143.2C149.2 143.1 149.1 143 149.1 143C148.8 143.3 148.4 143.6 148 143.8C147.6 144 147.2 144.1 146.7 144.1C145.9 144.1 145.3 143.9 144.8 143.4C144.3 142.9 144.1 142.4 144.1 141.7C144.1 141.3 144.2 140.9 144.4 140.5C144.6 140.2 144.9 139.9 145.3 139.7C145.7 139.5 146.2 139.4 146.9 139.2C147.9 139 148.5 138.8 148.9 138.7V138.5C148.9 138.1 148.8 137.8 148.6 137.7C148.4 137.5 148 137.4 147.5 137.4C147.1 137.4 146.9 137.5 146.7 137.6C146.4 137.7 146.2 138 146.1 138.4ZM148.8 140C148.5 140.1 148.1 140.2 147.6 140.3C147.1 140.4 146.7 140.5 146.5 140.7C146.2 140.9 146.1 141.1 146.1 141.4C146.1 141.7 146.2 141.9 146.4 142.2C146.6 142.5 146.9 142.5 147.2 142.5C147.6 142.5 147.9 142.4 148.2 142.1C148.4 141.9 148.6 141.7 148.7 141.4C148.8 141.2 148.8 140.9 148.8 140.4V140V140Z" fill="#7E6B76"/>
<path d="M159.8 143.8H157.8V139.8C157.8 139 157.8 138.4 157.7 138.2C157.6 138 157.5 137.8 157.3 137.6C157.1 137.5 156.9 137.4 156.6 137.4C156.2 137.4 155.9 137.5 155.7 137.7C155.4 137.9 155.2 138.2 155.1 138.5C155 138.8 154.9 139.4 154.9 140.3V143.8H152.9V136H154.8V137.1C155.5 136.2 156.3 135.8 157.3 135.8C157.7 135.8 158.2 135.9 158.5 136C158.9 136.2 159.2 136.4 159.3 136.6C159.4 136.8 159.6 137.1 159.7 137.5C159.8 137.8 159.8 138.3 159.8 138.9V143.8V143.8Z" fill="#7E6B76"/>
<path d="M168.9 143.8H167V142.7C166.7 143.1 166.3 143.5 165.9 143.7C165.5 143.9 165 144 164.6 144C163.7 144 163 143.6 162.3 142.9C161.7 142.2 161.4 141.2 161.4 139.9C161.4 138.6 161.7 137.6 162.3 136.9C162.9 136.2 163.7 135.9 164.6 135.9C165.5 135.9 166.2 136.3 166.8 137V133H168.8V143.8H168.9ZM163.5 139.7C163.5 140.5 163.6 141.1 163.8 141.5C164.1 142 164.6 142.3 165.2 142.3C165.7 142.3 166.1 142.1 166.4 141.7C166.7 141.3 166.9 140.7 166.9 139.9C166.9 139 166.7 138.4 166.4 138C166.1 137.6 165.7 137.4 165.2 137.4C164.7 137.4 164.3 137.6 164 138C163.7 138.4 163.5 138.9 163.5 139.7Z" fill="#7E6B76"/>
<path d="M172.9 136V143.6C172.9 144.6 172.8 145.3 172.7 145.7C172.6 146.1 172.3 146.4 172 146.7C171.6 146.9 171.2 147 170.6 147C170.4 147 170.2 147 169.9 146.9C169.7 146.9 169.4 146.8 169.1 146.7L169.5 144.9C169.6 144.9 169.7 144.9 169.8 144.9C169.9 144.9 170 144.9 170 144.9C170.2 144.9 170.4 144.9 170.5 144.8C170.6 144.7 170.7 144.6 170.8 144.5C170.8 144.4 170.9 144 170.9 143.4V136H172.9ZM170.9 134.9V133H172.9V134.9H170.9Z" fill="#7E6B76"/>
<path d="M179.5 141.3L181.5 141.6C181.2 142.4 180.8 142.9 180.3 143.3C179.7 143.7 179 143.9 178.2 143.9C176.9 143.9 175.9 143.5 175.2 142.6C174.7 141.9 174.4 141 174.4 139.9C174.4 138.6 174.7 137.6 175.4 136.9C176.1 136.2 176.9 135.8 177.9 135.8C179 135.8 179.9 136.2 180.6 137C181.3 137.8 181.6 138.9 181.5 140.5H176.4C176.4 141.1 176.6 141.6 176.9 141.9C177.2 142.2 177.6 142.4 178.1 142.4C178.4 142.4 178.7 142.3 178.9 142.1C179.2 142 179.4 141.7 179.5 141.3ZM179.6 139.2C179.6 138.6 179.4 138.1 179.1 137.8C178.8 137.5 178.5 137.3 178 137.3C177.6 137.3 177.2 137.5 176.9 137.8C176.6 138.1 176.5 138.6 176.5 139.1H179.6V139.2Z" fill="#7E6B76"/>
<path d="M182.6 141.6L184.6 141.3C184.7 141.7 184.9 142 185.1 142.2C185.4 142.4 185.7 142.5 186.2 142.5C186.7 142.5 187.1 142.4 187.4 142.2C187.6 142.1 187.7 141.9 187.7 141.6C187.7 141.4 187.7 141.3 187.6 141.2C187.5 141.1 187.3 141 186.9 140.9C185.3 140.5 184.2 140.2 183.8 139.9C183.2 139.5 182.9 138.9 182.9 138.1C182.9 137.4 183.2 136.9 183.7 136.4C184.2 135.9 185 135.7 186.1 135.7C187.2 135.7 187.9 135.9 188.4 136.2C188.9 136.5 189.3 137.1 189.5 137.7L187.6 138.1C187.5 137.8 187.4 137.6 187.1 137.4C186.9 137.2 186.5 137.2 186.1 137.2C185.6 137.2 185.2 137.3 184.9 137.4C184.7 137.5 184.7 137.6 184.7 137.8C184.7 137.9 184.8 138.1 184.9 138.2C185.1 138.3 185.7 138.5 186.8 138.8C187.9 139.1 188.6 139.4 189.1 139.7C189.5 140.1 189.7 140.6 189.7 141.2C189.7 141.9 189.4 142.5 188.8 143C188.2 143.5 187.3 143.8 186.2 143.8C185.2 143.8 184.3 143.6 183.7 143.2C183.1 142.8 182.8 142.3 182.6 141.6Z" fill="#7E6B76"/>
<path d="M194.8 136H195.9V135.4C195.9 134.7 196 134.3 196.1 133.9C196.2 133.6 196.5 133.3 196.9 133.1C197.3 132.9 197.7 132.8 198.3 132.8C198.9 132.8 199.4 132.9 200 133.1L199.7 134.5C199.4 134.4 199.1 134.4 198.8 134.4C198.5 134.4 198.3 134.5 198.2 134.6C198.1 134.7 198 135 198 135.4V136H199.5V137.6H198V143.8H196V137.6H194.9V136H194.8Z" fill="#7E6B76"/>
<path d="M202.5 143.8H200.5V136H202.4V137.1C202.7 136.6 203 136.2 203.3 136.1C203.6 135.9 203.9 135.8 204.2 135.8C204.7 135.8 205.1 135.9 205.5 136.2L204.9 138C204.6 137.8 204.2 137.7 203.9 137.7C203.6 137.7 203.4 137.8 203.2 137.9C203 138.1 202.8 138.3 202.7 138.8C202.6 139.3 202.5 140.1 202.5 141.4V143.8V143.8Z" fill="#7E6B76"/>
<path d="M206.4 134.9V133H208.4V134.9H206.4ZM206.4 143.8V136H208.4V143.8H206.4Z" fill="#7E6B76"/>
<path d="M214.9 141.3L216.9 141.6C216.6 142.4 216.2 142.9 215.7 143.3C215.1 143.7 214.4 143.9 213.6 143.9C212.3 143.9 211.3 143.5 210.6 142.6C210.1 141.9 209.8 141 209.8 139.9C209.8 138.6 210.1 137.6 210.8 136.9C211.5 136.2 212.3 135.8 213.3 135.8C214.4 135.8 215.3 136.2 216 137C216.7 137.8 217 138.9 216.9 140.5H212C212 141.1 212.2 141.6 212.5 141.9C212.8 142.2 213.2 142.4 213.7 142.4C214 142.4 214.3 142.3 214.5 142.1C214.7 142 214.8 141.7 214.9 141.3ZM215.1 139.2C215.1 138.6 214.9 138.1 214.6 137.8C214.3 137.5 214 137.3 213.5 137.3C213.1 137.3 212.7 137.5 212.4 137.8C212.1 138.1 212 138.6 212 139.1H215.1V139.2Z" fill="#7E6B76"/>
<path d="M222.3 136V137.6H220.9V140.7C220.9 141.3 220.9 141.7 220.9 141.8C220.9 141.9 221 142 221.1 142.1C221.2 142.2 221.3 142.2 221.4 142.2C221.6 142.2 221.9 142.1 222.2 142L222.4 143.6C221.9 143.8 221.4 143.9 220.8 143.9C220.4 143.9 220.1 143.8 219.8 143.7C219.5 143.6 219.3 143.4 219.2 143.2C219.1 143 219 142.7 218.9 142.4C218.9 142.2 218.8 141.7 218.8 140.9V137.5H217.9V136H218.8V134.4L220.8 133.2V136H222.3Z" fill="#7E6B76"/>
<path d="M223.6 143.8V133H225.6V138.7L228 135.9H230.5L227.9 138.8L230.7 143.8H228.5L226.6 140.3L225.7 141.3V143.8H223.6V143.8Z" fill="#7E6B76"/>
<path d="M233.9 143.8H231.9V136H233.8V137.1C234.1 136.6 234.4 136.2 234.7 136.1C235 135.9 235.3 135.8 235.6 135.8C236.1 135.8 236.5 135.9 236.9 136.2L236.3 138C236 137.8 235.6 137.7 235.3 137.7C235 137.7 234.8 137.8 234.6 137.9C234.4 138.1 234.2 138.3 234.1 138.8C234 139.3 233.9 140.1 233.9 141.4V143.8V143.8Z" fill="#7E6B76"/>
<path d="M239.2 138.4L237.4 138.1C237.6 137.3 238 136.8 238.5 136.4C239 136 239.8 135.9 240.8 135.9C241.7 135.9 242.4 136 242.8 136.2C243.2 136.4 243.6 136.7 243.7 137C243.9 137.3 244 138 244 138.9V141.3C244 142 244 142.5 244.1 142.8C244.2 143.1 244.3 143.5 244.5 143.8H242.5C242.4 143.7 242.4 143.5 242.3 143.2C242.3 143.1 242.2 143 242.2 143C241.9 143.3 241.5 143.6 241.1 143.8C240.7 144 240.3 144.1 239.8 144.1C239 144.1 238.4 143.9 237.9 143.4C237.4 142.9 237.2 142.4 237.2 141.7C237.2 141.3 237.3 140.9 237.5 140.5C237.7 140.2 238 139.9 238.4 139.7C238.8 139.5 239.3 139.4 240 139.2C241 139 241.6 138.8 242 138.7V138.5C242 138.1 241.9 137.8 241.7 137.7C241.5 137.5 241.1 137.4 240.6 137.4C240.2 137.4 240 137.5 239.8 137.6C239.5 137.7 239.3 138 239.2 138.4ZM241.9 140C241.6 140.1 241.2 140.2 240.7 140.3C240.2 140.4 239.8 140.5 239.6 140.7C239.3 140.9 239.2 141.1 239.2 141.4C239.2 141.7 239.3 141.9 239.5 142.2C239.7 142.5 240 142.5 240.3 142.5C240.7 142.5 241 142.4 241.3 142.1C241.5 141.9 241.7 141.7 241.8 141.4C241.9 141.2 241.9 140.9 241.9 140.4V140V140Z" fill="#7E6B76"/>
<path d="M247.4 138.4L245.6 138.1C245.8 137.3 246.2 136.8 246.7 136.4C247.2 136 248 135.9 249 135.9C249.9 135.9 250.6 136 251 136.2C251.4 136.4 251.8 136.7 251.9 137C252.1 137.3 252.2 138 252.2 138.9V141.3C252.2 142 252.2 142.5 252.3 142.8C252.4 143.1 252.5 143.5 252.7 143.8H250.7C250.6 143.7 250.6 143.5 250.5 143.2C250.5 143.1 250.4 143 250.4 143C250.1 143.3 249.7 143.6 249.3 143.8C248.9 144 248.5 144.1 248 144.1C247.2 144.1 246.6 143.9 246.1 143.4C245.6 142.9 245.4 142.4 245.4 141.7C245.4 141.3 245.5 140.9 245.7 140.5C245.9 140.2 246.2 139.9 246.6 139.7C247 139.5 247.5 139.4 248.2 139.2C249.2 139 249.8 138.8 250.2 138.7V138.5C250.2 138.1 250.1 137.8 249.9 137.7C249.7 137.5 249.3 137.4 248.8 137.4C248.4 137.4 248.2 137.5 248 137.6C247.7 137.7 247.6 138 247.4 138.4ZM250.2 140C249.9 140.1 249.5 140.2 249 140.3C248.5 140.4 248.1 140.5 247.9 140.7C247.6 140.9 247.5 141.1 247.5 141.4C247.5 141.7 247.6 141.9 247.8 142.2C248 142.5 248.3 142.5 248.6 142.5C249 142.5 249.3 142.4 249.6 142.1C249.8 141.9 250 141.7 250.1 141.4C250.2 141.2 250.2 140.9 250.2 140.4V140V140Z" fill="#7E6B76"/>
<path d="M254 136H255.9V137.1C256.6 136.3 257.4 135.9 258.3 135.9C258.8 135.9 259.2 136 259.6 136.2C260 136.4 260.3 136.7 260.5 137.1C260.8 136.7 261.2 136.4 261.6 136.2C262 136 262.4 135.9 262.9 135.9C263.5 135.9 263.9 136 264.3 136.2C264.7 136.4 265 136.8 265.2 137.2C265.3 137.5 265.4 138.1 265.4 138.8V143.8H263.4V139.3C263.4 138.5 263.3 138 263.2 137.8C263 137.5 262.7 137.4 262.3 137.4C262 137.4 261.7 137.5 261.5 137.7C261.3 137.9 261.1 138.1 261 138.5C260.9 138.8 260.8 139.4 260.8 140.1V143.9H258.8V139.6C258.8 138.8 258.8 138.3 258.7 138.1C258.6 137.9 258.5 137.7 258.4 137.6C258.2 137.5 258 137.4 257.8 137.4C257.5 137.4 257.2 137.5 257 137.7C256.7 137.9 256.6 138.1 256.5 138.4C256.4 138.7 256.3 139.3 256.3 140V143.8H254.3V136H254Z" fill="#7E6B76"/>
<path d="M58.7 181.4V171.1H61.2V175.1H66.1V171.1H68.6V181.4H66.1V176.9H61.2V181.4H58.7Z" fill="white"/>
<path d="M71.1 181.4V171.1H73.6V181.4H71.1Z" fill="white"/>
<path d="M75.9 181.4V171.1H85V172.8H78.3V175.1H84.5V176.8H78.3V179.6H85.2V181.3H75.9V181.4Z" fill="white"/>
<path d="M87.4 181.4V171.1H92.6C93.9 171.1 94.9 171.2 95.5 171.4C96.1 171.6 96.6 171.9 96.9 172.4C97.2 172.9 97.4 173.4 97.4 174C97.4 174.8 97.1 175.4 96.6 175.9C96.1 176.4 95.2 176.7 94.2 176.9C94.7 177.2 95.2 177.4 95.5 177.8C95.8 178.2 96.3 178.7 96.9 179.5L98.4 181.5H95.4L93.6 179.3C93 178.5 92.5 178 92.3 177.8C92.1 177.6 91.8 177.4 91.5 177.4C91.2 177.3 90.8 177.3 90.3 177.3H89.8V181.6L87.4 181.4ZM89.9 175.5H91.7C92.9 175.5 93.6 175.5 93.9 175.4C94.2 175.3 94.4 175.2 94.6 175C94.8 174.8 94.8 174.5 94.8 174.2C94.8 173.8 94.7 173.6 94.5 173.4C94.3 173.2 94 173 93.6 173C93.4 173 92.8 173 91.8 173H89.9V175.5Z" fill="white"/>
<path d="M104.7 181.4V171.1H109.9C111.2 171.1 112.2 171.2 112.8 171.4C113.4 171.6 113.9 171.9 114.2 172.4C114.5 172.9 114.7 173.4 114.7 174C114.7 174.8 114.4 175.4 113.9 175.9C113.4 176.4 112.5 176.7 111.5 176.9C112 177.2 112.5 177.4 112.8 177.8C113.1 178.2 113.6 178.7 114.2 179.5L115.7 181.5H112.7L110.9 179.3C110.3 178.5 109.8 178 109.6 177.8C109.4 177.6 109.1 177.4 108.8 177.4C108.5 177.3 108.1 177.3 107.6 177.3H107.1V181.6L104.7 181.4ZM107.2 175.5H109C110.2 175.5 110.9 175.5 111.2 175.4C111.5 175.3 111.7 175.2 111.9 175C112.1 174.8 112.1 174.5 112.1 174.2C112.1 173.8 112 173.6 111.8 173.4C111.6 173.2 111.3 173 110.9 173C110.7 173 110.1 173 109.1 173H107.2V175.5Z" fill="white"/>
<path d="M117.1 181.4V171.1H126.2V172.8H119.6V175.1H125.8V176.8H119.6V179.6H126.5V181.3H117.1V181.4Z" fill="white"/>
<path d="M134.3 177.6V175.9H139.7V180C139.2 180.4 138.4 180.8 137.4 181.1C136.4 181.4 135.4 181.6 134.4 181.6C133.1 181.6 132 181.4 131 180.9C130 180.4 129.3 179.8 128.8 179C128.3 178.2 128.1 177.2 128.1 176.3C128.1 175.2 128.4 174.3 128.9 173.4C129.4 172.6 130.2 171.9 131.3 171.5C132.1 171.2 133.1 171 134.2 171C135.7 171 136.9 171.3 137.8 171.8C138.7 172.3 139.2 173.1 139.5 174L137 174.4C136.8 173.9 136.5 173.5 136 173.2C135.5 172.9 134.9 172.8 134.2 172.8C133.1 172.8 132.3 173.1 131.6 173.7C131 174.3 130.6 175.1 130.6 176.3C130.6 177.5 130.9 178.4 131.6 179.1C132.2 179.7 133.1 180 134.2 180C134.7 180 135.2 179.9 135.8 179.7C136.3 179.5 136.8 179.3 137.2 179.1V177.8L134.3 177.6Z" fill="white"/>
<path d="M141.9 181.4V171.1H144.4V181.4H141.9Z" fill="white"/>
<path d="M146.1 178.1L148.5 177.9C148.6 178.6 148.9 179.1 149.4 179.4C149.9 179.7 150.5 179.9 151.2 179.9C152 179.9 152.6 179.8 153 179.5C153.4 179.2 153.6 178.9 153.6 178.5C153.6 178.3 153.5 178 153.3 177.9C153.1 177.7 152.8 177.6 152.4 177.4C152.1 177.3 151.4 177.2 150.4 176.9C149.1 176.6 148.1 176.3 147.6 175.9C146.8 175.3 146.5 174.7 146.5 173.8C146.5 173.3 146.7 172.8 147 172.3C147.4 171.8 147.9 171.5 148.5 171.3C149.1 171.1 150 170.9 150.9 170.9C152.5 170.9 153.6 171.2 154.4 171.8C155.2 172.4 155.6 173.1 155.6 174.1L153.1 174.2C153 173.7 152.8 173.3 152.4 173.1C152 172.9 151.5 172.7 150.8 172.7C150.1 172.7 149.5 172.8 149.1 173.1C148.8 173.3 148.7 173.5 148.7 173.7C148.7 173.9 148.8 174.2 149.1 174.3C149.4 174.5 150.2 174.8 151.4 175C152.6 175.2 153.5 175.5 154.1 175.7C154.7 175.9 155.1 176.3 155.5 176.7C155.9 177.1 156 177.7 156 178.3C156 178.9 155.8 179.4 155.4 179.9C155 180.4 154.5 180.8 153.7 181C152.9 181.2 152.1 181.4 151 181.4C149.4 181.4 148.2 181.1 147.4 180.5C146.6 179.9 146.3 179.2 146.1 178.1Z" fill="white"/>
<path d="M161 181.4V172.9H157.3V171.2H167.1V172.9H163.5V181.4H161Z" fill="white"/>
<path d="M168.8 181.4V171.1H174C175.3 171.1 176.3 171.2 176.9 171.4C177.5 171.6 178 171.9 178.3 172.4C178.6 172.9 178.8 173.4 178.8 174C178.8 174.8 178.5 175.4 178 175.9C177.5 176.4 176.6 176.7 175.6 176.9C176.1 177.2 176.6 177.4 176.9 177.8C177.2 178.2 177.7 178.7 178.3 179.5L179.8 181.5H176.8L175 179.3C174.4 178.5 173.9 178 173.7 177.8C173.5 177.6 173.2 177.4 172.9 177.4C172.6 177.4 172.2 177.3 171.7 177.3H171.2V181.6L168.8 181.4ZM171.3 175.5H173.1C174.3 175.5 175 175.5 175.3 175.4C175.6 175.3 175.8 175.2 176 175C176.2 174.8 176.2 174.5 176.2 174.2C176.2 173.8 176.1 173.6 175.9 173.4C175.7 173.2 175.4 173 175 173C174.8 173 174.2 173 173.2 173H171.3V175.5V175.5Z" fill="white"/>
<path d="M181.2 181.4V171.1H190.3V172.8H183.7V175.1H189.9V176.8H183.7V179.6H190.6V181.3H181.2V181.4Z" fill="white"/>
<path d="M192.7 181.4V171.1H197.9C199.2 171.1 200.2 171.2 200.8 171.4C201.4 171.6 201.9 171.9 202.2 172.4C202.5 172.9 202.7 173.4 202.7 174C202.7 174.8 202.4 175.4 201.9 175.9C201.4 176.4 200.5 176.7 199.5 176.9C200 177.2 200.5 177.4 200.8 177.8C201.1 178.2 201.6 178.7 202.2 179.5L203.7 181.5H200.7L198.9 179.3C198.3 178.5 197.8 178 197.6 177.8C197.4 177.6 197.1 177.4 196.8 177.4C196.5 177.4 196.1 177.3 195.6 177.3H195.1V181.6L192.7 181.4ZM195.2 175.5H197C198.2 175.5 198.9 175.5 199.2 175.4C199.5 175.3 199.7 175.2 199.9 175C200.1 174.8 200.1 174.5 200.1 174.2C200.1 173.8 200 173.6 199.8 173.4C199.6 173.2 199.3 173 198.9 173C198.7 173 198.1 173 197.1 173H195.2V175.5Z" fill="white"/>
<path d="M205.2 181.4V171.1H214.3V172.8H207.7V175.1H213.9V176.8H207.7V179.6H214.6V181.3H205.2V181.4Z" fill="white"/>
<path d="M216.7 181.4V171.1H219.1L224.2 178V171.1H226.5V181.4H224L219 174.7V181.4H216.7Z" fill="white"/>
<path d="M267.2 164.2H16.1V189.2H267.2V164.2Z" stroke="#78C8D1" stroke-width="3" stroke-miterlimit="10"/>
<path d="M16.9 155.6V147H18.7V155.6H16.9Z" fill="white"/>
<path d="M26.4 155.6H24.7V152.4C24.7 151.7 24.7 151.3 24.6 151.1C24.5 150.9 24.4 150.7 24.2 150.6C24 150.5 23.8 150.4 23.6 150.4C23.3 150.4 23 150.5 22.8 150.6C22.6 150.7 22.4 151 22.3 151.2C22.2 151.4 22.2 151.9 22.2 152.6V155.4H20.5V149.2H22V150.1C22.6 149.4 23.3 149 24.1 149C24.5 149 24.8 149.1 25.1 149.2C25.4 149.3 25.7 149.5 25.8 149.7C26 149.9 26.1 150.1 26.1 150.4C26.2 150.7 26.2 151 26.2 151.5V155.6H26.4Z" fill="white"/>
<path d="M28 155.6V147H29.7V151.6L31.7 149.4H33.8L31.6 151.7L34 155.6H32.1L30.5 152.8L29.7 153.6V155.6H28Z" fill="white"/>
<path d="M34.7 152.4C34.7 151.9 34.8 151.3 35.1 150.8C35.4 150.3 35.8 149.9 36.3 149.6C36.8 149.3 37.4 149.2 38 149.2C39 149.2 39.8 149.5 40.4 150.1C41 150.7 41.3 151.5 41.3 152.4C41.3 153.3 41 154.1 40.3 154.7C39.7 155.3 38.9 155.6 37.9 155.6C37.3 155.6 36.7 155.5 36.2 155.2C35.7 154.9 35.2 154.6 35 154.1C34.8 153.7 34.7 153.1 34.7 152.4ZM36.4 152.5C36.4 153.1 36.6 153.6 36.9 153.9C37.2 154.2 37.6 154.4 38 154.4C38.4 154.4 38.8 154.2 39.1 153.9C39.4 153.6 39.6 153.1 39.6 152.5C39.6 151.9 39.4 151.4 39.1 151.1C38.8 150.8 38.4 150.6 38 150.6C37.6 150.6 37.2 150.8 36.9 151.1C36.6 151.4 36.4 151.8 36.4 152.5Z" fill="white"/>
<path d="M42.6 149.4H44.2V150.2C44.8 149.5 45.4 149.2 46.2 149.2C46.6 149.2 47 149.3 47.3 149.4C47.6 149.6 47.9 149.8 48.1 150.1C48.4 149.8 48.7 149.5 49 149.4C49.3 149.3 49.7 149.2 50.1 149.2C50.6 149.2 51 149.3 51.3 149.5C51.6 149.7 51.9 150 52 150.3C52.1 150.6 52.2 151 52.2 151.6V155.6H50.5V152C50.5 151.4 50.4 151 50.3 150.8C50.1 150.6 49.9 150.4 49.6 150.4C49.4 150.4 49.1 150.5 48.9 150.6C48.7 150.7 48.5 150.9 48.4 151.2C48.3 151.5 48.3 151.9 48.3 152.5V155.5H46.6V152.1C46.6 151.5 46.6 151.1 46.5 150.9C46.4 150.7 46.3 150.6 46.2 150.5C46.1 150.4 45.9 150.4 45.7 150.4C45.4 150.4 45.2 150.5 45 150.6C44.8 150.7 44.6 150.9 44.5 151.2C44.4 151.5 44.4 151.9 44.4 152.5V155.5H42.7V149.4H42.6Z" fill="white"/>
<path d="M61.5 152.4V151H65.4V154.4C65 154.8 64.5 155.1 63.8 155.3C63.1 155.5 62.4 155.7 61.6 155.7C60.7 155.7 59.8 155.5 59.2 155.1C58.6 154.7 58 154.2 57.6 153.5C57.2 152.8 57.1 152 57.1 151.2C57.1 150.3 57.3 149.5 57.7 148.8C58.1 148.1 58.7 147.6 59.4 147.2C60 146.9 60.7 146.8 61.5 146.8C62.6 146.8 63.5 147 64.1 147.5C64.7 148 65.1 148.6 65.3 149.4L63.5 149.7C63.4 149.3 63.1 148.9 62.8 148.7C62.5 148.5 62 148.3 61.5 148.3C60.7 148.3 60.1 148.5 59.6 149C59.1 149.5 58.9 150.2 58.9 151.1C58.9 152.1 59.1 152.9 59.6 153.4C60.1 153.9 60.7 154.2 61.5 154.2C61.9 154.2 62.3 154.1 62.6 154C62.9 153.9 63.3 153.7 63.6 153.5V152.4H61.5V152.4Z" fill="white"/>
<path d="M68.7 155.6H67V149.4H68.6V150.3C68.9 149.9 69.1 149.6 69.3 149.5C69.5 149.4 69.8 149.3 70 149.3C70.4 149.3 70.8 149.4 71.1 149.6L70.6 151C70.3 150.8 70 150.7 69.8 150.7C69.6 150.7 69.4 150.8 69.2 150.9C69 151 68.9 151.3 68.8 151.6C68.7 151.9 68.7 152.6 68.7 153.7V155.6Z" fill="white"/>
<path d="M73.2 151.3L71.6 151C71.8 150.4 72.1 150 72.5 149.7C72.9 149.4 73.6 149.3 74.4 149.3C75.2 149.3 75.7 149.4 76.1 149.6C76.5 149.8 76.7 150 76.9 150.3C77.1 150.6 77.1 151.1 77.1 151.8V153.7C77.1 154.2 77.1 154.7 77.2 154.9C77.3 155.2 77.4 155.4 77.5 155.7H75.8C75.8 155.6 75.7 155.4 75.6 155.2C75.6 155.1 75.6 155 75.5 155C75.2 155.3 74.9 155.5 74.6 155.6C74.3 155.7 73.9 155.8 73.5 155.8C72.8 155.8 72.3 155.6 71.9 155.3C71.5 155 71.3 154.5 71.3 154C71.3 153.6 71.4 153.3 71.6 153.1C71.8 152.8 72 152.6 72.3 152.5C72.6 152.4 73.1 152.2 73.7 152.1C74.5 152 75.1 151.8 75.4 151.7V151.5C75.4 151.2 75.3 151 75.2 150.8C75 150.7 74.7 150.6 74.3 150.6C74 150.6 73.8 150.7 73.6 150.8C73.4 150.9 73.3 151 73.2 151.3ZM75.5 152.6C75.3 152.7 74.9 152.8 74.5 152.9C74.1 153 73.7 153.1 73.6 153.2C73.4 153.4 73.3 153.5 73.3 153.8C73.3 154 73.4 154.2 73.6 154.4C73.8 154.6 74 154.7 74.3 154.7C74.6 154.7 74.9 154.6 75.2 154.4C75.4 154.3 75.5 154.1 75.6 153.9C75.6 153.8 75.7 153.5 75.7 153.1V152.6H75.5Z" fill="white"/>
<path d="M81.8 149.4V150.7H80.6V153.2C80.6 153.7 80.6 154 80.6 154.1C80.6 154.2 80.7 154.3 80.8 154.3C80.9 154.4 81 154.4 81.1 154.4C81.3 154.4 81.5 154.3 81.8 154.2L81.9 155.5C81.5 155.7 81 155.7 80.5 155.7C80.2 155.7 79.9 155.7 79.7 155.6C79.5 155.5 79.3 155.4 79.2 155.2C79.1 155 79 154.8 79 154.6C79 154.4 78.9 154 78.9 153.4V150.7H78.1V149.4H78.9V148.2L80.6 147.2V149.4H81.8Z" fill="white"/>
<path d="M83 148.5V147H84.7V148.5H83ZM83 155.6V149.4H84.7V155.6H83Z" fill="white"/>
<path d="M85.9 153.8L87.6 153.5C87.7 153.8 87.8 154.1 88 154.2C88.2 154.4 88.5 154.4 88.9 154.4C89.3 154.4 89.7 154.3 89.9 154.2C90.1 154.1 90.1 153.9 90.1 153.8C90.1 153.7 90.1 153.6 90 153.5C89.9 153.4 89.7 153.3 89.4 153.3C88 153 87.1 152.7 86.8 152.5C86.3 152.2 86 151.7 86 151.1C86 150.6 86.2 150.1 86.7 149.7C87.1 149.3 87.8 149.1 88.8 149.1C89.7 149.1 90.3 149.2 90.8 149.5C91.3 149.8 91.5 150.2 91.7 150.7L90.1 151C90 150.8 89.9 150.6 89.7 150.4C89.5 150.2 89.2 150.2 88.9 150.2C88.4 150.2 88.1 150.3 87.9 150.4C87.8 150.5 87.7 150.6 87.7 150.7C87.7 150.8 87.8 150.9 87.9 151C88.1 151.1 88.6 151.3 89.5 151.5C90.4 151.7 91.1 151.9 91.4 152.2C91.8 152.5 91.9 152.9 91.9 153.4C91.9 154 91.7 154.5 91.2 154.9C90.7 155.3 90 155.5 89 155.5C88.1 155.5 87.4 155.3 86.9 155C86.4 154.9 86.1 154.4 85.9 153.8Z" fill="white"/>
<path d="M96.7 153.3V151.7H100.1V153.3H96.7Z" fill="white"/>
<path d="M104.5 155.6V147H106.2V150.1C106.7 149.5 107.4 149.2 108.1 149.2C108.9 149.2 109.5 149.5 110.1 150C110.6 150.5 110.9 151.3 110.9 152.4C110.9 153.5 110.6 154.3 110.1 154.9C109.6 155.5 108.9 155.8 108.2 155.8C107.8 155.8 107.5 155.7 107.1 155.5C106.7 155.3 106.4 155.1 106.2 154.7V155.6H104.5V155.6ZM106.2 152.3C106.2 152.9 106.3 153.4 106.5 153.7C106.8 154.1 107.2 154.4 107.7 154.4C108.1 154.4 108.4 154.2 108.7 153.9C109 153.6 109.1 153.1 109.1 152.4C109.1 151.7 109 151.2 108.7 150.9C108.4 150.6 108.1 150.4 107.7 150.4C107.3 150.4 106.9 150.6 106.7 150.9C106.3 151.2 106.2 151.7 106.2 152.3Z" fill="white"/>
<path d="M116 153.6L117.7 153.9C117.5 154.5 117.1 155 116.7 155.3C116.3 155.6 115.6 155.8 114.9 155.8C113.8 155.8 112.9 155.4 112.4 154.7C112 154.1 111.8 153.4 111.8 152.6C111.8 151.6 112.1 150.8 112.6 150.2C113.2 149.6 113.9 149.3 114.7 149.3C115.7 149.3 116.4 149.6 117 150.2C117.6 150.8 117.8 151.7 117.8 153H113.5C113.5 153.5 113.7 153.9 113.9 154.1C114.1 154.3 114.5 154.5 114.9 154.5C115.2 154.5 115.4 154.4 115.6 154.3C115.7 154.1 115.9 153.9 116 153.6ZM116.1 151.9C116.1 151.4 116 151.1 115.7 150.8C115.4 150.5 115.2 150.4 114.8 150.4C114.4 150.4 114.1 150.5 113.9 150.8C113.7 151.1 113.5 151.4 113.5 151.9H116.1Z" fill="white"/>
<path d="M121 155.6L118.4 149.4H120.2L121.4 152.6L121.8 153.7C121.9 153.4 122 153.3 122 153.2C122.1 153 122.1 152.8 122.2 152.7L123.4 149.5H125.2L122.6 155.7H121V155.6Z" fill="white"/>
<path d="M129.9 153.6L131.6 153.9C131.4 154.5 131 155 130.6 155.3C130.2 155.6 129.5 155.8 128.8 155.8C127.7 155.8 126.8 155.4 126.3 154.7C125.9 154.1 125.7 153.4 125.7 152.6C125.7 151.6 126 150.8 126.5 150.2C127.1 149.6 127.8 149.3 128.6 149.3C129.6 149.3 130.3 149.6 130.9 150.2C131.5 150.8 131.7 151.7 131.7 153H127.4C127.4 153.5 127.6 153.9 127.8 154.1C128 154.3 128.4 154.5 128.8 154.5C129.1 154.5 129.3 154.4 129.5 154.3C129.7 154.1 129.8 153.9 129.9 153.6ZM130 151.9C130 151.4 129.9 151.1 129.6 150.8C129.3 150.5 129.1 150.4 128.7 150.4C128.3 150.4 128 150.5 127.8 150.8C127.6 151.1 127.4 151.4 127.4 151.9H130Z" fill="white"/>
<path d="M132.5 153.8L134.2 153.5C134.3 153.8 134.4 154.1 134.6 154.2C134.8 154.4 135.1 154.4 135.5 154.4C135.9 154.4 136.3 154.3 136.5 154.2C136.7 154.1 136.7 153.9 136.7 153.8C136.7 153.7 136.7 153.6 136.6 153.5C136.5 153.4 136.3 153.3 136 153.3C134.6 153 133.7 152.7 133.4 152.5C132.9 152.2 132.6 151.7 132.6 151.1C132.6 150.6 132.8 150.1 133.3 149.7C133.7 149.3 134.4 149.1 135.4 149.1C136.3 149.1 136.9 149.2 137.4 149.5C137.9 149.8 138.1 150.2 138.3 150.7L136.7 151C136.6 150.8 136.5 150.6 136.3 150.4C136.1 150.2 135.8 150.2 135.5 150.2C135 150.2 134.7 150.3 134.5 150.4C134.4 150.5 134.3 150.6 134.3 150.7C134.3 150.8 134.4 150.9 134.5 151C134.7 151.1 135.2 151.3 136.1 151.5C137 151.7 137.7 151.9 138 152.2C138.4 152.5 138.5 152.9 138.5 153.4C138.5 154 138.3 154.5 137.8 154.9C137.3 155.3 136.6 155.5 135.6 155.5C134.7 155.5 134 155.3 133.5 155C133 154.9 132.6 154.4 132.5 153.8Z" fill="white"/>
<path d="M143 149.4V150.7H141.8V153.2C141.8 153.7 141.8 154 141.8 154.1C141.8 154.2 141.9 154.3 142 154.3C142.1 154.4 142.2 154.4 142.3 154.4C142.5 154.4 142.7 154.3 143 154.2L143.1 155.5C142.7 155.7 142.2 155.7 141.7 155.7C141.4 155.7 141.1 155.7 140.9 155.6C140.7 155.5 140.5 155.4 140.4 155.2C140.3 155 140.2 154.8 140.2 154.6C140.2 154.4 140.1 154 140.1 153.4V150.7H139.3V149.4H140.1V148.2L141.8 147.2V149.4H143Z" fill="white"/>
<path d="M144.2 148.5V147H145.9V148.5H144.2ZM144.2 155.6V149.4H145.9V155.6H144.2Z" fill="white"/>
<path d="M147.5 156L149.5 156.2C149.5 156.4 149.6 156.6 149.7 156.7C149.9 156.8 150.1 156.9 150.5 156.9C150.9 156.9 151.3 156.8 151.5 156.7C151.7 156.6 151.8 156.5 151.8 156.3C151.9 156.2 151.9 155.9 151.9 155.5V154.6C151.4 155.3 150.7 155.6 150 155.6C149.1 155.6 148.4 155.2 147.9 154.5C147.5 153.9 147.3 153.2 147.3 152.4C147.3 151.4 147.6 150.6 148.1 150C148.6 149.4 149.3 149.2 150.1 149.2C150.9 149.2 151.6 149.5 152.1 150.2V149.3H153.7V154.9C153.7 155.6 153.6 156.2 153.5 156.5C153.4 156.8 153.2 157.1 153 157.4C152.8 157.6 152.5 157.8 152.1 157.9C151.7 158 151.2 158.1 150.7 158.1C149.6 158.1 148.8 157.9 148.4 157.6C148 157.3 147.7 156.8 147.7 156.2C147.5 156.1 147.5 156.1 147.5 156ZM149.1 152.3C149.1 153 149.2 153.4 149.5 153.8C149.8 154.2 150.1 154.3 150.5 154.3C150.9 154.3 151.3 154.1 151.6 153.8C151.9 153.5 152 153 152 152.4C152 151.8 151.9 151.3 151.6 151C151.3 150.7 151 150.5 150.5 150.5C150.1 150.5 149.7 150.7 149.5 151C149.3 151.3 149.1 151.7 149.1 152.3Z" fill="white"/>
<path d="M159.1 153.6L160.8 153.9C160.6 154.5 160.2 155 159.8 155.3C159.4 155.6 158.7 155.8 158 155.8C156.9 155.8 156 155.4 155.5 154.7C155.1 154.1 154.9 153.4 154.9 152.6C154.9 151.6 155.2 150.8 155.7 150.2C156.3 149.6 157 149.3 157.8 149.3C158.8 149.3 159.5 149.6 160.1 150.2C160.7 150.8 160.9 151.7 160.9 153H156.6C156.6 153.5 156.8 153.9 157 154.1C157.2 154.3 157.6 154.5 158 154.5C158.3 154.5 158.5 154.4 158.7 154.3C158.9 154.1 159 153.9 159.1 153.6ZM159.2 151.9C159.2 151.4 159.1 151.1 158.8 150.8C158.5 150.5 158.3 150.4 157.9 150.4C157.5 150.4 157.2 150.5 157 150.8C156.8 151.1 156.6 151.4 156.6 151.9H159.2Z" fill="white"/>
<path d="M168.2 155.6H166.5V152.4C166.5 151.7 166.5 151.3 166.4 151.1C166.3 150.9 166.2 150.7 166 150.6C165.8 150.5 165.6 150.4 165.4 150.4C165.1 150.4 164.8 150.5 164.6 150.6C164.4 150.7 164.2 151 164.1 151.2C164 151.4 164 151.9 164 152.6V155.4H162.3V149.2H163.9V150.1C164.5 149.4 165.2 149 166 149C166.4 149 166.7 149.1 167 149.2C167.3 149.3 167.6 149.5 167.7 149.7C167.9 149.9 168 150.1 168 150.4C168.1 150.7 168.1 151 168.1 151.5V155.6H168.2Z" fill="white"/>
<path d="M175.2 155.6L172.6 149.4H174.4L175.6 152.6L176 153.7C176.1 153.4 176.2 153.3 176.2 153.2C176.3 153 176.3 152.8 176.4 152.7L177.6 149.5H179.4L176.8 155.7H175.2V155.6Z" fill="white"/>
<path d="M180 152.4C180 151.9 180.1 151.3 180.4 150.8C180.7 150.3 181.1 149.9 181.6 149.6C182.1 149.3 182.7 149.2 183.3 149.2C184.3 149.2 185.1 149.5 185.7 150.1C186.3 150.7 186.6 151.5 186.6 152.4C186.6 153.3 186.3 154.1 185.6 154.7C185 155.3 184.2 155.6 183.2 155.6C182.6 155.6 182 155.5 181.5 155.2C181 154.9 180.5 154.6 180.3 154.1C180.1 153.7 180 153.1 180 152.4ZM181.7 152.5C181.7 153.1 181.9 153.6 182.2 153.9C182.5 154.2 182.9 154.4 183.3 154.4C183.7 154.4 184.1 154.2 184.4 153.9C184.7 153.6 184.9 153.1 184.9 152.5C184.9 151.9 184.7 151.4 184.4 151.1C184.1 150.8 183.7 150.6 183.3 150.6C182.9 150.6 182.5 150.8 182.2 151.1C181.9 151.4 181.7 151.8 181.7 152.5Z" fill="white"/>
<path d="M187.6 152.4C187.6 151.9 187.7 151.3 188 150.8C188.3 150.3 188.7 149.9 189.2 149.6C189.7 149.3 190.3 149.2 190.9 149.2C191.9 149.2 192.7 149.5 193.3 150.1C193.9 150.7 194.2 151.5 194.2 152.4C194.2 153.3 193.9 154.1 193.2 154.7C192.6 155.3 191.8 155.6 190.8 155.6C190.2 155.6 189.6 155.5 189.1 155.2C188.6 154.9 188.1 154.6 187.9 154.1C187.7 153.7 187.6 153.1 187.6 152.4ZM189.4 152.5C189.4 153.1 189.6 153.6 189.9 153.9C190.2 154.2 190.6 154.4 191 154.4C191.4 154.4 191.8 154.2 192.1 153.9C192.4 153.6 192.6 153.1 192.6 152.5C192.6 151.9 192.4 151.4 192.1 151.1C191.8 150.8 191.4 150.6 191 150.6C190.6 150.6 190.2 150.8 189.9 151.1C189.5 151.4 189.4 151.8 189.4 152.5Z" fill="white"/>
<path d="M197.3 155.6H195.6V149.4H197.2V150.3C197.5 149.9 197.7 149.6 197.9 149.5C198.1 149.4 198.4 149.3 198.6 149.3C199 149.3 199.4 149.4 199.7 149.6L199.2 151C198.9 150.8 198.6 150.7 198.4 150.7C198.2 150.7 198 150.8 197.8 150.9C197.6 151 197.5 151.3 197.4 151.6C197.3 151.9 197.3 152.6 197.3 153.7V155.6V155.6Z" fill="white"/>
<path d="M206.5 147C207.4 147 208 147.3 208.5 147.9C209.1 148.6 209.4 149.8 209.4 151.4C209.4 153 209.1 154.2 208.5 154.9C208 155.5 207.3 155.8 206.5 155.8C205.6 155.8 204.9 155.5 204.4 154.8C203.9 154.1 203.6 153 203.6 151.4C203.6 149.8 203.9 148.6 204.5 147.9C205 147.2 205.7 147 206.5 147ZM206.5 148.3C206.3 148.3 206.1 148.4 205.9 148.5C205.7 148.6 205.6 148.9 205.5 149.2C205.4 149.6 205.3 150.3 205.3 151.4C205.3 152.5 205.4 153.1 205.5 153.5C205.6 153.9 205.7 154.1 205.9 154.3C206.1 154.5 206.2 154.5 206.5 154.5C206.8 154.5 206.9 154.4 207.1 154.3C207.3 154.2 207.4 153.9 207.5 153.6C207.6 153.2 207.7 152.5 207.7 151.5C207.7 150.5 207.6 149.8 207.5 149.4C207.4 149 207.3 148.8 207.1 148.6C206.9 148.4 206.7 148.3 206.5 148.3Z" fill="white"/>
<path d="M216.4 154V155.5H210.4C210.5 154.9 210.7 154.4 211 153.9C211.3 153.4 212 152.7 212.9 151.8C213.7 151.1 214.1 150.6 214.3 150.4C214.5 150.1 214.7 149.7 214.7 149.4C214.7 149 214.6 148.8 214.4 148.6C214.2 148.4 213.9 148.3 213.5 148.3C213.1 148.3 212.9 148.4 212.6 148.6C212.3 148.8 212.3 149.2 212.2 149.6L210.5 149.4C210.6 148.5 210.9 147.8 211.5 147.4C212 147 212.7 146.8 213.5 146.8C214.4 146.8 215.1 147 215.6 147.5C216.1 148 216.4 148.5 216.4 149.2C216.4 149.6 216.3 150 216.2 150.3C216.1 150.6 215.8 151 215.5 151.4C215.3 151.7 214.9 152 214.4 152.5C213.9 153 213.5 153.3 213.4 153.4C213.3 153.5 213.1 153.7 213 153.9H216.4V154Z" fill="white"/>
<path d="M217 155.7L219.2 146.8H220.5L218.3 155.7H217Z" fill="white"/>
<path d="M223.9 147C224.8 147 225.4 147.3 225.9 147.9C226.5 148.6 226.8 149.8 226.8 151.4C226.8 153 226.5 154.2 225.9 154.9C225.4 155.5 224.7 155.8 223.9 155.8C223 155.8 222.3 155.5 221.8 154.8C221.3 154.1 221 153 221 151.4C221 149.8 221.3 148.6 221.9 147.9C222.4 147.2 223 147 223.9 147ZM223.9 148.3C223.7 148.3 223.5 148.4 223.3 148.5C223.1 148.6 223 148.9 222.9 149.2C222.8 149.6 222.7 150.3 222.7 151.4C222.7 152.5 222.8 153.1 222.9 153.5C223 153.9 223.1 154.1 223.3 154.3C223.5 154.5 223.6 154.5 223.9 154.5C224.2 154.5 224.3 154.4 224.5 154.3C224.7 154.2 224.8 153.9 224.9 153.6C225 153.2 225.1 152.5 225.1 151.5C225.1 150.5 225 149.8 224.9 149.4C224.8 149 224.7 148.8 224.5 148.6C224.3 148.4 224.1 148.3 223.9 148.3Z" fill="white"/>
<path d="M231.3 155.6V153.9H227.6V152.5L231.5 147H232.9V152.4H234V153.8H233V155.5H231.3V155.6ZM231.3 152.4V149.5L229.2 152.4H231.3Z" fill="white"/>
<path d="M234.4 155.7L236.6 146.8H237.9L235.7 155.7H234.4Z" fill="white"/>
<path d="M244.2 154V155.5H238.2C238.3 154.9 238.5 154.4 238.8 153.9C239.1 153.4 239.8 152.7 240.7 151.8C241.5 151.1 241.9 150.6 242.1 150.4C242.3 150.1 242.5 149.7 242.5 149.4C242.5 149 242.4 148.8 242.2 148.6C242 148.4 241.7 148.3 241.3 148.3C240.9 148.3 240.7 148.4 240.4 148.6C240.1 148.8 240.1 149.2 240 149.6L238.3 149.4C238.4 148.5 238.7 147.8 239.3 147.4C239.8 147 240.5 146.8 241.3 146.8C242.2 146.8 242.9 147 243.4 147.5C243.9 148 244.2 148.5 244.2 149.2C244.2 149.6 244.1 150 244 150.3C243.9 150.6 243.6 151 243.3 151.4C243.1 151.7 242.7 152 242.2 152.5C241.7 153 241.3 153.3 241.2 153.4C241.1 153.5 240.9 153.7 240.8 153.9H244.2V154Z" fill="white"/>
<path d="M248.3 147C249.2 147 249.8 147.3 250.3 147.9C250.9 148.6 251.2 149.8 251.2 151.4C251.2 153 250.9 154.2 250.3 154.9C249.8 155.5 249.1 155.8 248.3 155.8C247.4 155.8 246.7 155.5 246.2 154.8C245.7 154.1 245.4 153 245.4 151.4C245.4 149.8 245.7 148.6 246.3 147.9C246.7 147.2 247.4 147 248.3 147ZM248.3 148.3C248.1 148.3 247.9 148.4 247.7 148.5C247.5 148.6 247.4 148.9 247.3 149.2C247.2 149.6 247.1 150.3 247.1 151.4C247.1 152.5 247.2 153.1 247.3 153.5C247.4 153.9 247.5 154.1 247.7 154.3C247.9 154.5 248 154.5 248.3 154.5C248.6 154.5 248.7 154.4 248.9 154.3C249.1 154.2 249.2 153.9 249.3 153.6C249.4 153.2 249.5 152.5 249.5 151.5C249.5 150.5 249.4 149.8 249.3 149.4C249.2 149 249.1 148.8 248.9 148.6C248.7 148.4 248.5 148.3 248.3 148.3Z" fill="white"/>
<path d="M258.1 154V155.5H252.1C252.2 154.9 252.4 154.4 252.7 153.9C253 153.4 253.7 152.7 254.6 151.8C255.4 151.1 255.8 150.6 256 150.4C256.2 150.1 256.4 149.7 256.4 149.4C256.4 149 256.3 148.8 256.1 148.6C255.9 148.4 255.6 148.3 255.2 148.3C254.8 148.3 254.6 148.4 254.3 148.6C254 148.8 254 149.2 253.9 149.6L252.2 149.4C252.3 148.5 252.6 147.8 253.2 147.4C253.7 147 254.4 146.8 255.2 146.8C256.1 146.8 256.8 147 257.3 147.5C257.8 148 258.1 148.5 258.1 149.2C258.1 149.6 258 150 257.9 150.3C257.8 150.6 257.5 151 257.2 151.4C257 151.7 256.6 152 256.1 152.5C255.6 153 255.2 153.3 255.1 153.4C255 153.5 254.8 153.7 254.7 153.9H258.1V154Z" fill="white"/>
<path d="M265.1 154V155.5H259.1C259.2 154.9 259.4 154.4 259.7 153.9C260 153.4 260.7 152.7 261.6 151.8C262.4 151.1 262.8 150.6 263 150.4C263.2 150.1 263.4 149.7 263.4 149.4C263.4 149 263.3 148.8 263.1 148.6C262.9 148.4 262.6 148.3 262.2 148.3C261.8 148.3 261.6 148.4 261.3 148.6C261 148.8 261 149.2 260.9 149.6L259.2 149.4C259.3 148.5 259.6 147.8 260.2 147.4C260.7 147 261.4 146.8 262.2 146.8C263.1 146.8 263.8 147 264.3 147.5C264.8 148 265.1 148.5 265.1 149.2C265.1 149.6 265 150 264.9 150.3C264.8 150.6 264.5 151 264.2 151.4C264 151.7 263.6 152 263.1 152.5C262.6 153 262.2 153.3 262.1 153.4C262 153.5 261.8 153.7 261.7 153.9H265.1V154Z" fill="white"/>
<path d="M61.5 36V33.9H66.5V38.9C66 39.4 65.3 39.9 64.4 40.3C63.5 40.7 62.5 40.9 61.6 40.9C60.4 40.9 59.3 40.6 58.4 40.1C57.5 39.6 56.8 38.8 56.4 37.7C56 36.7 55.7 35.6 55.7 34.4C55.7 33.1 55.9 31.9 56.5 30.9C57 29.9 57.7 29.1 58.7 28.6C59.4 28.2 60.4 28 61.5 28C62.9 28 64.1 28.3 64.9 29C65.7 29.7 66.2 30.6 66.5 31.7L64.2 32.2C64 31.6 63.7 31.1 63.3 30.7C62.9 30.3 62.3 30.2 61.6 30.2C60.6 30.2 59.8 30.6 59.2 31.3C58.6 32 58.3 33 58.3 34.4C58.3 35.9 58.6 37 59.2 37.8C59.8 38.5 60.6 38.9 61.6 38.9C62.1 38.9 62.6 38.8 63.1 38.6C63.6 38.4 64 38.1 64.4 37.8V36H61.5Z" fill="white" stroke="#B498A0" stroke-width="0.4996" stroke-miterlimit="10"/>
<path d="M68.7 40.6V28.1H77.3V30.2H71V33H76.8V35.1H71V38.5H77.5V40.6H68.7Z" fill="white" stroke="#B498A0" stroke-width="0.4996" stroke-miterlimit="10"/>
<path d="M79.5 40.6V28.1H81.8L86.5 36.5V28.1H88.7V40.6H86.4L81.7 32.4V40.6H79.5Z" fill="white" stroke="#B498A0" stroke-width="0.4996" stroke-miterlimit="10"/>
<path d="M91.2 40.6V28.1H99.8V30.2H93.5V33H99.3V35.1H93.5V38.5H100V40.6H91.2Z" fill="white" stroke="#B498A0" stroke-width="0.4996" stroke-miterlimit="10"/>
<path d="M109.1 40.6V30.2H105.7V28.1H114.9V30.2H111.5V40.6H109.1Z" fill="white" stroke="#B498A0" stroke-width="0.4996" stroke-miterlimit="10"/>
<path d="M116.4 40.6V28.1H118.7V33H123.3V28.1H125.6V40.6H123.3V35.1H118.7V40.6H116.4Z" fill="white" stroke="#B498A0" stroke-width="0.4996" stroke-miterlimit="10"/>
<path d="M127.6 34.4C127.6 33.1 127.8 32.1 128.1 31.2C128.4 30.6 128.7 30 129.2 29.5C129.7 29 130.2 28.6 130.7 28.4C131.4 28.1 132.3 27.9 133.2 27.9C134.9 27.9 136.3 28.5 137.3 29.6C138.3 30.7 138.8 32.3 138.8 34.4C138.8 36.4 138.3 38 137.3 39.1C136.3 40.2 134.9 40.8 133.2 40.8C131.5 40.8 130.1 40.2 129.1 39.1C128.1 38 127.6 36.4 127.6 34.4ZM130 34.3C130 35.7 130.3 36.8 130.9 37.5C131.5 38.2 132.3 38.6 133.2 38.6C134.1 38.6 134.9 38.2 135.5 37.5C136.1 36.8 136.4 35.7 136.4 34.2C136.4 32.8 136.1 31.7 135.5 31C134.9 30.3 134.1 29.9 133.2 29.9C132.2 29.9 131.5 30.3 130.9 31C130.3 31.8 130 32.9 130 34.3Z" fill="white" stroke="#B498A0" stroke-width="0.4996" stroke-miterlimit="10"/>
<path d="M140.6 40.6V28.1H144.1L146.2 36.7L148.3 28.1H151.8V40.6H149.6V30.7L147.3 40.6H145L142.7 30.7V40.6H140.6Z" fill="white" stroke="#B498A0" stroke-width="0.4996" stroke-miterlimit="10"/>
<path d="M164.6 40.6H162L161 37.8H156.4L155.4 40.6H152.9L157.4 28.1H159.9L164.6 40.6ZM160.3 35.7L158.7 31L157.1 35.7H160.3Z" fill="white" stroke="#B498A0" stroke-width="0.4996" stroke-miterlimit="10"/>
<path d="M165.2 36.5L167.5 36.3C167.6 37.1 167.9 37.7 168.3 38.1C168.7 38.5 169.3 38.7 170 38.7C170.7 38.7 171.3 38.5 171.7 38.2C172.1 37.9 172.3 37.5 172.3 37C172.3 36.7 172.2 36.5 172.1 36.2C171.9 36 171.7 35.8 171.3 35.7C171 35.6 170.4 35.4 169.4 35.2C168.1 34.9 167.3 34.4 166.8 34C166.1 33.3 165.7 32.5 165.7 31.5C165.7 30.9 165.9 30.3 166.2 29.7C166.5 29.1 167 28.7 167.6 28.4C168.2 28.1 169 28 169.9 28C171.4 28 172.4 28.3 173.2 29C173.9 29.7 174.3 30.6 174.4 31.8L172.1 31.9C172 31.3 171.8 30.8 171.5 30.5C171.2 30.2 170.7 30.1 170 30.1C169.3 30.1 168.8 30.2 168.4 30.6C168.2 30.8 168 31.1 168 31.4C168 31.7 168.1 31.9 168.3 32.2C168.6 32.5 169.3 32.7 170.4 33C171.5 33.3 172.4 33.6 172.9 33.9C173.4 34.2 173.9 34.6 174.2 35.2C174.5 35.7 174.7 36.4 174.7 37.2C174.7 37.9 174.5 38.6 174.2 39.2C173.8 39.8 173.3 40.3 172.6 40.6C171.9 40.9 171.1 41.1 170.1 41.1C168.6 41.1 167.5 40.7 166.7 40C165.8 39 165.4 37.9 165.2 36.5Z" fill="white" stroke="#B498A0" stroke-width="0.4996" stroke-miterlimit="10"/>
<path d="M191.3 39.1L190 41C189.3 40.7 188.7 40.2 188.1 39.6C187.6 40.1 187.1 40.4 186.6 40.6C186.1 40.8 185.4 40.9 184.7 40.9C183.3 40.9 182.2 40.5 181.4 39.6C180.8 38.9 180.6 38.1 180.6 37.3C180.6 36.5 180.8 35.8 181.3 35.1C181.7 34.5 182.4 33.9 183.3 33.4C182.9 32.9 182.6 32.4 182.4 31.9C182.2 31.4 182.1 31 182.1 30.6C182.1 29.8 182.4 29.2 182.9 28.7C183.5 28.2 184.3 27.9 185.3 27.9C186.3 27.9 187.1 28.2 187.6 28.7C188.2 29.3 188.4 29.9 188.4 30.7C188.4 31.2 188.3 31.7 188 32.1C187.7 32.6 187.2 33.1 186.3 33.6L187.9 35.9C188.1 35.5 188.2 35.1 188.4 34.5L190.4 35C190.2 35.8 190 36.3 189.9 36.7C189.8 37.1 189.6 37.4 189.4 37.6C189.6 37.9 190 38.1 190.4 38.4C190.9 38.8 191.2 39 191.3 39.1ZM184.4 34.9C183.9 35.2 183.5 35.5 183.3 35.9C183.1 36.3 182.9 36.7 182.9 37.1C182.9 37.6 183.1 38 183.4 38.4C183.7 38.7 184.1 38.9 184.7 38.9C185 38.9 185.4 38.8 185.7 38.7C186 38.6 186.4 38.3 186.7 38L184.4 34.9ZM185.3 32.3L185.9 31.8C186.3 31.4 186.6 31.1 186.6 30.7C186.6 30.4 186.5 30.1 186.3 29.9C186.1 29.7 185.8 29.6 185.4 29.6C185.1 29.6 184.8 29.7 184.6 29.9C184.4 30.1 184.3 30.3 184.3 30.6C184.3 30.9 184.5 31.3 184.8 31.7L185.3 32.3Z" fill="white" stroke="#B498A0" stroke-width="0.4996" stroke-miterlimit="10"/>
<path d="M197.3 40.6V28.1H205.2V30.2H199.6V33.2H204.4V35.3H199.6V40.6H197.3V40.6Z" fill="white" stroke="#B498A0" stroke-width="0.4996" stroke-miterlimit="10"/>
<path d="M207.2 40.6V28.1H212.1C213.3 28.1 214.2 28.2 214.8 28.4C215.4 28.6 215.8 29 216.1 29.6C216.4 30.2 216.6 30.8 216.6 31.6C216.6 32.5 216.3 33.3 215.8 33.9C215.3 34.5 214.5 34.9 213.5 35.1C214 35.4 214.4 35.8 214.7 36.2C215 36.6 215.5 37.3 216 38.2L217.4 40.6H214.6L212.9 37.9C212.3 36.9 211.9 36.3 211.7 36.1C211.5 35.8 211.2 35.7 211 35.6C210.8 35.5 210.4 35.5 209.8 35.5H209.3V40.7L207.2 40.6ZM209.5 33.4H211.2C212.3 33.4 213 33.4 213.3 33.3C213.6 33.2 213.8 33 214 32.8C214.2 32.5 214.2 32.2 214.2 31.9C214.2 31.5 214.1 31.1 213.9 30.9C213.7 30.6 213.4 30.5 213 30.4C212.8 30.4 212.2 30.4 211.3 30.4H209.5V33.4Z" fill="white" stroke="#B498A0" stroke-width="0.4996" stroke-miterlimit="10"/>
<path d="M218.8 40.6V28.1H221.1V40.6H218.8Z" fill="white" stroke="#B498A0" stroke-width="0.4996" stroke-miterlimit="10"/>
<path d="M223.4 40.6V28.1H232V30.2H225.7V33H231.5V35.1H225.7V38.5H232.2V40.6H223.4Z" fill="white" stroke="#B498A0" stroke-width="0.4996" stroke-miterlimit="10"/>
<path d="M234.2 40.6V28.1H236.5L241.2 36.5V28.1H243.4V40.6H241L236.3 32.4V40.6H234.2Z" fill="white" stroke="#B498A0" stroke-width="0.4996" stroke-miterlimit="10"/>
<path d="M245.8 28.1H250.1C251.1 28.1 251.8 28.2 252.3 28.3C253 28.5 253.6 28.9 254 29.5C254.5 30 254.8 30.7 255.1 31.5C255.3 32.3 255.5 33.3 255.5 34.5C255.5 35.5 255.4 36.4 255.1 37.2C254.8 38.1 254.4 38.8 253.9 39.4C253.5 39.8 252.9 40.2 252.3 40.4C251.8 40.6 251.1 40.7 250.2 40.7H245.8V28.1V28.1ZM248.2 30.2V38.5H249.9C250.5 38.5 251 38.5 251.3 38.4C251.7 38.3 252 38.1 252.2 37.9C252.4 37.7 252.7 37.2 252.8 36.7C252.9 36.1 253 35.4 253 34.4C253 33.4 252.9 32.7 252.8 32.2C252.6 31.7 252.4 31.3 252.1 31C251.8 30.7 251.5 30.5 251 30.4C250.7 30.3 250 30.3 249.1 30.3H248.2V30.2Z" fill="white" stroke="#B498A0" stroke-width="0.4996" stroke-miterlimit="10"/>
<path d="M256.9 36.5L259.2 36.3C259.3 37.1 259.6 37.7 260 38.1C260.4 38.5 261 38.7 261.7 38.7C262.4 38.7 263 38.5 263.4 38.2C263.8 37.9 264 37.5 264 37C264 36.7 263.9 36.5 263.8 36.2C263.7 35.9 263.4 35.8 263 35.7C262.7 35.6 262.1 35.4 261.1 35.2C259.8 34.9 259 34.4 258.5 34C257.8 33.3 257.4 32.5 257.4 31.5C257.4 30.9 257.6 30.3 257.9 29.7C258.2 29.1 258.7 28.7 259.3 28.4C259.9 28.1 260.7 28 261.6 28C263.1 28 264.1 28.3 264.9 29C265.7 29.7 266 30.6 266.1 31.8L263.8 31.9C263.7 31.3 263.5 30.8 263.2 30.5C262.9 30.2 262.4 30.1 261.7 30.1C261 30.1 260.5 30.2 260.1 30.6C259.9 30.8 259.7 31.1 259.7 31.4C259.7 31.7 259.8 31.9 260 32.2C260.3 32.5 261 32.7 262.1 33C263.2 33.3 264.1 33.6 264.6 33.9C265.1 34.2 265.6 34.6 265.9 35.2C266.2 35.7 266.4 36.4 266.4 37.2C266.4 37.9 266.2 38.6 265.9 39.2C265.5 39.8 265 40.3 264.3 40.6C263.6 40.9 262.8 41.1 261.8 41.1C260.3 41.1 259.2 40.7 258.4 40C257.5 39 257.1 37.9 256.9 36.5Z" fill="white" stroke="#B498A0" stroke-width="0.4996" stroke-miterlimit="10"/>
<path d="M61 57.4V47H55.3V44.9H70.5V47H64.8V57.4H61Z" fill="white" stroke="#B498A0" stroke-width="0.5" stroke-miterlimit="10"/>
<path d="M73 57.4V44.9H76.9V49.8H84.5V44.9H88.4V57.4H84.5V51.9H76.9V57.4H73Z" fill="white" stroke="#B498A0" stroke-width="0.5" stroke-miterlimit="10"/>
<path d="M92.2 57.4V44.9H106.4V47H96.1V49.8H105.7V51.9H96.1V55.3H106.8V57.4H92.2Z" fill="white" stroke="#B498A0" stroke-width="0.5" stroke-miterlimit="10"/>
<path d="M116.5 53.3L120.3 53.1C120.5 53.9 121 54.5 121.7 54.9C122.4 55.3 123.3 55.5 124.5 55.5C125.7 55.5 126.7 55.3 127.3 55C127.9 54.7 128.2 54.3 128.2 53.8C128.2 53.5 128.1 53.3 127.8 53C127.5 52.8 127.1 52.6 126.4 52.5C126 52.4 124.9 52.2 123.3 52C121.2 51.7 119.8 51.2 119 50.8C117.8 50.1 117.2 49.3 117.2 48.3C117.2 47.7 117.5 47.1 118 46.5C118.6 45.9 119.3 45.5 120.4 45.2C121.4 44.9 122.7 44.8 124.2 44.8C126.6 44.8 128.4 45.1 129.6 45.8C130.8 46.5 131.5 47.4 131.5 48.6L127.6 48.7C127.4 48.1 127.1 47.6 126.5 47.3C126 47 125.1 46.9 124.1 46.9C123 46.9 122.1 47 121.5 47.4C121.1 47.6 120.9 47.9 120.9 48.2C120.9 48.5 121.1 48.7 121.5 49C122 49.3 123.2 49.5 125 49.8C126.9 50.1 128.3 50.4 129.2 50.7C130.1 51 130.8 51.4 131.3 52C131.8 52.5 132.1 53.2 132.1 54C132.1 54.7 131.8 55.4 131.2 56C130.6 56.6 129.7 57.1 128.6 57.4C127.5 57.7 126.1 57.9 124.4 57.9C122 57.9 120.1 57.5 118.8 56.8C117.5 55.7 116.7 54.7 116.5 53.3Z" fill="white" stroke="#B498A0" stroke-width="0.5" stroke-miterlimit="10"/>
<path d="M139.6 57.4V47H133.9V44.9H149.1V47H143.4V57.4H139.6Z" fill="white" stroke="#B498A0" stroke-width="0.5" stroke-miterlimit="10"/>
<path d="M166.8 57.4H162.6L160.9 54.6H153.3L151.7 57.4H147.6L155 44.9H159.1L166.8 57.4ZM159.7 52.4L157.1 47.7L154.5 52.4H159.7Z" fill="white" stroke="#B498A0" stroke-width="0.5" stroke-miterlimit="10"/>
<path d="M168.9 57.4V44.9H177C179 44.9 180.5 45 181.4 45.2C182.3 45.4 183.1 45.8 183.6 46.4C184.2 47 184.4 47.6 184.4 48.4C184.4 49.3 184 50.1 183.1 50.7C182.2 51.3 181 51.7 179.3 51.9C180.1 52.2 180.8 52.6 181.4 53C182 53.4 182.7 54.1 183.6 55L185.9 57.4H181.3L178.5 54.7C177.5 53.7 176.8 53.1 176.5 52.9C176.1 52.6 175.7 52.5 175.3 52.4C174.9 52.3 174.2 52.3 173.4 52.3H172.6V57.5L168.9 57.4ZM172.7 50.1H175.6C177.5 50.1 178.6 50.1 179.1 50C179.6 49.9 179.9 49.7 180.2 49.5C180.5 49.2 180.6 48.9 180.6 48.6C180.6 48.2 180.4 47.8 180.1 47.6C179.8 47.3 179.3 47.2 178.7 47.1C178.4 47.1 177.5 47.1 175.9 47.1H172.9L172.7 50.1Z" fill="white" stroke="#B498A0" stroke-width="0.5" stroke-miterlimit="10"/>
<path d="M188.2 57.4V45H192.1V55.3H201.7V57.4H188.2Z" fill="white" stroke="#B498A0" stroke-width="0.5" stroke-miterlimit="10"/>
<path d="M204.3 57.4V44.9H208.2V57.4H204.3Z" fill="white" stroke="#B498A0" stroke-width="0.5" stroke-miterlimit="10"/>
<path d="M211.9 57.4V44.9H215.7L223.5 53.3V44.9H227.1V57.4H223.2L215.5 49.2V57.4H211.9Z" fill="white" stroke="#B498A0" stroke-width="0.5" stroke-miterlimit="10"/>
<path d="M240 52.7V50.6H248.3V55.6C247.5 56.1 246.3 56.6 244.8 57C243.3 57.4 241.7 57.6 240.1 57.6C238.1 57.6 236.4 57.3 234.9 56.8C233.4 56.3 232.3 55.5 231.5 54.4C230.7 53.4 230.4 52.3 230.4 51.1C230.4 49.8 230.8 48.6 231.6 47.6C232.4 46.6 233.7 45.8 235.3 45.3C236.5 44.9 238.1 44.7 239.9 44.7C242.3 44.7 244.1 45 245.5 45.7C246.8 46.4 247.7 47.3 248.1 48.4L244.3 48.9C244 48.3 243.5 47.8 242.8 47.4C242.1 47 241.1 46.9 240 46.9C238.3 46.9 237 47.3 236 48C235 48.7 234.5 49.7 234.5 51.1C234.5 52.6 235 53.7 236 54.5C237 55.3 238.3 55.6 240 55.6C240.8 55.6 241.6 55.5 242.4 55.3C243.2 55.1 243.9 54.8 244.5 54.5V52.9L240 52.7Z" fill="white" stroke="#B498A0" stroke-width="0.5" stroke-miterlimit="10"/>
<path d="M250.9 53.3L254.7 53.1C254.9 53.9 255.4 54.5 256.1 54.9C256.8 55.3 257.7 55.5 258.9 55.5C260.1 55.5 261.1 55.3 261.7 55C262.3 54.7 262.6 54.3 262.6 53.8C262.6 53.5 262.5 53.3 262.2 53C261.9 52.8 261.5 52.6 260.8 52.5C260.3 52.4 259.3 52.2 257.7 52C255.6 51.7 254.2 51.2 253.3 50.8C252.1 50.1 251.5 49.3 251.5 48.3C251.5 47.7 251.8 47.1 252.3 46.5C252.9 45.9 253.7 45.5 254.7 45.2C255.7 44.9 257 44.8 258.5 44.8C260.9 44.8 262.7 45.1 263.9 45.8C265.1 46.5 265.8 47.4 265.8 48.6L261.9 48.7C261.7 48.1 261.4 47.6 260.8 47.3C260.3 47 259.4 46.9 258.4 46.9C257.3 46.9 256.4 47 255.8 47.4C255.4 47.6 255.2 47.9 255.2 48.2C255.2 48.5 255.4 48.7 255.8 49C256.3 49.3 257.5 49.5 259.3 49.8C261.2 50.1 262.6 50.4 263.5 50.7C264.4 51 265.1 51.4 265.6 52C266.1 52.5 266.4 53.2 266.4 54C266.4 54.7 266.1 55.4 265.5 56C264.9 56.6 264 57.1 262.9 57.4C261.8 57.7 260.4 57.9 258.7 57.9C256.3 57.9 254.4 57.5 253.1 56.8C251.9 55.7 251.1 54.7 250.9 53.3Z" fill="white" stroke="#B498A0" stroke-width="0.5" stroke-miterlimit="10"/>
<path d="M58.6 73.9L54.3 61.4H58L60.7 70L64 61.4H68.3L71.5 70.2L74.3 61.4H78L73.6 73.9H69.7L66.1 64.5L62.5 73.9H58.6Z" fill="white" stroke="#B498A0" stroke-width="0.5038" stroke-miterlimit="10"/>
<path d="M79.8 73.9V61.4H83.5V73.9H79.8Z" fill="white" stroke="#B498A0" stroke-width="0.5038" stroke-miterlimit="10"/>
<path d="M87 73.9V61.5H90.7V71.8H99.8V73.9H87Z" fill="white" stroke="#B498A0" stroke-width="0.5038" stroke-miterlimit="10"/>
<path d="M102.5 73.9V61.5H106.2V71.8H115.3V73.9H102.5Z" fill="white" stroke="#B498A0" stroke-width="0.5038" stroke-miterlimit="10"/>
<path d="M120.3 73.9V68.6L113.7 61.3H118L122.3 66.3L126.5 61.3H130.7L124 68.6V73.9H120.3Z" fill="white" stroke="#B498A0" stroke-width="0.5038" stroke-miterlimit="10"/>
<path d="M138 69.9L141.6 69.7C141.8 70.5 142.2 71.1 142.9 71.5C143.5 71.9 144.4 72.1 145.6 72.1C146.8 72.1 147.7 71.9 148.3 71.6C148.9 71.3 149.2 70.9 149.2 70.4C149.2 70.1 149.1 69.9 148.8 69.6C148.5 69.4 148.1 69.2 147.5 69.1C147.1 69 146.1 68.8 144.6 68.6C142.6 68.3 141.3 67.8 140.5 67.4C139.4 66.7 138.8 65.9 138.8 64.9C138.8 64.3 139.1 63.7 139.6 63.1C140.1 62.5 140.9 62.1 141.9 61.8C142.9 61.5 144.1 61.4 145.5 61.4C147.8 61.4 149.5 61.7 150.6 62.4C151.7 63.1 152.3 64 152.4 65.2L148.7 65.3C148.5 64.7 148.2 64.2 147.7 63.9C147.2 63.6 146.4 63.5 145.4 63.5C144.3 63.5 143.5 63.6 142.9 64C142.5 64.2 142.3 64.5 142.3 64.8C142.3 65.1 142.5 65.3 142.8 65.6C143.3 65.9 144.4 66.1 146.2 66.4C148 66.7 149.3 67 150.1 67.3C151 67.6 151.6 68 152.1 68.6C152.6 69.1 152.8 69.8 152.8 70.6C152.8 71.3 152.5 72 151.9 72.6C151.3 73.2 150.5 73.7 149.5 74C148.4 74.3 147.1 74.5 145.6 74.5C143.3 74.5 141.6 74.1 140.3 73.4C139 72.3 138.2 71.3 138 69.9Z" fill="white" stroke="#B498A0" stroke-width="0.5038" stroke-miterlimit="10"/>
<path d="M155.1 67.7C155.1 66.4 155.4 65.4 155.9 64.5C156.3 63.9 156.9 63.3 157.6 62.8C158.3 62.3 159.1 61.9 159.9 61.7C161 61.4 162.3 61.2 163.8 61.2C166.5 61.2 168.6 61.8 170.2 62.9C171.8 64 172.6 65.6 172.6 67.7C172.6 69.7 171.8 71.3 170.2 72.4C168.6 73.5 166.5 74.1 163.8 74.1C161.1 74.1 159 73.5 157.4 72.4C155.8 71.3 155.1 69.7 155.1 67.7ZM158.8 67.7C158.8 69.1 159.3 70.2 160.2 70.9C161.1 71.6 162.4 72 163.8 72C165.2 72 166.5 71.6 167.4 70.9C168.3 70.2 168.8 69.1 168.8 67.6C168.8 66.2 168.3 65.1 167.4 64.4C166.5 63.7 165.3 63.3 163.8 63.3C162.3 63.3 161.1 63.7 160.2 64.4C159.3 65.1 158.8 66.2 158.8 67.7Z" fill="white" stroke="#B498A0" stroke-width="0.5038" stroke-miterlimit="10"/>
<path d="M175.4 73.9V61.4H180.9L184.2 70L187.4 61.4H192.9V73.9H189.5V64L185.9 73.9H182.4L178.8 64V73.9H175.4Z" fill="white" stroke="#B498A0" stroke-width="0.5038" stroke-miterlimit="10"/>
<path d="M196.5 73.9V61.4H202L205.3 70L208.5 61.4H214V73.9H210.6V64L207 73.9H203.5L199.9 64V73.9H196.5Z" fill="white" stroke="#B498A0" stroke-width="0.5038" stroke-miterlimit="10"/>
<path d="M217.6 73.9V61.4H231V63.5H221.2V66.3H230.3V68.4H221.2V71.8H231.3V73.9H217.6Z" fill="white" stroke="#B498A0" stroke-width="0.5038" stroke-miterlimit="10"/>
<path d="M234.5 73.9V61.4H242.2C244.1 61.4 245.5 61.5 246.4 61.7C247.3 61.9 248 62.3 248.5 62.9C249 63.5 249.3 64.1 249.3 64.9C249.3 65.8 248.9 66.6 248.1 67.2C247.3 67.8 246.1 68.2 244.5 68.4C245.3 68.7 245.9 69.1 246.5 69.5C247.1 69.9 247.7 70.6 248.6 71.5L250.8 73.9H246.4L243.8 71.2C242.9 70.2 242.2 69.6 241.9 69.4C241.6 69.1 241.2 69 240.8 68.9C240.4 68.8 239.8 68.8 239 68.8H238.3V74L234.5 73.9ZM238.1 66.7H240.8C242.6 66.7 243.6 66.7 244.1 66.6C244.5 66.5 244.9 66.3 245.1 66.1C245.3 65.8 245.5 65.5 245.5 65.2C245.5 64.8 245.3 64.4 245 64.2C244.7 63.9 244.2 63.8 243.6 63.7C243.3 63.7 242.4 63.7 240.9 63.7H238L238.1 66.7Z" fill="white" stroke="#B498A0" stroke-width="0.5038" stroke-miterlimit="10"/>
<path d="M251.8 69.9L255.4 69.7C255.6 70.5 256 71.1 256.7 71.5C257.3 71.9 258.2 72.1 259.4 72.1C260.6 72.1 261.5 71.9 262.1 71.6C262.7 71.3 263 70.9 263 70.4C263 70.1 262.9 69.9 262.6 69.6C262.3 69.3 261.9 69.2 261.3 69.1C260.9 69 259.9 68.8 258.4 68.6C256.4 68.3 255.1 67.8 254.3 67.4C253.2 66.7 252.6 65.9 252.6 64.9C252.6 64.3 252.9 63.7 253.4 63.1C253.9 62.5 254.7 62.1 255.7 61.8C256.7 61.5 257.9 61.4 259.3 61.4C261.6 61.4 263.3 61.7 264.4 62.4C265.5 63.1 266.1 64 266.2 65.2L262.5 65.3C262.3 64.7 262 64.2 261.5 63.9C261 63.6 260.2 63.5 259.2 63.5C258.1 63.5 257.3 63.6 256.7 64C256.3 64.2 256.1 64.5 256.1 64.8C256.1 65.1 256.3 65.3 256.6 65.6C257.1 65.9 258.2 66.1 260 66.4C261.8 66.7 263.1 67 263.9 67.3C264.8 67.6 265.4 68 265.9 68.6C266.4 69.1 266.6 69.8 266.6 70.6C266.6 71.3 266.3 72 265.7 72.6C265.1 73.2 264.3 73.7 263.3 74C262.2 74.3 260.9 74.5 259.4 74.5C257.1 74.5 255.4 74.1 254.1 73.4C252.8 72.3 252 71.3 251.8 69.9Z" fill="white" stroke="#B498A0" stroke-width="0.5038" stroke-miterlimit="10"/>
<path d="M59.4 90.9V80.5H55.7V78.4H65.6V80.5H61.9V90.9H59.4Z" fill="white" stroke="#B498A0" stroke-width="0.5" stroke-miterlimit="10"/>
<path d="M67.2 90.9V78.4H69.7V83.3H74.6V78.4H77.1V90.9H74.6V85.4H69.7V90.9H67.2Z" fill="white" stroke="#B498A0" stroke-width="0.5" stroke-miterlimit="10"/>
<path d="M79.8 90.9V78.4H89V80.5H82.3V83.3H88.5V85.4H82.3V88.8H89.3V90.9H79.8Z" fill="white" stroke="#B498A0" stroke-width="0.5" stroke-miterlimit="10"/>
<path d="M106.8 90.9H104.1L103 88H98L97 90.8H94.3L99.1 78.3H101.8L106.8 90.9ZM102.2 85.9L100.5 81.2L98.8 85.9H102.2Z" fill="white" stroke="#B498A0" stroke-width="0.5" stroke-miterlimit="10"/>
<path d="M108.1 90.9V78.4H111.9L114.2 87L116.4 78.4H120.2V90.9H117.9V81L115.4 90.9H113L110.5 81V90.9H108.1Z" fill="white" stroke="#B498A0" stroke-width="0.5" stroke-miterlimit="10"/>
<path d="M133.9 90.9H131.2L130 88H125L124 90.8H121.3L126.1 78.3H128.8L133.9 90.9ZM129.2 85.9L127.5 81.2L125.8 85.9H129.2Z" fill="white" stroke="#B498A0" stroke-width="0.5" stroke-miterlimit="10"/>
<path d="M134.1 90.9V88.6L140.6 80.5H134.8V78.4H143.9V80.4L137.1 88.9H144.2V91L134.1 90.9Z" fill="white" stroke="#B498A0" stroke-width="0.5" stroke-miterlimit="10"/>
<path d="M145.7 90.9V78.4H148.2V90.9H145.7Z" fill="white" stroke="#B498A0" stroke-width="0.5" stroke-miterlimit="10"/>
<path d="M150.7 90.9V78.4H153.1L158.2 86.8V78.4H160.5V90.9H158L153 82.7V90.9H150.7Z" fill="white" stroke="#B498A0" stroke-width="0.5" stroke-miterlimit="10"/>
<path d="M169 86.2V84.1H174.4V89.1C173.9 89.6 173.1 90.1 172.1 90.5C171.1 90.9 170.1 91.1 169.1 91.1C167.8 91.1 166.7 90.8 165.7 90.3C164.7 89.8 164 89 163.5 87.9C163 86.9 162.8 85.8 162.8 84.6C162.8 83.3 163.1 82.1 163.6 81.1C164.1 80.1 164.9 79.3 166 78.8C166.8 78.4 167.8 78.2 169 78.2C170.6 78.2 171.8 78.5 172.6 79.2C173.5 79.9 174 80.8 174.3 81.9L171.8 82.4C171.6 81.8 171.3 81.3 170.8 80.9C170.3 80.5 169.7 80.4 169 80.4C167.9 80.4 167 80.8 166.4 81.5C165.8 82.2 165.4 83.2 165.4 84.6C165.4 86.1 165.7 87.2 166.4 88C167.1 88.7 167.9 89.1 169 89.1C169.5 89.1 170.1 89 170.6 88.8C171.1 88.6 171.6 88.3 172 88V86.4L169 86.2Z" fill="white" stroke="#B498A0" stroke-width="0.5" stroke-miterlimit="10"/>
<path d="M181.6 90.9V78.4H190.1V80.5H184.1V83.5H189.3V85.6H184.1V90.9H181.6V90.9Z" fill="white" stroke="#B498A0" stroke-width="0.5" stroke-miterlimit="10"/>
<path d="M192.3 90.9V78.5H194.8V88.8H201V90.9H192.3Z" fill="white" stroke="#B498A0" stroke-width="0.5" stroke-miterlimit="10"/>
<path d="M202.3 84.7C202.3 83.4 202.5 82.4 202.9 81.5C203.2 80.9 203.6 80.3 204.1 79.8C204.6 79.3 205.1 78.9 205.7 78.7C206.5 78.4 207.4 78.2 208.4 78.2C210.2 78.2 211.7 78.8 212.8 79.9C213.9 81 214.4 82.6 214.4 84.7C214.4 86.7 213.8 88.3 212.8 89.4C211.8 90.5 210.2 91.1 208.4 91.1C206.5 91.1 205.1 90.5 204 89.4C202.9 88.2 202.3 86.7 202.3 84.7ZM204.9 84.6C204.9 86 205.2 87.1 205.9 87.8C206.5 88.5 207.4 88.9 208.4 88.9C209.4 88.9 210.2 88.5 210.9 87.8C211.5 87.1 211.9 86 211.9 84.5C211.9 83.1 211.6 82 211 81.3C210.4 80.6 209.5 80.2 208.5 80.2C207.5 80.2 206.6 80.6 206 81.3C205.2 82.1 204.9 83.1 204.9 84.6Z" fill="white" stroke="#B498A0" stroke-width="0.5" stroke-miterlimit="10"/>
<path d="M218.1 90.9L215.1 78.4H217.7L219.6 87L221.9 78.4H224.9L227.1 87.2L229 78.4H231.5L228.5 90.9H225.8L223.3 81.5L220.8 90.9H218.1Z" fill="white" stroke="#B498A0" stroke-width="0.5" stroke-miterlimit="10"/>
<path d="M232.8 90.9V78.4H242V80.5H235.3V83.3H241.5V85.4H235.3V88.8H242.3V90.9H232.8Z" fill="white" stroke="#B498A0" stroke-width="0.5" stroke-miterlimit="10"/>
<path d="M244.4 90.9V78.4H249.7C251 78.4 252 78.5 252.6 78.7C253.2 78.9 253.7 79.3 254 79.9C254.4 80.5 254.5 81.1 254.5 81.9C254.5 82.8 254.2 83.6 253.7 84.2C253.1 84.8 252.3 85.2 251.2 85.4C251.7 85.7 252.2 86.1 252.6 86.5C253 86.9 253.4 87.6 254 88.5L255.5 90.9H252.5L250.7 88.2C250.1 87.2 249.6 86.6 249.4 86.4C249.2 86.2 248.9 86 248.6 85.9C248.3 85.8 247.9 85.8 247.3 85.8H246.8V91L244.4 90.9ZM246.9 83.6H248.8C250 83.6 250.8 83.6 251.1 83.5C251.4 83.4 251.6 83.2 251.8 83C252 82.7 252 82.4 252 82.1C252 81.7 251.9 81.3 251.7 81.1C251.5 80.8 251.2 80.7 250.8 80.6C250.6 80.6 250 80.6 249 80.6H247V83.6H246.9Z" fill="white" stroke="#B498A0" stroke-width="0.5" stroke-miterlimit="10"/>
<path d="M256.3 86.8L258.8 86.6C258.9 87.4 259.3 88 259.7 88.4C260.1 88.8 260.8 89 261.5 89C262.3 89 262.9 88.8 263.3 88.5C263.7 88.2 263.9 87.8 263.9 87.3C263.9 87 263.8 86.8 263.6 86.5C263.4 86.3 263.1 86.1 262.7 86C262.4 85.9 261.7 85.7 260.7 85.5C259.3 85.2 258.4 84.7 257.9 84.3C257.1 83.6 256.8 82.8 256.8 81.8C256.8 81.2 257 80.6 257.3 80C257.6 79.4 258.2 79 258.8 78.7C259.5 78.4 260.3 78.3 261.3 78.3C262.9 78.3 264 78.6 264.8 79.3C265.6 80 266 80.9 266 82.1L263.5 82.2C263.4 81.6 263.2 81.1 262.8 80.8C262.4 80.5 261.9 80.4 261.2 80.4C260.5 80.4 259.9 80.5 259.5 80.9C259.2 81.1 259.1 81.4 259.1 81.7C259.1 82 259.2 82.2 259.5 82.5C259.8 82.8 260.6 83 261.8 83.3C263 83.6 263.9 83.9 264.5 84.2C265.1 84.5 265.5 84.9 265.9 85.5C266.2 86 266.4 86.7 266.4 87.5C266.4 88.2 266.2 88.9 265.8 89.5C265.4 90.1 264.8 90.6 264.1 90.9C263.4 91.2 262.5 91.4 261.4 91.4C259.8 91.4 258.6 91 257.8 90.3C257 89.6 256.5 88.2 256.3 86.8Z" fill="white" stroke="#B498A0" stroke-width="0.5" stroke-miterlimit="10"/>
<path d="M55.1 121.4V95.4H82.9C89.9 95.4 95 95.6 98.1 96.1C101.3 96.6 103.8 97.4 105.7 98.6C107.6 99.8 108.5 101.2 108.5 102.7C108.5 104.7 107.1 106.3 104.2 107.5C101.3 108.8 97 109.6 91.3 109.9C94.1 110.6 96.5 111.3 98.4 112.1C100.3 112.9 102.8 114.3 105.9 116.3L113.9 121.4H98.1L88.6 115.7C85.2 113.7 82.9 112.4 81.6 111.9C80.3 111.4 79 111 77.6 110.8C76.2 110.6 74 110.5 71 110.5H68.3V121.4H55.1ZM68.3 106.4H78C84.3 106.4 88.3 106.3 89.9 106.1C91.5 105.9 92.7 105.5 93.6 105C94.5 104.5 94.9 103.8 94.9 103C94.9 102.1 94.3 101.4 93.1 100.9C91.9 100.4 90.3 100 88.1 99.9C87 99.8 83.8 99.8 78.5 99.8H68.3C68.3 99.8 68.3 106.4 68.3 106.4Z" fill="white" stroke="#B498A0" stroke-width="0.5" stroke-miterlimit="10"/>
<path d="M121 121.4V95.4H169.5V99.8H134.2V105.6H167V110H134.2V117.1H170.7V121.5H121V121.4Z" fill="white" stroke="#B498A0" stroke-width="0.5" stroke-miterlimit="10"/>
<path d="M212.3 111.8V107.4H240.7V117.8C237.9 118.9 233.9 119.8 228.7 120.6C223.5 121.4 218.1 121.8 212.8 121.8C206 121.8 200 121.2 194.9 120.1C189.8 119 186 117.3 183.4 115.2C180.8 113.1 179.6 110.8 179.6 108.3C179.6 105.6 181 103.2 183.9 101.1C186.8 99 190.9 97.4 196.4 96.3C200.6 95.4 205.8 95 212 95C220.1 95 226.4 95.7 231 97C235.6 98.3 238.5 100.2 239.8 102.6L226.7 103.6C225.8 102.3 224.1 101.3 221.5 100.6C219 99.9 215.8 99.5 212 99.5C206.2 99.5 201.6 100.2 198.2 101.7C194.8 103.2 193.1 105.3 193.1 108.2C193.1 111.3 194.8 113.6 198.3 115.1C201.7 116.6 206.3 117.4 211.9 117.4C214.7 117.4 217.4 117.2 220.2 116.7C223 116.2 225.4 115.8 227.4 115.1V111.8H212.3Z" fill="white" stroke="#B498A0" stroke-width="0.5" stroke-miterlimit="10"/>
<path d="M252.5 121.4V95.4H265.7V121.4H252.5Z" fill="white" stroke="#B498A0" stroke-width="0.5" stroke-miterlimit="10"/>
<path d="M26.4 38.4V30.5H22.5V28.9H33.1V30.5H29.2V38.4H26.4Z" fill="white" stroke="#B498A0" stroke-width="0.4958" stroke-miterlimit="10"/>
<path d="M21.4 47C21.4 46 21.6 45.2 22 44.6C22.3 44.1 22.7 43.7 23.2 43.3C23.7 42.9 24.3 42.6 24.9 42.4C25.7 42.2 26.7 42 27.8 42C29.8 42 31.3 42.4 32.5 43.3C33.7 44.2 34.3 45.4 34.3 46.9C34.3 48.4 33.7 49.6 32.6 50.5C31.4 51.4 29.9 51.8 27.9 51.8C25.9 51.8 24.4 51.4 23.2 50.5C21.9 49.7 21.4 48.5 21.4 47ZM24.1 46.9C24.1 48 24.4 48.8 25.1 49.3C25.8 49.9 26.7 50.1 27.8 50.1C28.9 50.1 29.8 49.8 30.4 49.3C31.1 48.7 31.4 47.9 31.4 46.8C31.4 45.7 31.1 44.9 30.4 44.4C29.7 43.9 28.8 43.6 27.7 43.6C26.6 43.6 25.7 43.9 25 44.4C24.5 45 24.1 45.8 24.1 46.9Z" fill="white" stroke="#B498A0" stroke-width="0.4958" stroke-miterlimit="10"/>
<path d="M22.4 65V55.5H25.1V59.7L30.5 55.5H34.1L29.1 59.2L34.4 65H31L27.3 60.5L25.1 62.1V65H22.4Z" fill="white" stroke="#B498A0" stroke-width="0.4958" stroke-miterlimit="10"/>
<path d="M22.4 78.3V68.8H25.1V73L30.5 68.8H34.1L29.1 72.5L34.4 78.3H31L27.3 73.8L25.1 75.4V78.3H22.4Z" fill="white" stroke="#B498A0" stroke-width="0.4958" stroke-miterlimit="10"/>
<path d="M22.9 91.5V82H32.7V83.6H25.5V85.7H32.2V87.3H25.5V89.9H33V91.5H22.9V91.5Z" fill="white" stroke="#B498A0" stroke-width="0.4958" stroke-miterlimit="10"/>
<path d="M27.7 95.3C29 95.3 30 95.6 30.7 96.3C31.6 97.1 32 98.4 32 100.2C32 102 31.6 103.3 30.7 104.1C30 104.7 29 105.1 27.7 105.1C26.4 105.1 25.4 104.7 24.6 104C23.8 103.3 23.4 102 23.4 100.2C23.4 98.4 23.8 97.1 24.7 96.3C25.4 95.6 26.4 95.3 27.7 95.3ZM27.7 96.8C27.4 96.8 27.1 96.9 26.9 97C26.7 97.1 26.5 97.4 26.3 97.8C26.1 98.3 26 99.1 26 100.2C26 101.3 26.1 102.1 26.2 102.5C26.4 102.9 26.5 103.2 26.8 103.3C27 103.4 27.3 103.5 27.6 103.5C27.9 103.5 28.2 103.4 28.4 103.3C28.6 103.2 28.8 102.9 29 102.5C29.2 102 29.3 101.2 29.3 100.1C29.3 99 29.2 98.2 29.1 97.8C29 97.4 28.8 97.1 28.5 97C28.3 96.8 28 96.8 27.7 96.8Z" fill="white" stroke="#B498A0" stroke-width="0.4958" stroke-miterlimit="10"/>
<path d="M27.7 108.5C29 108.5 30 108.8 30.7 109.5C31.6 110.3 32 111.6 32 113.4C32 115.2 31.6 116.5 30.7 117.3C30 117.9 29 118.3 27.7 118.3C26.4 118.3 25.4 117.9 24.6 117.2C23.8 116.5 23.4 115.2 23.4 113.4C23.4 111.6 23.8 110.3 24.7 109.5C25.4 108.9 26.4 108.5 27.7 108.5ZM27.7 110C27.4 110 27.1 110.1 26.9 110.2C26.7 110.3 26.5 110.6 26.3 111C26.1 111.5 26 112.3 26 113.4C26 114.5 26.1 115.3 26.2 115.7C26.4 116.1 26.5 116.4 26.8 116.5C27 116.6 27.3 116.7 27.6 116.7C27.9 116.7 28.2 116.6 28.4 116.5C28.6 116.4 28.8 116.1 29 115.7C29.2 115.2 29.3 114.4 29.3 113.3C29.3 112.2 29.2 111.4 29.1 111C29 110.6 28.8 110.3 28.5 110.2C28.3 110.1 28 110 27.7 110Z" fill="white" stroke="#B498A0" stroke-width="0.4958" stroke-miterlimit="10"/>
<path d="M47.5 12H45.7V120.8H47.5V12Z" stroke="#D7BCB6" stroke-width="1.7304" stroke-miterlimit="10"/>
<path d="M54.1 15.8C54.1 15.3 54.3 14.7 54.8 14.2C55.3 13.7 55.9 13.3 56.7 13C57.5 12.7 58.4 12.6 59.4 12.6C60.9 12.6 62.2 12.9 63.2 13.5C64.2 14.1 64.7 14.9 64.7 15.8C64.7 16.7 64.2 17.5 63.2 18.1C62.2 18.7 60.9 19 59.4 19C58.5 19 57.6 18.9 56.7 18.6C55.8 18.3 55.2 18 54.8 17.5C54.4 17 54.1 16.5 54.1 15.8ZM56.9 15.9C56.9 16.5 57.1 17 57.6 17.3C58.1 17.6 58.7 17.8 59.4 17.8C60.1 17.8 60.7 17.6 61.2 17.3C61.7 17 61.9 16.5 61.9 15.9C61.9 15.3 61.7 14.8 61.2 14.5C60.7 14.2 60.1 14 59.4 14C58.7 14 58.1 14.2 57.6 14.5C57.1 14.8 56.9 15.3 56.9 15.9Z" fill="#7E6B76"/>
<path d="M66.7 12.8H69.2V13.7C69.5 13.4 70 13.1 70.5 12.9C71.1 12.7 71.7 12.6 72.4 12.6C73.6 12.6 74.6 12.9 75.4 13.4C76.2 13.9 76.6 14.8 76.6 15.8C76.6 16.8 76.2 17.6 75.3 18.2C74.5 18.8 73.5 19.1 72.3 19.1C71.7 19.1 71.2 19 70.8 18.9C70.3 18.8 69.9 18.5 69.4 18.2V21.3H66.7V12.8ZM69.3 15.8C69.3 16.5 69.5 17 70 17.3C70.5 17.6 71 17.8 71.7 17.8C72.3 17.8 72.9 17.6 73.3 17.3C73.7 17 73.9 16.5 73.9 15.8C73.9 15.1 73.7 14.7 73.3 14.3C72.9 13.9 72.3 13.8 71.7 13.8C71 13.8 70.5 14 70.1 14.3C69.6 14.7 69.3 15.2 69.3 15.8Z" fill="#7E6B76"/>
<path d="M83.5 12.8V14.1H81.7V16.6C81.7 17.1 81.7 17.4 81.8 17.5C81.9 17.6 81.9 17.7 82 17.7C82.1 17.7 82.3 17.8 82.5 17.8C82.7 17.8 83.1 17.7 83.6 17.6L83.8 18.9C83.2 19.1 82.5 19.1 81.7 19.1C81.2 19.1 80.8 19.1 80.4 19C80 18.9 79.7 18.8 79.5 18.6C79.3 18.4 79.2 18.2 79.1 18C79 17.8 79 17.4 79 16.8V14.1H77.8V12.8H79V11.6L81.7 10.6V12.8H83.5Z" fill="#7E6B76"/>
<path d="M87.9 19H85.2V12.8H87.7V13.7C88.1 13.3 88.5 13 88.9 12.9C89.2 12.8 89.6 12.7 90.1 12.7C90.7 12.7 91.3 12.8 91.9 13L91.1 14.4C90.6 14.2 90.2 14.1 89.8 14.1C89.4 14.1 89.1 14.2 88.8 14.3C88.5 14.4 88.3 14.7 88.2 15C88.1 15.3 88 16 88 17.1V19H87.9Z" fill="#7E6B76"/>
<path d="M98.9 17.1L101.6 17.4C101.3 18 100.7 18.5 100 18.8C99.3 19.1 98.3 19.3 97.2 19.3C95.4 19.3 94.1 18.9 93.3 18.2C92.6 17.6 92.3 16.9 92.3 16.1C92.3 15.1 92.7 14.3 93.6 13.7C94.5 13.1 95.6 12.8 97 12.8C98.5 12.8 99.7 13.1 100.6 13.7C101.5 14.3 101.9 15.2 101.9 16.5H95C95 17 95.2 17.4 95.7 17.6C96.2 17.8 96.6 18 97.3 18C97.7 18 98.1 17.9 98.4 17.8C98.7 17.7 98.8 17.4 98.9 17.1ZM99.1 15.4C99.1 14.9 98.9 14.6 98.5 14.3C98.1 14 97.6 13.9 97.1 13.9C96.5 13.9 96 14 95.6 14.3C95.2 14.6 95 14.9 95 15.4H99.1Z" fill="#7E6B76"/>
<path d="M113.3 19H110.8V18.1C110.4 18.5 109.9 18.7 109.3 18.9C108.7 19.1 108.2 19.2 107.6 19.2C106.4 19.2 105.4 18.9 104.6 18.3C103.8 17.7 103.3 16.9 103.3 15.9C103.3 14.8 103.7 14 104.5 13.5C105.3 13 106.3 12.7 107.6 12.7C108.7 12.7 109.7 13 110.6 13.6V10.5H113.3V19ZM106.1 15.8C106.1 16.5 106.3 16.9 106.6 17.2C107 17.6 107.6 17.8 108.4 17.8C109 17.8 109.6 17.6 110 17.3C110.4 17 110.7 16.5 110.7 15.9C110.7 15.2 110.5 14.7 110.1 14.4C109.7 14.1 109.1 13.9 108.5 13.9C107.9 13.9 107.3 14.1 106.9 14.4C106.3 14.7 106.1 15.2 106.1 15.8Z" fill="#7E6B76"/>
<path d="M121.9 17.1L124.6 17.4C124.3 18 123.7 18.5 123 18.8C122.3 19.1 121.3 19.3 120.2 19.3C118.4 19.3 117.1 18.9 116.3 18.2C115.6 17.6 115.3 16.9 115.3 16.1C115.3 15.1 115.7 14.3 116.6 13.7C117.5 13.1 118.6 12.8 120 12.8C121.5 12.8 122.7 13.1 123.6 13.7C124.5 14.3 124.9 15.2 124.9 16.5H118C118 17 118.2 17.4 118.7 17.6C119.2 17.8 119.6 18 120.3 18C120.7 18 121.1 17.9 121.4 17.8C121.7 17.7 121.8 17.4 121.9 17.1ZM122.1 15.4C122.1 14.9 121.9 14.6 121.5 14.3C121.1 14 120.6 13.9 120.1 13.9C119.5 13.9 119 14 118.6 14.3C118.2 14.6 118 14.9 118 15.4H122.1Z" fill="#7E6B76"/>
<path d="M136.2 19H133.5V15.8C133.5 15.1 133.4 14.7 133.3 14.5C133.2 14.3 133 14.1 132.7 14C132.4 13.9 132.1 13.8 131.8 13.8C131.3 13.8 130.9 13.9 130.5 14C130.1 14.1 129.9 14.4 129.7 14.6C129.5 14.8 129.5 15.3 129.5 16V18.8H126.8V12.6H129.3V13.5C130.2 12.8 131.3 12.4 132.7 12.4C133.3 12.4 133.8 12.5 134.3 12.6C134.8 12.7 135.2 12.9 135.4 13.1C135.7 13.3 135.8 13.5 135.9 13.8C136 14.1 136 14.4 136 14.9V19H136.2Z" fill="#7E6B76"/>
<path d="M138 17.3L140.7 17C140.8 17.3 141 17.6 141.4 17.7C141.8 17.9 142.2 17.9 142.9 17.9C143.6 17.9 144.1 17.8 144.5 17.7C144.7 17.6 144.9 17.4 144.9 17.3C144.9 17.2 144.8 17.1 144.7 17C144.6 16.9 144.3 16.8 143.8 16.8C141.6 16.5 140.2 16.2 139.7 16C138.9 15.7 138.5 15.2 138.5 14.6C138.5 14.1 138.8 13.6 139.5 13.2C140.2 12.8 141.3 12.6 142.8 12.6C144.2 12.6 145.2 12.7 145.9 13C146.6 13.3 147 13.7 147.3 14.2L144.8 14.5C144.7 14.3 144.5 14.1 144.2 13.9C143.9 13.7 143.5 13.7 142.9 13.7C142.2 13.7 141.7 13.8 141.4 13.9C141.2 14 141.1 14.1 141.1 14.2C141.1 14.3 141.2 14.4 141.4 14.5C141.6 14.6 142.5 14.8 143.9 15C145.3 15.2 146.3 15.4 146.9 15.7C147.5 16 147.7 16.4 147.7 16.9C147.7 17.5 147.3 18 146.5 18.4C145.7 18.8 144.6 19 143 19C141.6 19 140.5 18.8 139.7 18.5C138.9 18.2 138.3 17.8 138 17.3Z" fill="#7E6B76"/>
<path d="M158.2 19L154.1 12.8H156.9L158.8 16L159.4 17.1C159.5 16.8 159.6 16.7 159.7 16.6C159.8 16.4 159.9 16.2 160 16.1L161.9 12.9H164.7L160.6 19.1H158.2V19Z" fill="#7E6B76"/>
<path d="M168.4 14.7L165.9 14.4C166.2 13.8 166.7 13.4 167.3 13.1C168 12.8 169 12.7 170.3 12.7C171.5 12.7 172.4 12.8 173 13C173.6 13.2 174 13.4 174.2 13.7C174.4 14 174.6 14.5 174.6 15.2V17.1C174.6 17.6 174.6 18.1 174.7 18.3C174.8 18.6 174.9 18.8 175.2 19.1H172.5C172.4 19 172.3 18.8 172.2 18.6C172.2 18.5 172.1 18.4 172.1 18.4C171.6 18.7 171.1 18.9 170.6 19C170.1 19.1 169.5 19.2 168.9 19.2C167.8 19.2 167 19 166.4 18.7C165.8 18.4 165.5 17.9 165.5 17.4C165.5 17 165.6 16.7 165.9 16.5C166.2 16.2 166.6 16 167.1 15.9C167.6 15.8 168.3 15.6 169.2 15.5C170.5 15.4 171.3 15.2 171.8 15.1V14.9C171.8 14.6 171.7 14.4 171.4 14.2C171.1 14 170.7 14 169.9 14C169.4 14 169 14.1 168.8 14.2C168.8 14.2 168.6 14.4 168.4 14.7ZM172 16C171.7 16.1 171.1 16.2 170.4 16.3C169.6 16.4 169.2 16.5 168.9 16.6C168.5 16.8 168.4 16.9 168.4 17.2C168.4 17.4 168.5 17.6 168.8 17.8C169.1 18 169.4 18.1 169.9 18.1C170.4 18.1 170.9 18 171.3 17.8C171.6 17.7 171.8 17.5 171.9 17.3C172 17.2 172 16.9 172 16.5V16Z" fill="#7E6B76"/>
<path d="M186.6 19H183.9V15.8C183.9 15.1 183.8 14.7 183.7 14.5C183.6 14.3 183.4 14.1 183.1 14C182.8 13.9 182.5 13.8 182.2 13.8C181.7 13.8 181.3 13.9 180.9 14C180.5 14.1 180.3 14.4 180.1 14.6C179.9 14.8 179.9 15.3 179.9 16V18.8H177.2V12.6H179.7V13.5C180.6 12.8 181.7 12.4 183.1 12.4C183.7 12.4 184.2 12.5 184.7 12.6C185.2 12.7 185.6 12.9 185.8 13.1C186.1 13.3 186.2 13.5 186.3 13.8C186.4 14.1 186.4 14.4 186.4 14.9V19H186.6Z" fill="#7E6B76"/>
<path d="M191.4 14.7L188.9 14.4C189.2 13.8 189.7 13.4 190.3 13.1C191 12.8 192 12.7 193.3 12.7C194.5 12.7 195.4 12.8 196 13C196.6 13.2 197 13.4 197.2 13.7C197.4 14 197.6 14.5 197.6 15.2V17.1C197.6 17.6 197.6 18.1 197.7 18.3C197.8 18.6 197.9 18.8 198.2 19.1H195.5C195.4 19 195.3 18.8 195.2 18.6C195.2 18.5 195.1 18.4 195.1 18.4C194.6 18.7 194.1 18.9 193.6 19C193.1 19.1 192.5 19.2 191.9 19.2C190.8 19.2 190 19 189.4 18.7C188.8 18.4 188.5 17.9 188.5 17.4C188.5 17 188.6 16.7 188.9 16.5C189.2 16.2 189.6 16 190.1 15.9C190.6 15.8 191.3 15.6 192.2 15.5C193.5 15.4 194.3 15.2 194.8 15.1V14.9C194.8 14.6 194.7 14.4 194.4 14.2C194.1 14 193.7 14 192.9 14C192.4 14 192 14.1 191.8 14.2C191.8 14.2 191.6 14.4 191.4 14.7ZM195 16C194.7 16.1 194.1 16.2 193.4 16.3C192.6 16.4 192.2 16.5 191.9 16.6C191.5 16.8 191.4 16.9 191.4 17.2C191.4 17.4 191.5 17.6 191.8 17.8C192.1 18 192.4 18.1 192.9 18.1C193.4 18.1 193.9 18 194.3 17.8C194.6 17.7 194.8 17.5 194.9 17.3C195 17.2 195 16.9 195 16.5V16Z" fill="#7E6B76"/>
<path d="M199.1 12.8H200.6V12.3C200.6 11.8 200.7 11.4 200.9 11.1C201.1 10.8 201.4 10.6 201.9 10.5C202.4 10.4 203 10.3 203.8 10.3C204.6 10.3 205.3 10.4 206.1 10.5L205.7 11.6C205.3 11.5 204.9 11.5 204.5 11.5C204.1 11.5 203.8 11.6 203.7 11.7C203.6 11.8 203.4 12 203.4 12.3V12.7H205.4V14H203.4V18.9H200.7V14H199.2V12.8H199.1Z" fill="#7E6B76"/>
<path d="M218.7 19H216V12.8C215 13.4 213.8 13.8 212.5 14V12.5C213.2 12.4 214 12.1 214.8 11.7C215.6 11.3 216.2 10.8 216.5 10.3H218.7V19Z" fill="#7E6B76"/>
<path d="M228 19V17.3H222.2V15.9L228.3 10.4H230.6V15.8H232.4V17.2H230.6V18.9H228V19ZM228 15.9V13L224.8 15.9H228Z" fill="#7E6B76"/>
<path d="M241 19V18.1C240.6 18.4 240.1 18.7 239.5 18.9C238.9 19.1 238.3 19.2 237.6 19.2C236.9 19.2 236.3 19.1 235.8 18.9C235.3 18.7 234.9 18.5 234.6 18.1C234.4 17.8 234.2 17.3 234.2 16.7V12.8H236.9V15.7C236.9 16.6 236.9 17.1 237 17.3C237.1 17.5 237.3 17.7 237.5 17.8C237.7 17.9 238.1 18 238.5 18C239 18 239.4 17.9 239.7 17.8C240 17.7 240.3 17.5 240.5 17.2C240.7 16.9 240.7 16.4 240.7 15.5V12.9H243.4V19.1H241V19Z" fill="#7E6B76"/>
<path d="M250.3 10.4C251.7 10.4 252.7 10.7 253.5 11.3C254.4 12 254.9 13.2 254.9 14.8C254.9 16.4 254.4 17.6 253.5 18.3C252.7 18.9 251.7 19.2 250.3 19.2C248.9 19.2 247.8 18.9 247 18.2C246.2 17.6 245.7 16.4 245.7 14.8C245.7 13.2 246.2 12 247.1 11.3C247.9 10.7 248.9 10.4 250.3 10.4ZM250.3 11.8C250 11.8 249.7 11.9 249.4 12C249.1 12.1 248.9 12.4 248.8 12.7C248.6 13.1 248.5 13.8 248.5 14.9C248.5 16 248.6 16.6 248.7 17C248.8 17.4 249.1 17.6 249.3 17.8C249.6 17.9 249.8 18 250.2 18C250.6 18 250.8 17.9 251.1 17.8C251.4 17.7 251.6 17.4 251.7 17.1C251.9 16.7 252 16 252 15C252 14 251.9 13.3 251.7 12.9C251.5 12.5 251.3 12.3 251.1 12.1C250.9 11.8 250.6 11.8 250.3 11.8Z" fill="#7E6B76"/>
<path d="M261.3 10.4C262.7 10.4 263.7 10.7 264.5 11.3C265.4 12 265.9 13.2 265.9 14.8C265.9 16.4 265.4 17.6 264.5 18.3C263.7 18.9 262.7 19.2 261.3 19.2C259.9 19.2 258.8 18.9 258 18.2C257.2 17.6 256.7 16.4 256.7 14.8C256.7 13.2 257.2 12 258.1 11.3C258.8 10.7 259.9 10.4 261.3 10.4ZM261.3 11.8C261 11.8 260.7 11.9 260.4 12C260.1 12.1 259.9 12.4 259.8 12.7C259.6 13.1 259.5 13.8 259.5 14.9C259.5 16 259.6 16.6 259.7 17C259.8 17.4 260.1 17.6 260.3 17.8C260.6 17.9 260.8 18 261.2 18C261.6 18 261.8 17.9 262.1 17.8C262.4 17.7 262.6 17.4 262.7 17.1C262.9 16.7 263 16 263 15C263 14 262.9 13.3 262.7 12.9C262.5 12.5 262.3 12.3 262.1 12.1C261.9 11.8 261.6 11.8 261.3 11.8Z" fill="#7E6B76"/>
<path d="M17.3 12.2H22.4C23.6 12.2 24.4 12.3 25.1 12.4C25.9 12.5 26.6 12.8 27.2 13.2C27.8 13.6 28.2 14 28.5 14.6C28.8 15.1 29 15.8 29 16.6C29 17.3 28.9 17.9 28.6 18.4C28.3 19 27.8 19.5 27.1 19.9C26.6 20.2 26 20.4 25.1 20.6C24.5 20.7 23.6 20.8 22.6 20.8H17.3V12.2ZM20.1 13.7V19.4H22.2C23 19.4 23.6 19.4 23.9 19.3C24.4 19.2 24.7 19.1 25 18.9C25.3 18.7 25.5 18.5 25.7 18.1C25.9 17.7 26 17.2 26 16.5C26 15.8 25.9 15.3 25.7 15C25.5 14.6 25.2 14.4 24.9 14.2C24.6 14 24.1 13.9 23.6 13.8C23.2 13.7 22.4 13.7 21.3 13.7H20.1V13.7Z" fill="#7E6B76"/>
<path d="M36.4 12.2H39.2V17.6C39.2 18.3 39.1 18.9 38.9 19.2C38.6 19.7 38.1 20.1 37.4 20.4C36.7 20.7 35.7 20.9 34.6 20.9C33.2 20.9 32.2 20.7 31.4 20.2C30.6 19.7 30.3 19 30.3 18.1L33 17.9C33 18.4 33.1 18.7 33.4 18.9C33.7 19.2 34.2 19.4 34.8 19.4C35.4 19.4 35.9 19.3 36.1 19.1C36.3 18.9 36.5 18.4 36.5 17.7V12.2H36.4Z" fill="#7E6B76"/>
</svg>
